G04 Layer: TopPasteMaskLayer*
G04 EasyEDA v6.5.54, 2026-05-04 19:38:11*
G04 5f17a63f1c7d4cd2a323212eb2037d27,960f30f31fa644a792902757f8e8d678,10*
G04 Gerber Generator version 0.2*
G04 Scale: 100 percent, Rotated: No, Reflected: No *
G04 Dimensions in millimeters *
G04 leading zeros omitted , absolute positions ,4 integer and 5 decimal *
%FSLAX45Y45*%
%MOMM*%

%AMMACRO1*21,1,$1,$2,0,0,$3*%
%ADD10R,1.2000X1.2000*%
%ADD11MACRO1,1.5011X0.9982X-90.0000*%
%ADD12MACRO1,1.4986X0.9982X-90.0000*%
%ADD13R,0.7000X1.2500*%
%ADD14R,1.2500X0.7000*%
%ADD15R,0.0196X0.7000*%

%LPD*%
G36*
X9308592Y-9113672D02*
G01*
X9303613Y-9118701D01*
X9303613Y-9233712D01*
X9308592Y-9238691D01*
X9350603Y-9238183D01*
X9350603Y-9194190D01*
X9395612Y-9194190D01*
X9395612Y-9239199D01*
X9436608Y-9238691D01*
X9441586Y-9233712D01*
X9441586Y-9118701D01*
X9436608Y-9113672D01*
G37*
G36*
X9308592Y-9328708D02*
G01*
X9303613Y-9333687D01*
X9303613Y-9448698D01*
X9308592Y-9453676D01*
X9436608Y-9453676D01*
X9441586Y-9448698D01*
X9441586Y-9333687D01*
X9436608Y-9328708D01*
X9395612Y-9329216D01*
X9395612Y-9373209D01*
X9350603Y-9373209D01*
X9350603Y-9328708D01*
G37*
G36*
X10674451Y-4191863D02*
G01*
X10669422Y-4196842D01*
X10669422Y-4324858D01*
X10674451Y-4329836D01*
X10789462Y-4329836D01*
X10794441Y-4324858D01*
X10793933Y-4282846D01*
X10749940Y-4282846D01*
X10749940Y-4237837D01*
X10794949Y-4237837D01*
X10794441Y-4196842D01*
X10789462Y-4191863D01*
G37*
G36*
X10889437Y-4191863D02*
G01*
X10884458Y-4196842D01*
X10884966Y-4237837D01*
X10928959Y-4237837D01*
X10928959Y-4282846D01*
X10884458Y-4282846D01*
X10884458Y-4324858D01*
X10889437Y-4329836D01*
X11004448Y-4329836D01*
X11009426Y-4324858D01*
X11009426Y-4196842D01*
X11004448Y-4191863D01*
G37*
G36*
X10572851Y-3455263D02*
G01*
X10567822Y-3460242D01*
X10567822Y-3588258D01*
X10572851Y-3593236D01*
X10687862Y-3593236D01*
X10692841Y-3588258D01*
X10692333Y-3546246D01*
X10648340Y-3546246D01*
X10648340Y-3501237D01*
X10693349Y-3501237D01*
X10692841Y-3460242D01*
X10687862Y-3455263D01*
G37*
G36*
X10787837Y-3455263D02*
G01*
X10782858Y-3460242D01*
X10783366Y-3501237D01*
X10827359Y-3501237D01*
X10827359Y-3546246D01*
X10782858Y-3546246D01*
X10782858Y-3588258D01*
X10787837Y-3593236D01*
X10902848Y-3593236D01*
X10907826Y-3588258D01*
X10907826Y-3460242D01*
X10902848Y-3455263D01*
G37*
G36*
X6832600Y1732635D02*
G01*
X6827621Y1727606D01*
X6827621Y1612595D01*
X6832600Y1607616D01*
X6874611Y1608124D01*
X6874611Y1652117D01*
X6919620Y1652117D01*
X6919620Y1607108D01*
X6960616Y1607616D01*
X6965594Y1612595D01*
X6965594Y1727606D01*
X6960616Y1732635D01*
G37*
G36*
X6832600Y1517599D02*
G01*
X6827621Y1512620D01*
X6827621Y1397609D01*
X6832600Y1392631D01*
X6960616Y1392631D01*
X6965594Y1397609D01*
X6965594Y1512620D01*
X6960616Y1517599D01*
X6919620Y1517091D01*
X6919620Y1473098D01*
X6874611Y1473098D01*
X6874611Y1517599D01*
G37*
G36*
X6121095Y1631594D02*
G01*
X6116116Y1626616D01*
X6116624Y1584604D01*
X6160617Y1584604D01*
X6160617Y1539595D01*
X6115608Y1539595D01*
X6116116Y1498600D01*
X6121095Y1493621D01*
X6236106Y1493621D01*
X6241135Y1498600D01*
X6241135Y1626616D01*
X6236106Y1631594D01*
G37*
G36*
X5906109Y1631594D02*
G01*
X5901131Y1626616D01*
X5901131Y1498600D01*
X5906109Y1493621D01*
X6021120Y1493621D01*
X6026099Y1498600D01*
X6025591Y1539595D01*
X5981598Y1539595D01*
X5981598Y1584604D01*
X6026099Y1584604D01*
X6026099Y1626616D01*
X6021120Y1631594D01*
G37*
G36*
X6133795Y1136294D02*
G01*
X6128816Y1131316D01*
X6129324Y1089304D01*
X6173317Y1089304D01*
X6173317Y1044295D01*
X6128308Y1044295D01*
X6128816Y1003300D01*
X6133795Y998321D01*
X6248806Y998321D01*
X6253835Y1003300D01*
X6253835Y1131316D01*
X6248806Y1136294D01*
G37*
G36*
X5918809Y1136294D02*
G01*
X5913831Y1131316D01*
X5913831Y1003300D01*
X5918809Y998321D01*
X6033820Y998321D01*
X6038799Y1003300D01*
X6038291Y1044295D01*
X5994298Y1044295D01*
X5994298Y1089304D01*
X6038799Y1089304D01*
X6038799Y1131316D01*
X6033820Y1136294D01*
G37*
G36*
X6832600Y1237335D02*
G01*
X6827621Y1232306D01*
X6827621Y1117295D01*
X6832600Y1112316D01*
X6874611Y1112824D01*
X6874611Y1156817D01*
X6919620Y1156817D01*
X6919620Y1111808D01*
X6960616Y1112316D01*
X6965594Y1117295D01*
X6965594Y1232306D01*
X6960616Y1237335D01*
G37*
G36*
X6832600Y1022299D02*
G01*
X6827621Y1017320D01*
X6827621Y902309D01*
X6832600Y897331D01*
X6960616Y897331D01*
X6965594Y902309D01*
X6965594Y1017320D01*
X6960616Y1022299D01*
X6919620Y1021791D01*
X6919620Y977798D01*
X6874611Y977798D01*
X6874611Y1022299D01*
G37*
G36*
X6832600Y767435D02*
G01*
X6827621Y762406D01*
X6827621Y647395D01*
X6832600Y642416D01*
X6874611Y642924D01*
X6874611Y686917D01*
X6919620Y686917D01*
X6919620Y641908D01*
X6960616Y642416D01*
X6965594Y647395D01*
X6965594Y762406D01*
X6960616Y767435D01*
G37*
G36*
X6832600Y552399D02*
G01*
X6827621Y547420D01*
X6827621Y432409D01*
X6832600Y427431D01*
X6960616Y427431D01*
X6965594Y432409D01*
X6965594Y547420D01*
X6960616Y552399D01*
X6919620Y551891D01*
X6919620Y507898D01*
X6874611Y507898D01*
X6874611Y552399D01*
G37*
G36*
X6133795Y653694D02*
G01*
X6128816Y648716D01*
X6129324Y606704D01*
X6173317Y606704D01*
X6173317Y561695D01*
X6128308Y561695D01*
X6128816Y520700D01*
X6133795Y515721D01*
X6248806Y515721D01*
X6253835Y520700D01*
X6253835Y648716D01*
X6248806Y653694D01*
G37*
G36*
X5918809Y653694D02*
G01*
X5913831Y648716D01*
X5913831Y520700D01*
X5918809Y515721D01*
X6033820Y515721D01*
X6038799Y520700D01*
X6038291Y561695D01*
X5994298Y561695D01*
X5994298Y606704D01*
X6038799Y606704D01*
X6038799Y648716D01*
X6033820Y653694D01*
G37*
D10*
G01*
X11042294Y-4913172D03*
G01*
X11042294Y-4713147D03*
G01*
X11054994Y-6462572D03*
G01*
X11054994Y-6262547D03*
G01*
X11067694Y-7986572D03*
G01*
X11067694Y-7786547D03*
D11*
G01*
X10737382Y-5058166D03*
G01*
X10407380Y-5058166D03*
D12*
G01*
X10407380Y-4568164D03*
G01*
X10737382Y-4568164D03*
D11*
G01*
X10762782Y-6620266D03*
G01*
X10432780Y-6620266D03*
D12*
G01*
X10432780Y-6130264D03*
G01*
X10762782Y-6130264D03*
D11*
G01*
X10800882Y-8118866D03*
G01*
X10470880Y-8118866D03*
D12*
G01*
X10470880Y-7628864D03*
G01*
X10800882Y-7628864D03*
D13*
G01*
X10826495Y-3786200D03*
G01*
X10636504Y-3786200D03*
G01*
X10731500Y-3986199D03*
D14*
G01*
X6628307Y1467612D03*
G01*
X6628307Y1657604D03*
G01*
X6428308Y1562607D03*
G01*
X6628307Y972312D03*
G01*
X6628307Y1162304D03*
G01*
X6428308Y1067307D03*
G01*
X6628307Y489712D03*
G01*
X6628307Y679704D03*
G01*
X6428308Y584707D03*
M02*
