G04 Layer: BottomSilkscreenLayer*
G04 EasyEDA v6.5.54, 2026-05-04 19:38:11*
G04 5f17a63f1c7d4cd2a323212eb2037d27,960f30f31fa644a792902757f8e8d678,10*
G04 Gerber Generator version 0.2*
G04 Scale: 100 percent, Rotated: No, Reflected: No *
G04 Dimensions in millimeters *
G04 leading zeros omitted , absolute positions ,4 integer and 5 decimal *
%FSLAX45Y45*%
%MOMM*%

%ADD10C,0.1524*%
%ADD11C,0.0813*%
%ADD12C,0.1544*%
%ADD13C,0.2032*%
%ADD14C,0.2540*%
%ADD15C,0.0165*%

%LPD*%
D10*
X8737600Y-1753615D02*
G01*
X8737600Y-1644650D01*
X8737600Y-1753615D02*
G01*
X8805163Y-1753615D01*
X8737600Y-1701800D02*
G01*
X8779256Y-1701800D01*
X8737600Y-1644650D02*
G01*
X8805163Y-1644650D01*
X8912097Y-1738121D02*
G01*
X8901684Y-1748536D01*
X8886190Y-1753615D01*
X8865361Y-1753615D01*
X8849868Y-1748536D01*
X8839454Y-1738121D01*
X8839454Y-1727707D01*
X8844534Y-1717294D01*
X8849868Y-1711960D01*
X8860281Y-1706879D01*
X8891270Y-1696465D01*
X8901684Y-1691386D01*
X8907018Y-1686052D01*
X8912097Y-1675637D01*
X8912097Y-1660144D01*
X8901684Y-1649729D01*
X8886190Y-1644650D01*
X8865361Y-1644650D01*
X8849868Y-1649729D01*
X8839454Y-1660144D01*
X8946388Y-1753615D02*
G01*
X8946388Y-1644650D01*
X8946388Y-1753615D02*
G01*
X8993124Y-1753615D01*
X9008872Y-1748536D01*
X9013952Y-1743202D01*
X9019286Y-1732787D01*
X9019286Y-1717294D01*
X9013952Y-1706879D01*
X9008872Y-1701800D01*
X8993124Y-1696465D01*
X8946388Y-1696465D01*
X9063990Y-1753615D02*
G01*
X9121140Y-1753615D01*
X9089897Y-1711960D01*
X9105391Y-1711960D01*
X9115806Y-1706879D01*
X9121140Y-1701800D01*
X9126220Y-1686052D01*
X9126220Y-1675637D01*
X9121140Y-1660144D01*
X9110725Y-1649729D01*
X9094977Y-1644650D01*
X9079484Y-1644650D01*
X9063990Y-1649729D01*
X9058656Y-1654810D01*
X9053575Y-1665223D01*
X9165590Y-1727707D02*
G01*
X9165590Y-1732787D01*
X9170924Y-1743202D01*
X9176004Y-1748536D01*
X9186418Y-1753615D01*
X9207245Y-1753615D01*
X9217659Y-1748536D01*
X9222740Y-1743202D01*
X9228074Y-1732787D01*
X9228074Y-1722373D01*
X9222740Y-1711960D01*
X9212579Y-1696465D01*
X9160509Y-1644650D01*
X9233154Y-1644650D01*
X9384029Y-1774444D02*
G01*
X9373615Y-1764029D01*
X9363202Y-1748536D01*
X9352788Y-1727707D01*
X9347454Y-1701800D01*
X9347454Y-1680971D01*
X9352788Y-1654810D01*
X9363202Y-1634236D01*
X9373615Y-1618487D01*
X9384029Y-1608073D01*
X9418320Y-1753615D02*
G01*
X9418320Y-1644650D01*
X9418320Y-1753615D02*
G01*
X9454641Y-1753615D01*
X9470136Y-1748536D01*
X9480550Y-1738121D01*
X9485629Y-1727707D01*
X9490963Y-1711960D01*
X9490963Y-1686052D01*
X9485629Y-1670557D01*
X9480550Y-1660144D01*
X9470136Y-1649729D01*
X9454641Y-1644650D01*
X9418320Y-1644650D01*
X9525254Y-1753615D02*
G01*
X9525254Y-1644650D01*
X9525254Y-1753615D02*
G01*
X9592818Y-1753615D01*
X9525254Y-1701800D02*
G01*
X9566909Y-1701800D01*
X9525254Y-1644650D02*
G01*
X9592818Y-1644650D01*
X9627108Y-1753615D02*
G01*
X9668509Y-1644650D01*
X9710165Y-1753615D02*
G01*
X9668509Y-1644650D01*
X9744456Y-1753615D02*
G01*
X9744456Y-1644650D01*
X9817100Y-1753615D02*
G01*
X9744456Y-1680971D01*
X9770363Y-1706879D02*
G01*
X9817100Y-1644650D01*
X9851390Y-1753615D02*
G01*
X9851390Y-1644650D01*
X9922256Y-1753615D02*
G01*
X9922256Y-1644650D01*
X9885679Y-1753615D02*
G01*
X9958577Y-1753615D01*
X9992868Y-1753615D02*
G01*
X10034270Y-1644650D01*
X10075925Y-1753615D02*
G01*
X10034270Y-1644650D01*
X10110215Y-1732787D02*
G01*
X10120629Y-1738121D01*
X10136124Y-1753615D01*
X10136124Y-1644650D01*
X10170413Y-1774444D02*
G01*
X10180827Y-1764029D01*
X10191241Y-1748536D01*
X10201656Y-1727707D01*
X10206990Y-1701800D01*
X10206990Y-1680971D01*
X10201656Y-1654810D01*
X10191241Y-1634236D01*
X10180827Y-1618487D01*
X10170413Y-1608073D01*
X10357611Y-1774444D02*
G01*
X10347197Y-1764029D01*
X10336784Y-1748536D01*
X10326370Y-1727707D01*
X10321290Y-1701800D01*
X10321290Y-1680971D01*
X10326370Y-1654810D01*
X10336784Y-1634236D01*
X10347197Y-1618487D01*
X10357611Y-1608073D01*
X10433304Y-1753615D02*
G01*
X10391902Y-1644650D01*
X10433304Y-1753615D02*
G01*
X10474959Y-1644650D01*
X10407395Y-1680971D02*
G01*
X10459465Y-1680971D01*
X10550906Y-1753615D02*
G01*
X10509250Y-1644650D01*
X10550906Y-1753615D02*
G01*
X10592308Y-1644650D01*
X10524743Y-1680971D02*
G01*
X10576813Y-1680971D01*
X10657840Y-1753615D02*
G01*
X10642345Y-1748536D01*
X10631931Y-1732787D01*
X10626597Y-1706879D01*
X10626597Y-1691386D01*
X10631931Y-1665223D01*
X10642345Y-1649729D01*
X10657840Y-1644650D01*
X10668254Y-1644650D01*
X10683747Y-1649729D01*
X10694161Y-1665223D01*
X10699495Y-1691386D01*
X10699495Y-1706879D01*
X10694161Y-1732787D01*
X10683747Y-1748536D01*
X10668254Y-1753615D01*
X10657840Y-1753615D01*
X10733786Y-1774444D02*
G01*
X10744200Y-1764029D01*
X10754359Y-1748536D01*
X10764774Y-1727707D01*
X10770108Y-1701800D01*
X10770108Y-1680971D01*
X10764774Y-1654810D01*
X10754359Y-1634236D01*
X10744200Y-1618487D01*
X10733786Y-1608073D01*
X8737600Y-1554987D02*
G01*
X8748013Y-1560321D01*
X8763508Y-1575815D01*
X8763508Y-1466850D01*
D11*
X9681413Y2984550D02*
G01*
X9630613Y2984550D01*
X9658299Y2947720D01*
X9644329Y2947720D01*
X9635185Y2942894D01*
X9630613Y2938322D01*
X9626041Y2924606D01*
X9626041Y2915208D01*
X9630613Y2901492D01*
X9639757Y2892094D01*
X9653727Y2887522D01*
X9667443Y2887522D01*
X9681413Y2892094D01*
X9685985Y2896920D01*
X9690557Y2906064D01*
X9595561Y2984550D02*
G01*
X9558477Y2887522D01*
X9521647Y2984550D02*
G01*
X9558477Y2887522D01*
X9481769Y2984550D02*
G01*
X9430969Y2984550D01*
X9458655Y2947720D01*
X9444939Y2947720D01*
X9435541Y2942894D01*
X9430969Y2938322D01*
X9426397Y2924606D01*
X9426397Y2915208D01*
X9430969Y2901492D01*
X9440367Y2892094D01*
X9454083Y2887522D01*
X9468053Y2887522D01*
X9481769Y2892094D01*
X9486341Y2896920D01*
X9491167Y2906064D01*
X9621215Y2707436D02*
G01*
X9626041Y2716580D01*
X9635185Y2725978D01*
X9644329Y2730550D01*
X9662871Y2730550D01*
X9672015Y2725978D01*
X9681413Y2716580D01*
X9685985Y2707436D01*
X9690557Y2693720D01*
X9690557Y2670606D01*
X9685985Y2656636D01*
X9681413Y2647492D01*
X9672015Y2638094D01*
X9662871Y2633522D01*
X9644329Y2633522D01*
X9635185Y2638094D01*
X9626041Y2647492D01*
X9621215Y2656636D01*
X9621215Y2670606D01*
X9644329Y2670606D02*
G01*
X9621215Y2670606D01*
X9590735Y2730550D02*
G01*
X9590735Y2633522D01*
X9590735Y2730550D02*
G01*
X9526219Y2633522D01*
X9526219Y2730550D02*
G01*
X9526219Y2633522D01*
X9495739Y2730550D02*
G01*
X9495739Y2633522D01*
X9495739Y2730550D02*
G01*
X9463481Y2730550D01*
X9449511Y2725978D01*
X9440367Y2716580D01*
X9435541Y2707436D01*
X9430969Y2693720D01*
X9430969Y2670606D01*
X9435541Y2656636D01*
X9440367Y2647492D01*
X9449511Y2638094D01*
X9463481Y2633522D01*
X9495739Y2633522D01*
X9690557Y2476550D02*
G01*
X9690557Y2379522D01*
X9632391Y2476550D02*
G01*
X9641535Y2471978D01*
X9650933Y2462580D01*
X9655505Y2453436D01*
X9660077Y2439720D01*
X9660077Y2416606D01*
X9655505Y2402636D01*
X9650933Y2393492D01*
X9641535Y2384094D01*
X9632391Y2379522D01*
X9613849Y2379522D01*
X9604705Y2384094D01*
X9595561Y2393492D01*
X9590735Y2402636D01*
X9586163Y2416606D01*
X9586163Y2439720D01*
X9590735Y2453436D01*
X9595561Y2462580D01*
X9604705Y2471978D01*
X9613849Y2476550D01*
X9632391Y2476550D01*
X9555683Y2458008D02*
G01*
X9546539Y2462580D01*
X9532569Y2476550D01*
X9532569Y2379522D01*
X9446717Y2476550D02*
G01*
X9492945Y2476550D01*
X9497517Y2434894D01*
X9492945Y2439720D01*
X9478975Y2444292D01*
X9465259Y2444292D01*
X9451289Y2439720D01*
X9442145Y2430322D01*
X9437573Y2416606D01*
X9437573Y2407208D01*
X9442145Y2393492D01*
X9451289Y2384094D01*
X9465259Y2379522D01*
X9478975Y2379522D01*
X9492945Y2384094D01*
X9497517Y2388920D01*
X9502089Y2398064D01*
X9690557Y2222550D02*
G01*
X9690557Y2125522D01*
X9632391Y2222550D02*
G01*
X9641535Y2217978D01*
X9650933Y2208580D01*
X9655505Y2199436D01*
X9660077Y2185720D01*
X9660077Y2162606D01*
X9655505Y2148636D01*
X9650933Y2139492D01*
X9641535Y2130094D01*
X9632391Y2125522D01*
X9613849Y2125522D01*
X9604705Y2130094D01*
X9595561Y2139492D01*
X9590735Y2148636D01*
X9586163Y2162606D01*
X9586163Y2185720D01*
X9590735Y2199436D01*
X9595561Y2208580D01*
X9604705Y2217978D01*
X9613849Y2222550D01*
X9632391Y2222550D01*
X9551111Y2199436D02*
G01*
X9551111Y2204008D01*
X9546539Y2213406D01*
X9541967Y2217978D01*
X9532569Y2222550D01*
X9514281Y2222550D01*
X9504883Y2217978D01*
X9500311Y2213406D01*
X9495739Y2204008D01*
X9495739Y2194864D01*
X9500311Y2185720D01*
X9509455Y2171750D01*
X9555683Y2125522D01*
X9491167Y2125522D01*
X9690557Y1968550D02*
G01*
X9690557Y1871522D01*
X9632391Y1968550D02*
G01*
X9641535Y1963978D01*
X9650933Y1954580D01*
X9655505Y1945436D01*
X9660077Y1931720D01*
X9660077Y1908606D01*
X9655505Y1894636D01*
X9650933Y1885492D01*
X9641535Y1876094D01*
X9632391Y1871522D01*
X9613849Y1871522D01*
X9604705Y1876094D01*
X9595561Y1885492D01*
X9590735Y1894636D01*
X9586163Y1908606D01*
X9586163Y1931720D01*
X9590735Y1945436D01*
X9595561Y1954580D01*
X9604705Y1963978D01*
X9613849Y1968550D01*
X9632391Y1968550D01*
X9509455Y1968550D02*
G01*
X9555683Y1903780D01*
X9486341Y1903780D01*
X9509455Y1968550D02*
G01*
X9509455Y1871522D01*
X9690557Y1714550D02*
G01*
X9690557Y1617522D01*
X9632391Y1714550D02*
G01*
X9641535Y1709978D01*
X9650933Y1700580D01*
X9655505Y1691436D01*
X9660077Y1677720D01*
X9660077Y1654606D01*
X9655505Y1640636D01*
X9650933Y1631492D01*
X9641535Y1622094D01*
X9632391Y1617522D01*
X9613849Y1617522D01*
X9604705Y1622094D01*
X9595561Y1631492D01*
X9590735Y1640636D01*
X9586163Y1654606D01*
X9586163Y1677720D01*
X9590735Y1691436D01*
X9595561Y1700580D01*
X9604705Y1709978D01*
X9613849Y1714550D01*
X9632391Y1714550D01*
X9555683Y1696008D02*
G01*
X9546539Y1700580D01*
X9532569Y1714550D01*
X9532569Y1617522D01*
X9446717Y1700580D02*
G01*
X9451289Y1709978D01*
X9465259Y1714550D01*
X9474403Y1714550D01*
X9488373Y1709978D01*
X9497517Y1696008D01*
X9502089Y1672894D01*
X9502089Y1649780D01*
X9497517Y1631492D01*
X9488373Y1622094D01*
X9474403Y1617522D01*
X9469831Y1617522D01*
X9455861Y1622094D01*
X9446717Y1631492D01*
X9442145Y1645208D01*
X9442145Y1649780D01*
X9446717Y1663750D01*
X9455861Y1672894D01*
X9469831Y1677720D01*
X9474403Y1677720D01*
X9488373Y1672894D01*
X9497517Y1663750D01*
X9502089Y1649780D01*
X9690557Y1460550D02*
G01*
X9690557Y1363522D01*
X9632391Y1460550D02*
G01*
X9641535Y1455978D01*
X9650933Y1446580D01*
X9655505Y1437436D01*
X9660077Y1423720D01*
X9660077Y1400606D01*
X9655505Y1386636D01*
X9650933Y1377492D01*
X9641535Y1368094D01*
X9632391Y1363522D01*
X9613849Y1363522D01*
X9604705Y1368094D01*
X9595561Y1377492D01*
X9590735Y1386636D01*
X9586163Y1400606D01*
X9586163Y1423720D01*
X9590735Y1437436D01*
X9595561Y1446580D01*
X9604705Y1455978D01*
X9613849Y1460550D01*
X9632391Y1460550D01*
X9555683Y1442008D02*
G01*
X9546539Y1446580D01*
X9532569Y1460550D01*
X9532569Y1363522D01*
X9437573Y1460550D02*
G01*
X9483801Y1363522D01*
X9502089Y1460550D02*
G01*
X9437573Y1460550D01*
X9690557Y1206550D02*
G01*
X9690557Y1109522D01*
X9632391Y1206550D02*
G01*
X9641535Y1201978D01*
X9650933Y1192580D01*
X9655505Y1183436D01*
X9660077Y1169720D01*
X9660077Y1146606D01*
X9655505Y1132636D01*
X9650933Y1123492D01*
X9641535Y1114094D01*
X9632391Y1109522D01*
X9613849Y1109522D01*
X9604705Y1114094D01*
X9595561Y1123492D01*
X9590735Y1132636D01*
X9586163Y1146606D01*
X9586163Y1169720D01*
X9590735Y1183436D01*
X9595561Y1192580D01*
X9604705Y1201978D01*
X9613849Y1206550D01*
X9632391Y1206550D01*
X9500311Y1206550D02*
G01*
X9546539Y1206550D01*
X9551111Y1164894D01*
X9546539Y1169720D01*
X9532569Y1174292D01*
X9518853Y1174292D01*
X9504883Y1169720D01*
X9495739Y1160322D01*
X9491167Y1146606D01*
X9491167Y1137208D01*
X9495739Y1123492D01*
X9504883Y1114094D01*
X9518853Y1109522D01*
X9532569Y1109522D01*
X9546539Y1114094D01*
X9551111Y1118920D01*
X9555683Y1128064D01*
X9690557Y952550D02*
G01*
X9690557Y855522D01*
X9632391Y952550D02*
G01*
X9641535Y947978D01*
X9650933Y938580D01*
X9655505Y929436D01*
X9660077Y915720D01*
X9660077Y892606D01*
X9655505Y878636D01*
X9650933Y869492D01*
X9641535Y860094D01*
X9632391Y855522D01*
X9613849Y855522D01*
X9604705Y860094D01*
X9595561Y869492D01*
X9590735Y878636D01*
X9586163Y892606D01*
X9586163Y915720D01*
X9590735Y929436D01*
X9595561Y938580D01*
X9604705Y947978D01*
X9613849Y952550D01*
X9632391Y952550D01*
X9555683Y934008D02*
G01*
X9546539Y938580D01*
X9532569Y952550D01*
X9532569Y855522D01*
X9478975Y952550D02*
G01*
X9492945Y947978D01*
X9497517Y938580D01*
X9497517Y929436D01*
X9492945Y920292D01*
X9483801Y915720D01*
X9465259Y910894D01*
X9451289Y906322D01*
X9442145Y897178D01*
X9437573Y887780D01*
X9437573Y874064D01*
X9442145Y864920D01*
X9446717Y860094D01*
X9460687Y855522D01*
X9478975Y855522D01*
X9492945Y860094D01*
X9497517Y864920D01*
X9502089Y874064D01*
X9502089Y887780D01*
X9497517Y897178D01*
X9488373Y906322D01*
X9474403Y910894D01*
X9455861Y915720D01*
X9446717Y920292D01*
X9442145Y929436D01*
X9442145Y938580D01*
X9446717Y947978D01*
X9460687Y952550D01*
X9478975Y952550D01*
X9690557Y698550D02*
G01*
X9690557Y601522D01*
X9632391Y698550D02*
G01*
X9641535Y693978D01*
X9650933Y684580D01*
X9655505Y675436D01*
X9660077Y661720D01*
X9660077Y638606D01*
X9655505Y624636D01*
X9650933Y615492D01*
X9641535Y606094D01*
X9632391Y601522D01*
X9613849Y601522D01*
X9604705Y606094D01*
X9595561Y615492D01*
X9590735Y624636D01*
X9586163Y638606D01*
X9586163Y661720D01*
X9590735Y675436D01*
X9595561Y684580D01*
X9604705Y693978D01*
X9613849Y698550D01*
X9632391Y698550D01*
X9555683Y680008D02*
G01*
X9546539Y684580D01*
X9532569Y698550D01*
X9532569Y601522D01*
X9442145Y666292D02*
G01*
X9446717Y652322D01*
X9455861Y643178D01*
X9469831Y638606D01*
X9474403Y638606D01*
X9488373Y643178D01*
X9497517Y652322D01*
X9502089Y666292D01*
X9502089Y670864D01*
X9497517Y684580D01*
X9488373Y693978D01*
X9474403Y698550D01*
X9469831Y698550D01*
X9455861Y693978D01*
X9446717Y684580D01*
X9442145Y666292D01*
X9442145Y643178D01*
X9446717Y620064D01*
X9455861Y606094D01*
X9469831Y601522D01*
X9478975Y601522D01*
X9492945Y606094D01*
X9497517Y615492D01*
X9690557Y444550D02*
G01*
X9690557Y347522D01*
X9632391Y444550D02*
G01*
X9641535Y439978D01*
X9650933Y430580D01*
X9655505Y421436D01*
X9660077Y407720D01*
X9660077Y384606D01*
X9655505Y370636D01*
X9650933Y361492D01*
X9641535Y352094D01*
X9632391Y347522D01*
X9613849Y347522D01*
X9604705Y352094D01*
X9595561Y361492D01*
X9590735Y370636D01*
X9586163Y384606D01*
X9586163Y407720D01*
X9590735Y421436D01*
X9595561Y430580D01*
X9604705Y439978D01*
X9613849Y444550D01*
X9632391Y444550D01*
X9551111Y421436D02*
G01*
X9551111Y426008D01*
X9546539Y435406D01*
X9541967Y439978D01*
X9532569Y444550D01*
X9514281Y444550D01*
X9504883Y439978D01*
X9500311Y435406D01*
X9495739Y426008D01*
X9495739Y416864D01*
X9500311Y407720D01*
X9509455Y393750D01*
X9555683Y347522D01*
X9491167Y347522D01*
X9460687Y426008D02*
G01*
X9451289Y430580D01*
X9437573Y444550D01*
X9437573Y347522D01*
X9690557Y190550D02*
G01*
X9690557Y93522D01*
X9632391Y190550D02*
G01*
X9641535Y185978D01*
X9650933Y176580D01*
X9655505Y167436D01*
X9660077Y153720D01*
X9660077Y130606D01*
X9655505Y116636D01*
X9650933Y107492D01*
X9641535Y98094D01*
X9632391Y93522D01*
X9613849Y93522D01*
X9604705Y98094D01*
X9595561Y107492D01*
X9590735Y116636D01*
X9586163Y130606D01*
X9586163Y153720D01*
X9590735Y167436D01*
X9595561Y176580D01*
X9604705Y185978D01*
X9613849Y190550D01*
X9632391Y190550D01*
X9546539Y190550D02*
G01*
X9495739Y190550D01*
X9523425Y153720D01*
X9509455Y153720D01*
X9500311Y148894D01*
X9495739Y144322D01*
X9491167Y130606D01*
X9491167Y121208D01*
X9495739Y107492D01*
X9504883Y98094D01*
X9518853Y93522D01*
X9532569Y93522D01*
X9546539Y98094D01*
X9551111Y102920D01*
X9555683Y112064D01*
X9690557Y-63449D02*
G01*
X9690557Y-160477D01*
X9632391Y-63449D02*
G01*
X9641535Y-68021D01*
X9650933Y-77419D01*
X9655505Y-86563D01*
X9660077Y-100279D01*
X9660077Y-123393D01*
X9655505Y-137363D01*
X9650933Y-146507D01*
X9641535Y-155905D01*
X9632391Y-160477D01*
X9613849Y-160477D01*
X9604705Y-155905D01*
X9595561Y-146507D01*
X9590735Y-137363D01*
X9586163Y-123393D01*
X9586163Y-100279D01*
X9590735Y-86563D01*
X9595561Y-77419D01*
X9604705Y-68021D01*
X9613849Y-63449D01*
X9632391Y-63449D01*
X9555683Y-81991D02*
G01*
X9546539Y-77419D01*
X9532569Y-63449D01*
X9532569Y-160477D01*
X9690557Y-317449D02*
G01*
X9690557Y-414477D01*
X9632391Y-317449D02*
G01*
X9641535Y-322021D01*
X9650933Y-331419D01*
X9655505Y-340563D01*
X9660077Y-354279D01*
X9660077Y-377393D01*
X9655505Y-391363D01*
X9650933Y-400507D01*
X9641535Y-409905D01*
X9632391Y-414477D01*
X9613849Y-414477D01*
X9604705Y-409905D01*
X9595561Y-400507D01*
X9590735Y-391363D01*
X9586163Y-377393D01*
X9586163Y-354279D01*
X9590735Y-340563D01*
X9595561Y-331419D01*
X9604705Y-322021D01*
X9613849Y-317449D01*
X9632391Y-317449D01*
X9551111Y-340563D02*
G01*
X9551111Y-335991D01*
X9546539Y-326593D01*
X9541967Y-322021D01*
X9532569Y-317449D01*
X9514281Y-317449D01*
X9504883Y-322021D01*
X9500311Y-326593D01*
X9495739Y-335991D01*
X9495739Y-345135D01*
X9500311Y-354279D01*
X9509455Y-368249D01*
X9555683Y-414477D01*
X9491167Y-414477D01*
X9455861Y-340563D02*
G01*
X9455861Y-335991D01*
X9451289Y-326593D01*
X9446717Y-322021D01*
X9437573Y-317449D01*
X9419031Y-317449D01*
X9409887Y-322021D01*
X9405061Y-326593D01*
X9400489Y-335991D01*
X9400489Y-345135D01*
X9405061Y-354279D01*
X9414459Y-368249D01*
X9460687Y-414477D01*
X9395917Y-414477D01*
X9690557Y-571449D02*
G01*
X9690557Y-668477D01*
X9632391Y-571449D02*
G01*
X9641535Y-576021D01*
X9650933Y-585419D01*
X9655505Y-594563D01*
X9660077Y-608279D01*
X9660077Y-631393D01*
X9655505Y-645363D01*
X9650933Y-654507D01*
X9641535Y-663905D01*
X9632391Y-668477D01*
X9613849Y-668477D01*
X9604705Y-663905D01*
X9595561Y-654507D01*
X9590735Y-645363D01*
X9586163Y-631393D01*
X9586163Y-608279D01*
X9590735Y-594563D01*
X9595561Y-585419D01*
X9604705Y-576021D01*
X9613849Y-571449D01*
X9632391Y-571449D01*
X9551111Y-594563D02*
G01*
X9551111Y-589991D01*
X9546539Y-580593D01*
X9541967Y-576021D01*
X9532569Y-571449D01*
X9514281Y-571449D01*
X9504883Y-576021D01*
X9500311Y-580593D01*
X9495739Y-589991D01*
X9495739Y-599135D01*
X9500311Y-608279D01*
X9509455Y-622249D01*
X9555683Y-668477D01*
X9491167Y-668477D01*
X9451289Y-571449D02*
G01*
X9400489Y-571449D01*
X9428175Y-608279D01*
X9414459Y-608279D01*
X9405061Y-613105D01*
X9400489Y-617677D01*
X9395917Y-631393D01*
X9395917Y-640791D01*
X9400489Y-654507D01*
X9409887Y-663905D01*
X9423603Y-668477D01*
X9437573Y-668477D01*
X9451289Y-663905D01*
X9455861Y-659079D01*
X9460687Y-649935D01*
X7918500Y2982569D02*
G01*
X7881670Y2885541D01*
X7844586Y2982569D02*
G01*
X7881670Y2885541D01*
X7814106Y2982569D02*
G01*
X7814106Y2885541D01*
X7783626Y2982569D02*
G01*
X7783626Y2885541D01*
X7783626Y2982569D02*
G01*
X7719110Y2885541D01*
X7719110Y2982569D02*
G01*
X7719110Y2885541D01*
X7849412Y2705455D02*
G01*
X7853984Y2714599D01*
X7863128Y2723997D01*
X7872526Y2728569D01*
X7890814Y2728569D01*
X7900212Y2723997D01*
X7909356Y2714599D01*
X7913928Y2705455D01*
X7918500Y2691485D01*
X7918500Y2668625D01*
X7913928Y2654655D01*
X7909356Y2645511D01*
X7900212Y2636113D01*
X7890814Y2631541D01*
X7872526Y2631541D01*
X7863128Y2636113D01*
X7853984Y2645511D01*
X7849412Y2654655D01*
X7849412Y2668625D01*
X7872526Y2668625D02*
G01*
X7849412Y2668625D01*
X7818932Y2728569D02*
G01*
X7818932Y2631541D01*
X7818932Y2728569D02*
G01*
X7754162Y2631541D01*
X7754162Y2728569D02*
G01*
X7754162Y2631541D01*
X7723682Y2728569D02*
G01*
X7723682Y2631541D01*
X7723682Y2728569D02*
G01*
X7691424Y2728569D01*
X7677454Y2723997D01*
X7668310Y2714599D01*
X7663738Y2705455D01*
X7659166Y2691485D01*
X7659166Y2668625D01*
X7663738Y2654655D01*
X7668310Y2645511D01*
X7677454Y2636113D01*
X7691424Y2631541D01*
X7723682Y2631541D01*
X7918500Y2474569D02*
G01*
X7918500Y2377541D01*
X7860334Y2474569D02*
G01*
X7869732Y2469997D01*
X7878876Y2460599D01*
X7883448Y2451455D01*
X7888020Y2437485D01*
X7888020Y2414625D01*
X7883448Y2400655D01*
X7878876Y2391511D01*
X7869732Y2382113D01*
X7860334Y2377541D01*
X7842046Y2377541D01*
X7832648Y2382113D01*
X7823504Y2391511D01*
X7818932Y2400655D01*
X7814106Y2414625D01*
X7814106Y2437485D01*
X7818932Y2451455D01*
X7823504Y2460599D01*
X7832648Y2469997D01*
X7842046Y2474569D01*
X7860334Y2474569D01*
X7783626Y2456027D02*
G01*
X7774482Y2460599D01*
X7760766Y2474569D01*
X7760766Y2377541D01*
X7720888Y2474569D02*
G01*
X7670088Y2474569D01*
X7697774Y2437485D01*
X7684058Y2437485D01*
X7674660Y2432913D01*
X7670088Y2428341D01*
X7665516Y2414625D01*
X7665516Y2405227D01*
X7670088Y2391511D01*
X7679486Y2382113D01*
X7693202Y2377541D01*
X7707172Y2377541D01*
X7720888Y2382113D01*
X7725460Y2386685D01*
X7730286Y2396083D01*
X7918500Y2220569D02*
G01*
X7918500Y2123541D01*
X7860334Y2220569D02*
G01*
X7869732Y2215997D01*
X7878876Y2206599D01*
X7883448Y2197455D01*
X7888020Y2183485D01*
X7888020Y2160625D01*
X7883448Y2146655D01*
X7878876Y2137511D01*
X7869732Y2128113D01*
X7860334Y2123541D01*
X7842046Y2123541D01*
X7832648Y2128113D01*
X7823504Y2137511D01*
X7818932Y2146655D01*
X7814106Y2160625D01*
X7814106Y2183485D01*
X7818932Y2197455D01*
X7823504Y2206599D01*
X7832648Y2215997D01*
X7842046Y2220569D01*
X7860334Y2220569D01*
X7783626Y2202027D02*
G01*
X7774482Y2206599D01*
X7760766Y2220569D01*
X7760766Y2123541D01*
X7725460Y2197455D02*
G01*
X7725460Y2202027D01*
X7720888Y2211425D01*
X7716316Y2215997D01*
X7707172Y2220569D01*
X7688630Y2220569D01*
X7679486Y2215997D01*
X7674660Y2211425D01*
X7670088Y2202027D01*
X7670088Y2192883D01*
X7674660Y2183485D01*
X7684058Y2169769D01*
X7730286Y2123541D01*
X7665516Y2123541D01*
X7918500Y1966569D02*
G01*
X7918500Y1869541D01*
X7860334Y1966569D02*
G01*
X7869732Y1961997D01*
X7878876Y1952599D01*
X7883448Y1943455D01*
X7888020Y1929485D01*
X7888020Y1906625D01*
X7883448Y1892655D01*
X7878876Y1883511D01*
X7869732Y1874113D01*
X7860334Y1869541D01*
X7842046Y1869541D01*
X7832648Y1874113D01*
X7823504Y1883511D01*
X7818932Y1892655D01*
X7814106Y1906625D01*
X7814106Y1929485D01*
X7818932Y1943455D01*
X7823504Y1952599D01*
X7832648Y1961997D01*
X7842046Y1966569D01*
X7860334Y1966569D01*
X7783626Y1948027D02*
G01*
X7774482Y1952599D01*
X7760766Y1966569D01*
X7760766Y1869541D01*
X7684058Y1966569D02*
G01*
X7730286Y1901799D01*
X7660944Y1901799D01*
X7684058Y1966569D02*
G01*
X7684058Y1869541D01*
X7918500Y1712569D02*
G01*
X7918500Y1615541D01*
X7860334Y1712569D02*
G01*
X7869732Y1707997D01*
X7878876Y1698599D01*
X7883448Y1689455D01*
X7888020Y1675485D01*
X7888020Y1652625D01*
X7883448Y1638655D01*
X7878876Y1629511D01*
X7869732Y1620113D01*
X7860334Y1615541D01*
X7842046Y1615541D01*
X7832648Y1620113D01*
X7823504Y1629511D01*
X7818932Y1638655D01*
X7814106Y1652625D01*
X7814106Y1675485D01*
X7818932Y1689455D01*
X7823504Y1698599D01*
X7832648Y1707997D01*
X7842046Y1712569D01*
X7860334Y1712569D01*
X7779054Y1689455D02*
G01*
X7779054Y1694027D01*
X7774482Y1703425D01*
X7769910Y1707997D01*
X7760766Y1712569D01*
X7742224Y1712569D01*
X7732826Y1707997D01*
X7728254Y1703425D01*
X7723682Y1694027D01*
X7723682Y1684883D01*
X7728254Y1675485D01*
X7737652Y1661769D01*
X7783626Y1615541D01*
X7719110Y1615541D01*
X7623860Y1712569D02*
G01*
X7670088Y1615541D01*
X7688630Y1712569D02*
G01*
X7623860Y1712569D01*
X7918500Y1458569D02*
G01*
X7918500Y1361541D01*
X7860334Y1458569D02*
G01*
X7869732Y1453997D01*
X7878876Y1444599D01*
X7883448Y1435455D01*
X7888020Y1421485D01*
X7888020Y1398625D01*
X7883448Y1384655D01*
X7878876Y1375511D01*
X7869732Y1366113D01*
X7860334Y1361541D01*
X7842046Y1361541D01*
X7832648Y1366113D01*
X7823504Y1375511D01*
X7818932Y1384655D01*
X7814106Y1398625D01*
X7814106Y1421485D01*
X7818932Y1435455D01*
X7823504Y1444599D01*
X7832648Y1453997D01*
X7842046Y1458569D01*
X7860334Y1458569D01*
X7779054Y1435455D02*
G01*
X7779054Y1440027D01*
X7774482Y1449425D01*
X7769910Y1453997D01*
X7760766Y1458569D01*
X7742224Y1458569D01*
X7732826Y1453997D01*
X7728254Y1449425D01*
X7723682Y1440027D01*
X7723682Y1430883D01*
X7728254Y1421485D01*
X7737652Y1407769D01*
X7783626Y1361541D01*
X7719110Y1361541D01*
X7633258Y1444599D02*
G01*
X7637830Y1453997D01*
X7651546Y1458569D01*
X7660944Y1458569D01*
X7674660Y1453997D01*
X7684058Y1440027D01*
X7688630Y1416913D01*
X7688630Y1393799D01*
X7684058Y1375511D01*
X7674660Y1366113D01*
X7660944Y1361541D01*
X7656372Y1361541D01*
X7642402Y1366113D01*
X7633258Y1375511D01*
X7628686Y1389227D01*
X7628686Y1393799D01*
X7633258Y1407769D01*
X7642402Y1416913D01*
X7656372Y1421485D01*
X7660944Y1421485D01*
X7674660Y1416913D01*
X7684058Y1407769D01*
X7688630Y1393799D01*
X7918500Y1204569D02*
G01*
X7918500Y1107541D01*
X7860334Y1204569D02*
G01*
X7869732Y1199997D01*
X7878876Y1190599D01*
X7883448Y1181455D01*
X7888020Y1167485D01*
X7888020Y1144625D01*
X7883448Y1130655D01*
X7878876Y1121511D01*
X7869732Y1112113D01*
X7860334Y1107541D01*
X7842046Y1107541D01*
X7832648Y1112113D01*
X7823504Y1121511D01*
X7818932Y1130655D01*
X7814106Y1144625D01*
X7814106Y1167485D01*
X7818932Y1181455D01*
X7823504Y1190599D01*
X7832648Y1199997D01*
X7842046Y1204569D01*
X7860334Y1204569D01*
X7779054Y1181455D02*
G01*
X7779054Y1186027D01*
X7774482Y1195425D01*
X7769910Y1199997D01*
X7760766Y1204569D01*
X7742224Y1204569D01*
X7732826Y1199997D01*
X7728254Y1195425D01*
X7723682Y1186027D01*
X7723682Y1176883D01*
X7728254Y1167485D01*
X7737652Y1153769D01*
X7783626Y1107541D01*
X7719110Y1107541D01*
X7633258Y1204569D02*
G01*
X7679486Y1204569D01*
X7684058Y1162913D01*
X7679486Y1167485D01*
X7665516Y1172311D01*
X7651546Y1172311D01*
X7637830Y1167485D01*
X7628686Y1158341D01*
X7623860Y1144625D01*
X7623860Y1135227D01*
X7628686Y1121511D01*
X7637830Y1112113D01*
X7651546Y1107541D01*
X7665516Y1107541D01*
X7679486Y1112113D01*
X7684058Y1116685D01*
X7688630Y1126083D01*
X7918500Y950569D02*
G01*
X7918500Y853541D01*
X7860334Y950569D02*
G01*
X7869732Y945997D01*
X7878876Y936599D01*
X7883448Y927455D01*
X7888020Y913485D01*
X7888020Y890625D01*
X7883448Y876655D01*
X7878876Y867511D01*
X7869732Y858113D01*
X7860334Y853541D01*
X7842046Y853541D01*
X7832648Y858113D01*
X7823504Y867511D01*
X7818932Y876655D01*
X7814106Y890625D01*
X7814106Y913485D01*
X7818932Y927455D01*
X7823504Y936599D01*
X7832648Y945997D01*
X7842046Y950569D01*
X7860334Y950569D01*
X7774482Y950569D02*
G01*
X7723682Y950569D01*
X7751368Y913485D01*
X7737652Y913485D01*
X7728254Y908913D01*
X7723682Y904341D01*
X7719110Y890625D01*
X7719110Y881227D01*
X7723682Y867511D01*
X7732826Y858113D01*
X7746796Y853541D01*
X7760766Y853541D01*
X7774482Y858113D01*
X7779054Y862685D01*
X7783626Y872083D01*
X7679486Y950569D02*
G01*
X7628686Y950569D01*
X7656372Y913485D01*
X7642402Y913485D01*
X7633258Y908913D01*
X7628686Y904341D01*
X7623860Y890625D01*
X7623860Y881227D01*
X7628686Y867511D01*
X7637830Y858113D01*
X7651546Y853541D01*
X7665516Y853541D01*
X7679486Y858113D01*
X7684058Y862685D01*
X7688630Y872083D01*
X7918500Y696569D02*
G01*
X7918500Y599541D01*
X7860334Y696569D02*
G01*
X7869732Y691997D01*
X7878876Y682599D01*
X7883448Y673455D01*
X7888020Y659485D01*
X7888020Y636625D01*
X7883448Y622655D01*
X7878876Y613511D01*
X7869732Y604113D01*
X7860334Y599541D01*
X7842046Y599541D01*
X7832648Y604113D01*
X7823504Y613511D01*
X7818932Y622655D01*
X7814106Y636625D01*
X7814106Y659485D01*
X7818932Y673455D01*
X7823504Y682599D01*
X7832648Y691997D01*
X7842046Y696569D01*
X7860334Y696569D01*
X7774482Y696569D02*
G01*
X7723682Y696569D01*
X7751368Y659485D01*
X7737652Y659485D01*
X7728254Y654913D01*
X7723682Y650341D01*
X7719110Y636625D01*
X7719110Y627227D01*
X7723682Y613511D01*
X7732826Y604113D01*
X7746796Y599541D01*
X7760766Y599541D01*
X7774482Y604113D01*
X7779054Y608685D01*
X7783626Y618083D01*
X7684058Y673455D02*
G01*
X7684058Y678027D01*
X7679486Y687425D01*
X7674660Y691997D01*
X7665516Y696569D01*
X7646974Y696569D01*
X7637830Y691997D01*
X7633258Y687425D01*
X7628686Y678027D01*
X7628686Y668883D01*
X7633258Y659485D01*
X7642402Y645769D01*
X7688630Y599541D01*
X7623860Y599541D01*
X7918500Y442569D02*
G01*
X7918500Y345541D01*
X7860334Y442569D02*
G01*
X7869732Y437997D01*
X7878876Y428599D01*
X7883448Y419455D01*
X7888020Y405485D01*
X7888020Y382625D01*
X7883448Y368655D01*
X7878876Y359511D01*
X7869732Y350113D01*
X7860334Y345541D01*
X7842046Y345541D01*
X7832648Y350113D01*
X7823504Y359511D01*
X7818932Y368655D01*
X7814106Y382625D01*
X7814106Y405485D01*
X7818932Y419455D01*
X7823504Y428599D01*
X7832648Y437997D01*
X7842046Y442569D01*
X7860334Y442569D01*
X7774482Y442569D02*
G01*
X7723682Y442569D01*
X7751368Y405485D01*
X7737652Y405485D01*
X7728254Y400913D01*
X7723682Y396341D01*
X7719110Y382625D01*
X7719110Y373227D01*
X7723682Y359511D01*
X7732826Y350113D01*
X7746796Y345541D01*
X7760766Y345541D01*
X7774482Y350113D01*
X7779054Y354685D01*
X7783626Y364083D01*
X7633258Y442569D02*
G01*
X7679486Y442569D01*
X7684058Y400913D01*
X7679486Y405485D01*
X7665516Y410311D01*
X7651546Y410311D01*
X7637830Y405485D01*
X7628686Y396341D01*
X7623860Y382625D01*
X7623860Y373227D01*
X7628686Y359511D01*
X7637830Y350113D01*
X7651546Y345541D01*
X7665516Y345541D01*
X7679486Y350113D01*
X7684058Y354685D01*
X7688630Y364083D01*
X7918500Y188569D02*
G01*
X7918500Y91541D01*
X7860334Y188569D02*
G01*
X7869732Y183997D01*
X7878876Y174599D01*
X7883448Y165455D01*
X7888020Y151485D01*
X7888020Y128625D01*
X7883448Y114655D01*
X7878876Y105511D01*
X7869732Y96113D01*
X7860334Y91541D01*
X7842046Y91541D01*
X7832648Y96113D01*
X7823504Y105511D01*
X7818932Y114655D01*
X7814106Y128625D01*
X7814106Y151485D01*
X7818932Y165455D01*
X7823504Y174599D01*
X7832648Y183997D01*
X7842046Y188569D01*
X7860334Y188569D01*
X7774482Y188569D02*
G01*
X7723682Y188569D01*
X7751368Y151485D01*
X7737652Y151485D01*
X7728254Y146913D01*
X7723682Y142341D01*
X7719110Y128625D01*
X7719110Y119227D01*
X7723682Y105511D01*
X7732826Y96113D01*
X7746796Y91541D01*
X7760766Y91541D01*
X7774482Y96113D01*
X7779054Y100685D01*
X7783626Y110083D01*
X7642402Y188569D02*
G01*
X7688630Y123799D01*
X7619288Y123799D01*
X7642402Y188569D02*
G01*
X7642402Y91541D01*
X7918500Y-65430D02*
G01*
X7881670Y-162458D01*
X7844586Y-65430D02*
G01*
X7881670Y-162458D01*
X7814106Y-65430D02*
G01*
X7814106Y-162458D01*
X7814106Y-65430D02*
G01*
X7749590Y-162458D01*
X7749590Y-65430D02*
G01*
X7749590Y-162458D01*
X7918500Y-319430D02*
G01*
X7881670Y-416458D01*
X7844586Y-319430D02*
G01*
X7881670Y-416458D01*
X7814106Y-319430D02*
G01*
X7814106Y-416458D01*
X7814106Y-319430D02*
G01*
X7772704Y-319430D01*
X7758734Y-324002D01*
X7754162Y-328574D01*
X7749590Y-337972D01*
X7749590Y-351688D01*
X7754162Y-361086D01*
X7758734Y-365658D01*
X7772704Y-370230D01*
X7814106Y-370230D01*
X7918500Y-573430D02*
G01*
X7918500Y-670458D01*
X7918500Y-573430D02*
G01*
X7858556Y-573430D01*
X7918500Y-619658D02*
G01*
X7881670Y-619658D01*
X7918500Y-670458D02*
G01*
X7858556Y-670458D01*
X7828076Y-573430D02*
G01*
X7828076Y-670458D01*
X7828076Y-573430D02*
G01*
X7763306Y-670458D01*
X7763306Y-573430D02*
G01*
X7763306Y-670458D01*
D12*
X8542781Y2222500D02*
G01*
X8727186Y2222500D01*
X8542781Y2222500D02*
G01*
X8542781Y2108454D01*
X8630665Y2222500D02*
G01*
X8630665Y2152395D01*
X8727186Y2222500D02*
G01*
X8727186Y2108454D01*
X8569197Y1927605D02*
G01*
X8551672Y1945131D01*
X8542781Y1971547D01*
X8542781Y2006600D01*
X8551672Y2033015D01*
X8569197Y2050542D01*
X8586724Y2050542D01*
X8604250Y2041652D01*
X8612886Y2033015D01*
X8621775Y2015489D01*
X8639302Y1962657D01*
X8648191Y1945131D01*
X8656827Y1936495D01*
X8674354Y1927605D01*
X8700770Y1927605D01*
X8718295Y1945131D01*
X8727186Y1971547D01*
X8727186Y2006600D01*
X8718295Y2033015D01*
X8700770Y2050542D01*
X8542781Y1869694D02*
G01*
X8727186Y1869694D01*
X8542781Y1869694D02*
G01*
X8542781Y1790700D01*
X8551672Y1764537D01*
X8560308Y1755647D01*
X8577834Y1747012D01*
X8604250Y1747012D01*
X8621775Y1755647D01*
X8630665Y1764537D01*
X8639302Y1790700D01*
X8639302Y1869694D01*
X8542781Y1671573D02*
G01*
X8542781Y1575054D01*
X8612886Y1627631D01*
X8612886Y1601215D01*
X8621775Y1583689D01*
X8630665Y1575054D01*
X8656827Y1566163D01*
X8674354Y1566163D01*
X8700770Y1575054D01*
X8718295Y1592579D01*
X8727186Y1618742D01*
X8727186Y1645157D01*
X8718295Y1671573D01*
X8709406Y1680210D01*
X8691879Y1689100D01*
X8586724Y1499362D02*
G01*
X8577834Y1499362D01*
X8560308Y1490726D01*
X8551672Y1481836D01*
X8542781Y1464310D01*
X8542781Y1429257D01*
X8551672Y1411731D01*
X8560308Y1402842D01*
X8577834Y1394205D01*
X8595359Y1394205D01*
X8612886Y1402842D01*
X8639302Y1420621D01*
X8727186Y1508252D01*
X8727186Y1385315D01*
X8648191Y1327404D02*
G01*
X8648191Y1169670D01*
X8542781Y1111757D02*
G01*
X8727186Y1111757D01*
X8542781Y1111757D02*
G01*
X8542781Y1050289D01*
X8551672Y1023873D01*
X8569197Y1006347D01*
X8586724Y997457D01*
X8612886Y988821D01*
X8656827Y988821D01*
X8683243Y997457D01*
X8700770Y1006347D01*
X8718295Y1023873D01*
X8727186Y1050289D01*
X8727186Y1111757D01*
X8656827Y930910D02*
G01*
X8656827Y825500D01*
X8639302Y825500D01*
X8621775Y834389D01*
X8612886Y843026D01*
X8604250Y860805D01*
X8604250Y886968D01*
X8612886Y904494D01*
X8630665Y922020D01*
X8656827Y930910D01*
X8674354Y930910D01*
X8700770Y922020D01*
X8718295Y904494D01*
X8727186Y886968D01*
X8727186Y860805D01*
X8718295Y843026D01*
X8700770Y825500D01*
X8604250Y767587D02*
G01*
X8727186Y715010D01*
X8604250Y662431D02*
G01*
X8727186Y715010D01*
X8542781Y604520D02*
G01*
X8727186Y604520D01*
X8604250Y516636D02*
G01*
X8691879Y604520D01*
X8656827Y569468D02*
G01*
X8727186Y508000D01*
X8542781Y450087D02*
G01*
X8551672Y441197D01*
X8542781Y432562D01*
X8534145Y441197D01*
X8542781Y450087D01*
X8604250Y441197D02*
G01*
X8727186Y441197D01*
X8542781Y348234D02*
G01*
X8691879Y348234D01*
X8718295Y339597D01*
X8727186Y321818D01*
X8727186Y304292D01*
X8604250Y374650D02*
G01*
X8604250Y313181D01*
X8542781Y111252D02*
G01*
X8727186Y41147D01*
X8542781Y-28955D02*
G01*
X8727186Y41147D01*
X8577834Y-86868D02*
G01*
X8569197Y-104394D01*
X8542781Y-130810D01*
X8727186Y-130810D01*
X9186163Y-947673D02*
G01*
X9256268Y-1131823D01*
X9186163Y-947673D02*
G01*
X9116059Y-1131823D01*
X9230106Y-1070355D02*
G01*
X9142222Y-1070355D01*
X9058147Y-1008887D02*
G01*
X9058147Y-1131823D01*
X9058147Y-1044194D02*
G01*
X9031731Y-1017778D01*
X9014206Y-1008887D01*
X8987790Y-1008887D01*
X8970263Y-1017778D01*
X8961627Y-1044194D01*
X8961627Y-1131823D01*
X8877300Y-947673D02*
G01*
X8877300Y-1096771D01*
X8868663Y-1123187D01*
X8850884Y-1131823D01*
X8833358Y-1131823D01*
X8903715Y-1008887D02*
G01*
X8842247Y-1008887D01*
X8775445Y-1061720D02*
G01*
X8670290Y-1061720D01*
X8670290Y-1044194D01*
X8678925Y-1026668D01*
X8687815Y-1017778D01*
X8705341Y-1008887D01*
X8731758Y-1008887D01*
X8749284Y-1017778D01*
X8766809Y-1035304D01*
X8775445Y-1061720D01*
X8775445Y-1079245D01*
X8766809Y-1105407D01*
X8749284Y-1123187D01*
X8731758Y-1131823D01*
X8705341Y-1131823D01*
X8687815Y-1123187D01*
X8670290Y-1105407D01*
X8612377Y-1008887D02*
G01*
X8612377Y-1131823D01*
X8612377Y-1044194D02*
G01*
X8585961Y-1017778D01*
X8568436Y-1008887D01*
X8542020Y-1008887D01*
X8524493Y-1017778D01*
X8515858Y-1044194D01*
X8515858Y-1131823D01*
X8457945Y-1008887D02*
G01*
X8457945Y-1131823D01*
X8457945Y-1044194D02*
G01*
X8431529Y-1017778D01*
X8414004Y-1008887D01*
X8387588Y-1008887D01*
X8370061Y-1017778D01*
X8361425Y-1044194D01*
X8361425Y-1131823D01*
X8198104Y-1008887D02*
G01*
X8198104Y-1131823D01*
X8198104Y-1035304D02*
G01*
X8215629Y-1017778D01*
X8233156Y-1008887D01*
X8259572Y-1008887D01*
X8277097Y-1017778D01*
X8294624Y-1035304D01*
X8303513Y-1061720D01*
X8303513Y-1079245D01*
X8294624Y-1105407D01*
X8277097Y-1123187D01*
X8259572Y-1131823D01*
X8233156Y-1131823D01*
X8215629Y-1123187D01*
X8198104Y-1105407D01*
D10*
X12199061Y-5296966D02*
G01*
X12090095Y-5296966D01*
X12199061Y-5296966D02*
G01*
X12199061Y-5250230D01*
X12193981Y-5234736D01*
X12188647Y-5229402D01*
X12178233Y-5224322D01*
X12167819Y-5224322D01*
X12157405Y-5229402D01*
X12152325Y-5234736D01*
X12147245Y-5250230D01*
X12147245Y-5296966D02*
G01*
X12147245Y-5250230D01*
X12141911Y-5234736D01*
X12136831Y-5229402D01*
X12126417Y-5224322D01*
X12110669Y-5224322D01*
X12100255Y-5229402D01*
X12095175Y-5234736D01*
X12090095Y-5250230D01*
X12090095Y-5296966D01*
X12199061Y-5148376D02*
G01*
X12090095Y-5190032D01*
X12199061Y-5148376D02*
G01*
X12090095Y-5106720D01*
X12126417Y-5174284D02*
G01*
X12126417Y-5122468D01*
X12199061Y-5036108D02*
G01*
X12090095Y-5036108D01*
X12199061Y-5072430D02*
G01*
X12199061Y-4999786D01*
X12053519Y-4965496D02*
G01*
X12053519Y-4872024D01*
X12199061Y-4837734D02*
G01*
X12090095Y-4837734D01*
X12199061Y-4837734D02*
G01*
X12199061Y-4790998D01*
X12193981Y-4775250D01*
X12188647Y-4770170D01*
X12178233Y-4764836D01*
X12167819Y-4764836D01*
X12157405Y-4770170D01*
X12152325Y-4775250D01*
X12147245Y-4790998D01*
X12147245Y-4837734D02*
G01*
X12147245Y-4790998D01*
X12141911Y-4775250D01*
X12136831Y-4770170D01*
X12126417Y-4764836D01*
X12110669Y-4764836D01*
X12100255Y-4770170D01*
X12095175Y-4775250D01*
X12090095Y-4790998D01*
X12090095Y-4837734D01*
X12199061Y-4699558D02*
G01*
X12193981Y-4709972D01*
X12183567Y-4720386D01*
X12173153Y-4725466D01*
X12157405Y-4730546D01*
X12131497Y-4730546D01*
X12116003Y-4725466D01*
X12105589Y-4720386D01*
X12095175Y-4709972D01*
X12090095Y-4699558D01*
X12090095Y-4678730D01*
X12095175Y-4668316D01*
X12105589Y-4657902D01*
X12116003Y-4652822D01*
X12131497Y-4647488D01*
X12157405Y-4647488D01*
X12173153Y-4652822D01*
X12183567Y-4657902D01*
X12193981Y-4668316D01*
X12199061Y-4678730D01*
X12199061Y-4699558D01*
X12199061Y-4613198D02*
G01*
X12090095Y-4540554D01*
X12199061Y-4540554D02*
G01*
X12090095Y-4613198D01*
X12021261Y-5296966D02*
G01*
X11943283Y-5296966D01*
X11927789Y-5291886D01*
X11917375Y-5281472D01*
X11912295Y-5265724D01*
X11912295Y-5255310D01*
X11917375Y-5239816D01*
X11927789Y-5229402D01*
X11943283Y-5224322D01*
X12021261Y-5224322D01*
X12000433Y-5190032D02*
G01*
X12005767Y-5179618D01*
X12021261Y-5163870D01*
X11912295Y-5163870D01*
X11995353Y-5124500D02*
G01*
X12000433Y-5124500D01*
X12010847Y-5119166D01*
X12016181Y-5114086D01*
X12021261Y-5103672D01*
X12021261Y-5082844D01*
X12016181Y-5072430D01*
X12010847Y-5067350D01*
X12000433Y-5062016D01*
X11990019Y-5062016D01*
X11979605Y-5067350D01*
X11964111Y-5077764D01*
X11912295Y-5129580D01*
X11912295Y-5056936D01*
X5623384Y-3291298D02*
G01*
X5701362Y-3291298D01*
X5716856Y-3296378D01*
X5727270Y-3306792D01*
X5732604Y-3322540D01*
X5732604Y-3332954D01*
X5727270Y-3348448D01*
X5716856Y-3358862D01*
X5701362Y-3363942D01*
X5623384Y-3363942D01*
X5623384Y-3450302D02*
G01*
X5696282Y-3398232D01*
X5696282Y-3476210D01*
X5623384Y-3450302D02*
G01*
X5732604Y-3450302D01*
D13*
X7757965Y-1681637D02*
G01*
X7891569Y-1681637D01*
X7757965Y-1681637D02*
G01*
X7757965Y-1738787D01*
X7764315Y-1758091D01*
X7770665Y-1764441D01*
X7783365Y-1770791D01*
X7796065Y-1770791D01*
X7808765Y-1764441D01*
X7815115Y-1758091D01*
X7821465Y-1738787D01*
X7821465Y-1681637D02*
G01*
X7821465Y-1738787D01*
X7827815Y-1758091D01*
X7834419Y-1764441D01*
X7847119Y-1770791D01*
X7866169Y-1770791D01*
X7878869Y-1764441D01*
X7885219Y-1758091D01*
X7891569Y-1738787D01*
X7891569Y-1681637D01*
X7834419Y-1812701D02*
G01*
X7834419Y-1927255D01*
X7188029Y-1691594D02*
G01*
X7321633Y-1691594D01*
X7188029Y-1691594D02*
G01*
X7188029Y-1748998D01*
X7194379Y-1768048D01*
X7200729Y-1774398D01*
X7213429Y-1780748D01*
X7226129Y-1780748D01*
X7238829Y-1774398D01*
X7245179Y-1768048D01*
X7251529Y-1748998D01*
X7251529Y-1691594D02*
G01*
X7251529Y-1748998D01*
X7257879Y-1768048D01*
X7264229Y-1774398D01*
X7276929Y-1780748D01*
X7296233Y-1780748D01*
X7308933Y-1774398D01*
X7315283Y-1768048D01*
X7321633Y-1748998D01*
X7321633Y-1691594D01*
X7207079Y-1880062D02*
G01*
X7321633Y-1880062D01*
X7264229Y-1822658D02*
G01*
X7264229Y-1937212D01*
X6047948Y-2071491D02*
G01*
X6181552Y-2122545D01*
X6047948Y-2173345D02*
G01*
X6181552Y-2122545D01*
X6069848Y-2807009D02*
G01*
X6056894Y-2800659D01*
X6044194Y-2787959D01*
X6037844Y-2775259D01*
X6037844Y-2749859D01*
X6044194Y-2737159D01*
X6056894Y-2724459D01*
X6069848Y-2717855D01*
X6088898Y-2711505D01*
X6120648Y-2711505D01*
X6139698Y-2717855D01*
X6152398Y-2724459D01*
X6165098Y-2737159D01*
X6171448Y-2749859D01*
X6171448Y-2775259D01*
X6165098Y-2787959D01*
X6152398Y-2800659D01*
X6139698Y-2807009D01*
X6120648Y-2807009D01*
X6120648Y-2775259D02*
G01*
X6120648Y-2807009D01*
X9529681Y-7409337D02*
G01*
X9529681Y-7300247D01*
X9522863Y-7279792D01*
X9516046Y-7272975D01*
X9502409Y-7266155D01*
X9488771Y-7266155D01*
X9475137Y-7272975D01*
X9468317Y-7279792D01*
X9461500Y-7300247D01*
X9461500Y-7313881D01*
X9574682Y-7375245D02*
G01*
X9574682Y-7382065D01*
X9581499Y-7395700D01*
X9588317Y-7402520D01*
X9601954Y-7409337D01*
X9629226Y-7409337D01*
X9642863Y-7402520D01*
X9649680Y-7395700D01*
X9656498Y-7382065D01*
X9656498Y-7368428D01*
X9649680Y-7354790D01*
X9642863Y-7347973D01*
X9615591Y-7334336D01*
X9615591Y-7313881D01*
X9615591Y-7279792D02*
G01*
X9608771Y-7272975D01*
X9615591Y-7266155D01*
X9622409Y-7272975D01*
X9615591Y-7279792D01*
X6748381Y-7409337D02*
G01*
X6748381Y-7300247D01*
X6741563Y-7279792D01*
X6734746Y-7272975D01*
X6721109Y-7266155D01*
X6707471Y-7266155D01*
X6693837Y-7272975D01*
X6687017Y-7279792D01*
X6680200Y-7300247D01*
X6680200Y-7313881D01*
X6793382Y-7375245D02*
G01*
X6793382Y-7382065D01*
X6800199Y-7395700D01*
X6807017Y-7402520D01*
X6820654Y-7409337D01*
X6847926Y-7409337D01*
X6861563Y-7402520D01*
X6868380Y-7395700D01*
X6875198Y-7382065D01*
X6875198Y-7368428D01*
X6868380Y-7354790D01*
X6861563Y-7347973D01*
X6834291Y-7334336D01*
X6834291Y-7313881D01*
X6834291Y-7279792D02*
G01*
X6827471Y-7272975D01*
X6834291Y-7266155D01*
X6841109Y-7272975D01*
X6834291Y-7279792D01*
X8139031Y-7409337D02*
G01*
X8139031Y-7300247D01*
X8132213Y-7279792D01*
X8125396Y-7272975D01*
X8111759Y-7266155D01*
X8098121Y-7266155D01*
X8084487Y-7272975D01*
X8077667Y-7279792D01*
X8070850Y-7300247D01*
X8070850Y-7313881D01*
X8184032Y-7375245D02*
G01*
X8184032Y-7382065D01*
X8190849Y-7395700D01*
X8197667Y-7402520D01*
X8211304Y-7409337D01*
X8238576Y-7409337D01*
X8252213Y-7402520D01*
X8259030Y-7395700D01*
X8265848Y-7382065D01*
X8265848Y-7368428D01*
X8259030Y-7354790D01*
X8252213Y-7347973D01*
X8224941Y-7334336D01*
X8224941Y-7313881D01*
X8224941Y-7279792D02*
G01*
X8218121Y-7272975D01*
X8224941Y-7266155D01*
X8231759Y-7272975D01*
X8224941Y-7279792D01*
X6773781Y-5958489D02*
G01*
X6773781Y-5849399D01*
X6766963Y-5828944D01*
X6760146Y-5822127D01*
X6746509Y-5815307D01*
X6732871Y-5815307D01*
X6719237Y-5822127D01*
X6712417Y-5828944D01*
X6705600Y-5849399D01*
X6705600Y-5863033D01*
X6818782Y-5924397D02*
G01*
X6818782Y-5931217D01*
X6825599Y-5944852D01*
X6832417Y-5951672D01*
X6846054Y-5958489D01*
X6873326Y-5958489D01*
X6886963Y-5951672D01*
X6893780Y-5944852D01*
X6900598Y-5931217D01*
X6900598Y-5917580D01*
X6893780Y-5903942D01*
X6886963Y-5897125D01*
X6859691Y-5883488D01*
X6859691Y-5863033D01*
X6859691Y-5828944D02*
G01*
X6852871Y-5822127D01*
X6859691Y-5815307D01*
X6866509Y-5822127D01*
X6859691Y-5828944D01*
X8193133Y-5961537D02*
G01*
X8193133Y-5852447D01*
X8186315Y-5831992D01*
X8179498Y-5825175D01*
X8165861Y-5818355D01*
X8152223Y-5818355D01*
X8138589Y-5825175D01*
X8131769Y-5831992D01*
X8124952Y-5852447D01*
X8124952Y-5866081D01*
X8238134Y-5927445D02*
G01*
X8238134Y-5934265D01*
X8244951Y-5947900D01*
X8251769Y-5954720D01*
X8265406Y-5961537D01*
X8292678Y-5961537D01*
X8306315Y-5954720D01*
X8313132Y-5947900D01*
X8319952Y-5934265D01*
X8319952Y-5920628D01*
X8313132Y-5906990D01*
X8306315Y-5900173D01*
X8279043Y-5886536D01*
X8279043Y-5866081D01*
X8279043Y-5831992D02*
G01*
X8272223Y-5825175D01*
X8279043Y-5818355D01*
X8285861Y-5825175D01*
X8279043Y-5831992D01*
X9516981Y-5967887D02*
G01*
X9516981Y-5858797D01*
X9510163Y-5838342D01*
X9503346Y-5831525D01*
X9489709Y-5824705D01*
X9476071Y-5824705D01*
X9462437Y-5831525D01*
X9455617Y-5838342D01*
X9448800Y-5858797D01*
X9448800Y-5872431D01*
X9561982Y-5933795D02*
G01*
X9561982Y-5940615D01*
X9568799Y-5954250D01*
X9575617Y-5961070D01*
X9589254Y-5967887D01*
X9616526Y-5967887D01*
X9630163Y-5961070D01*
X9636980Y-5954250D01*
X9643798Y-5940615D01*
X9643798Y-5926978D01*
X9636980Y-5913340D01*
X9630163Y-5906523D01*
X9602891Y-5892886D01*
X9602891Y-5872431D01*
X9602891Y-5838342D02*
G01*
X9596071Y-5831525D01*
X9602891Y-5824705D01*
X9609709Y-5831525D01*
X9602891Y-5838342D01*
X6799181Y-4507387D02*
G01*
X6799181Y-4398297D01*
X6792363Y-4377842D01*
X6785546Y-4371025D01*
X6771909Y-4364205D01*
X6758271Y-4364205D01*
X6744637Y-4371025D01*
X6737817Y-4377842D01*
X6731000Y-4398297D01*
X6731000Y-4411931D01*
X6844182Y-4473295D02*
G01*
X6844182Y-4480115D01*
X6850999Y-4493750D01*
X6857817Y-4500570D01*
X6871454Y-4507387D01*
X6898726Y-4507387D01*
X6912363Y-4500570D01*
X6919180Y-4493750D01*
X6925998Y-4480115D01*
X6925998Y-4466478D01*
X6919180Y-4452840D01*
X6912363Y-4446023D01*
X6885091Y-4432386D01*
X6885091Y-4411931D01*
X6885091Y-4377842D02*
G01*
X6878271Y-4371025D01*
X6885091Y-4364205D01*
X6891909Y-4371025D01*
X6885091Y-4377842D01*
X8193133Y-4469287D02*
G01*
X8193133Y-4360197D01*
X8186315Y-4339742D01*
X8179498Y-4332925D01*
X8165861Y-4326105D01*
X8152223Y-4326105D01*
X8138589Y-4332925D01*
X8131769Y-4339742D01*
X8124952Y-4360197D01*
X8124952Y-4373831D01*
X8238134Y-4435195D02*
G01*
X8238134Y-4442015D01*
X8244951Y-4455650D01*
X8251769Y-4462470D01*
X8265406Y-4469287D01*
X8292678Y-4469287D01*
X8306315Y-4462470D01*
X8313132Y-4455650D01*
X8319952Y-4442015D01*
X8319952Y-4428378D01*
X8313132Y-4414740D01*
X8306315Y-4407923D01*
X8279043Y-4394286D01*
X8279043Y-4373831D01*
X8279043Y-4339742D02*
G01*
X8272223Y-4332925D01*
X8279043Y-4326105D01*
X8285861Y-4332925D01*
X8279043Y-4339742D01*
X9516981Y-4469287D02*
G01*
X9516981Y-4360197D01*
X9510163Y-4339742D01*
X9503346Y-4332925D01*
X9489709Y-4326105D01*
X9476071Y-4326105D01*
X9462437Y-4332925D01*
X9455617Y-4339742D01*
X9448800Y-4360197D01*
X9448800Y-4373831D01*
X9561982Y-4435195D02*
G01*
X9561982Y-4442015D01*
X9568799Y-4455650D01*
X9575617Y-4462470D01*
X9589254Y-4469287D01*
X9616526Y-4469287D01*
X9630163Y-4462470D01*
X9636980Y-4455650D01*
X9643798Y-4442015D01*
X9643798Y-4428378D01*
X9636980Y-4414740D01*
X9630163Y-4407923D01*
X9602891Y-4394286D01*
X9602891Y-4373831D01*
X9602891Y-4339742D02*
G01*
X9596071Y-4332925D01*
X9602891Y-4326105D01*
X9609709Y-4332925D01*
X9602891Y-4339742D01*
D14*
X7300582Y3910215D02*
G01*
X7300582Y-1289773D01*
X10090569Y-1289773D01*
X10090569Y3910215D01*
X7300582Y3910215D01*
X11256208Y-1443408D02*
G01*
X11864088Y-1443408D01*
X10409976Y-9148389D02*
G01*
X9800595Y-9148389D01*
X9800595Y-1443408D01*
X10409976Y-1443408D01*
X11865584Y-1443408D02*
G01*
X11865584Y-9148389D01*
X11256208Y-9148389D01*
X10833089Y-2400297D02*
G01*
X10833089Y-2628897D01*
X10718789Y-2514597D02*
G01*
X10947389Y-2514597D01*
X10833089Y-7962897D02*
G01*
X10833089Y-8191497D01*
X5739208Y-1381599D02*
G01*
X5739208Y-3421600D01*
X8259218Y-3421600D01*
X8259218Y-1381599D01*
X5739208Y-1381599D01*
X5709211Y-2031611D02*
G01*
X5709211Y-2831609D01*
X5809211Y-2831609D01*
X5809211Y-2031611D01*
X5709211Y-2031611D01*
G75*
G01
X10993095Y-8077200D02*
G03X10993095Y-8077200I-160020J0D01*
G75*
G01
X10993095Y-2514600D02*
G03X10993095Y-2514600I-160020J0D01*
G75*
G01
X9621012Y-7854874D02*
G03X9621012Y-7854874I-350012J0D01*
G75*
G01
X9421012Y-7245274D02*
G03X9421012Y-7245274I-150012J0D01*
G75*
G01
X6839712Y-7854874D02*
G03X6839712Y-7854874I-350012J0D01*
G75*
G01
X6639712Y-7245274D02*
G03X6639712Y-7245274I-150012J0D01*
G75*
G01
X8230362Y-7854874D02*
G03X8230362Y-7854874I-350012J0D01*
G75*
G01
X8030362Y-7245274D02*
G03X8030362Y-7245274I-150012J0D01*
G75*
G01
X6865112Y-6404026D02*
G03X6865112Y-6404026I-350012J0D01*
G75*
G01
X6665112Y-5794426D02*
G03X6665112Y-5794426I-150012J0D01*
G75*
G01
X8284464Y-6407074D02*
G03X8284464Y-6407074I-350012J0D01*
G75*
G01
X8084464Y-5797474D02*
G03X8084464Y-5797474I-150012J0D01*
G75*
G01
X9608312Y-6413424D02*
G03X9608312Y-6413424I-350012J0D01*
G75*
G01
X9408312Y-5803824D02*
G03X9408312Y-5803824I-150012J0D01*
G75*
G01
X6890512Y-4952924D02*
G03X6890512Y-4952924I-350012J0D01*
G75*
G01
X6690512Y-4343324D02*
G03X6690512Y-4343324I-150012J0D01*
G75*
G01
X8284464Y-4914824D02*
G03X8284464Y-4914824I-350012J0D01*
G75*
G01
X8084464Y-4305224D02*
G03X8084464Y-4305224I-150012J0D01*
G75*
G01
X9608312Y-4914824D02*
G03X9608312Y-4914824I-350012J0D01*
G75*
G01
X9408312Y-4305224D02*
G03X9408312Y-4305224I-150012J0D01*
M02*
