G04 Layer: TopSolderMaskLayer*
G04 EasyEDA v6.5.54, 2026-05-04 19:38:11*
G04 5f17a63f1c7d4cd2a323212eb2037d27,960f30f31fa644a792902757f8e8d678,10*
G04 Gerber Generator version 0.2*
G04 Scale: 100 percent, Rotated: No, Reflected: No *
G04 Dimensions in millimeters *
G04 leading zeros omitted , absolute positions ,4 integer and 5 decimal *
%FSLAX45Y45*%
%MOMM*%

%AMMACRO1*4,1,8,-0.9211,-0.9008,-0.9508,-0.871,-0.9508,0.8711,-0.9211,0.9008,0.921,0.9008,0.9508,0.8711,0.9508,-0.871,0.921,-0.9008,-0.9211,-0.9008,0*%
%AMMACRO2*4,1,8,-0.9211,-0.9508,-0.9508,-0.921,-0.9508,0.9211,-0.9211,0.9508,0.921,0.9508,0.9508,0.9211,0.9508,-0.921,0.921,-0.9508,-0.9211,-0.9508,0*%
%AMMACRO3*4,1,8,-0.9421,-1.0016,-1.0016,-0.9421,-1.0016,0.9421,-0.9421,1.0016,0.9421,1.0016,1.0016,0.9421,1.0016,-0.9421,0.9421,-1.0016,-0.9421,-1.0016,0*%
%AMMACRO4*4,1,8,-0.7207,-0.812,-0.75,-0.7827,-0.75,0.7827,-0.7207,0.812,0.7207,0.812,0.75,0.7827,0.75,-0.7827,0.7207,-0.812,-0.7207,-0.812,0*%
%AMMACRO5*4,1,8,-0.6423,-0.702,-0.702,-0.6422,-0.702,0.6423,-0.6423,0.702,0.6422,0.702,0.702,0.6423,0.702,-0.6422,0.6422,-0.702,-0.6423,-0.702,0*%
%AMMACRO6*4,1,8,-0.5202,-0.8014,-0.5499,-0.7716,-0.5499,0.7716,-0.5202,0.8014,0.5201,0.8014,0.5499,0.7716,0.5499,-0.7716,0.5201,-0.8014,-0.5202,-0.8014,0*%
%AMMACRO7*4,1,8,-0.5202,-0.8001,-0.5499,-0.7703,-0.5499,0.7704,-0.5202,0.8001,0.5201,0.8001,0.5499,0.7704,0.5499,-0.7703,0.5201,-0.8001,-0.5202,-0.8001,0*%
%AMMACRO8*4,1,8,-1.0211,-1.0508,-1.0508,-1.021,-1.0508,1.0211,-1.0211,1.0508,1.021,1.0508,1.0508,1.0211,1.0508,-1.021,1.021,-1.0508,-1.0211,-1.0508,0*%
%AMMACRO9*4,1,8,-0.3711,-0.6758,-0.4008,-0.646,-0.4008,0.646,-0.3711,0.6758,0.371,0.6758,0.4008,0.646,0.4008,-0.646,0.371,-0.6758,-0.3711,-0.6758,0*%
%AMMACRO10*4,1,8,-0.7095,-0.6171,-0.7393,-0.5873,-0.7393,0.5873,-0.7095,0.6171,0.7095,0.6171,0.7393,0.5873,0.7393,-0.5873,0.7095,-0.6171,-0.7095,-0.6171,0*%
%AMMACRO11*4,1,8,-0.5873,-0.7393,-0.6171,-0.7095,-0.6171,0.7095,-0.5873,0.7393,0.5873,0.7393,0.6171,0.7095,0.6171,-0.7095,0.5873,-0.7393,-0.5873,-0.7393,0*%
%AMMACRO12*4,1,8,-0.646,-0.4008,-0.6758,-0.371,-0.6758,0.3711,-0.646,0.4008,0.646,0.4008,0.6758,0.3711,0.6758,-0.371,0.646,-0.4008,-0.646,-0.4008,0*%
%ADD10C,2.0320*%
%ADD11MACRO1*%
%ADD12MACRO2*%
%ADD13MACRO3*%
%ADD14C,2.1016*%
%ADD15MACRO4*%
%ADD16C,0.0143*%
%ADD17C,1.5000*%
%ADD18MACRO5*%
%ADD19MACRO6*%
%ADD20MACRO7*%
%ADD21C,1.9016*%
%ADD22MACRO8*%
%ADD23MACRO9*%
%ADD24MACRO10*%
%ADD25MACRO11*%
%ADD26MACRO12*%

%LPD*%
D10*
G01*
X9924592Y2897225D03*
G01*
X9924592Y2643225D03*
G01*
X9924592Y2389225D03*
G01*
X9924592Y2135225D03*
G01*
X9924592Y1881225D03*
G01*
X9924592Y1627225D03*
G01*
X9924592Y1373225D03*
G01*
X9924592Y1119225D03*
G01*
X9924592Y865225D03*
G01*
X9924592Y611225D03*
G01*
X9924592Y357225D03*
G01*
X9924592Y103225D03*
G01*
X9924592Y-150774D03*
G01*
X9924592Y-404774D03*
G01*
X9924592Y-658774D03*
G01*
X7447584Y-658774D03*
G01*
X7447584Y-404774D03*
G01*
X7447584Y-150774D03*
G01*
X7447584Y103225D03*
G01*
X7447584Y357225D03*
G01*
X7447584Y611225D03*
G01*
X7447584Y865225D03*
G01*
X7447584Y1119225D03*
G01*
X7447584Y1373225D03*
G01*
X7447584Y1627225D03*
G01*
X7447584Y1881225D03*
G01*
X7447584Y2135225D03*
G01*
X7447584Y2389225D03*
G01*
X7447584Y2643225D03*
G01*
X7447584Y2897225D03*
D11*
G01*
X7819199Y-1521600D03*
D12*
G01*
X7249200Y-1521599D03*
D13*
G01*
X5899198Y-2091598D03*
G01*
X5899198Y-2711599D03*
G01*
X6039192Y-1531604D03*
D14*
G01*
X9271000Y-7245273D03*
G01*
X6489700Y-7245273D03*
G01*
X7880350Y-7245273D03*
G01*
X6515100Y-5794425D03*
G01*
X7934452Y-5797473D03*
G01*
X9258300Y-5803823D03*
G01*
X6540500Y-4343323D03*
G01*
X7934452Y-4305223D03*
G01*
X9258300Y-4305223D03*
D15*
G01*
X6083300Y-3414699D03*
D17*
G01*
X6083300Y-3214700D03*
D18*
G01*
X11042286Y-4913160D03*
G01*
X11042286Y-4713150D03*
G01*
X11054986Y-6462560D03*
G01*
X11054986Y-6262550D03*
G01*
X11067686Y-7986560D03*
G01*
X11067686Y-7786550D03*
D19*
G01*
X10737382Y-5058166D03*
G01*
X10407380Y-5058166D03*
D20*
G01*
X10407380Y-4568164D03*
G01*
X10737382Y-4568164D03*
D19*
G01*
X10762782Y-6620266D03*
G01*
X10432780Y-6620266D03*
D20*
G01*
X10432780Y-6130264D03*
G01*
X10762782Y-6130264D03*
D19*
G01*
X10800882Y-8118866D03*
G01*
X10470880Y-8118866D03*
D20*
G01*
X10470880Y-7628864D03*
G01*
X10800882Y-7628864D03*
D14*
G01*
X8816543Y-767206D03*
G01*
X8816543Y-1417193D03*
G01*
X8366556Y-767206D03*
G01*
X8366556Y-1417193D03*
G01*
X8816543Y-2684906D03*
G01*
X8816543Y-3334893D03*
G01*
X8366556Y-2684906D03*
G01*
X8366556Y-3334893D03*
G01*
X8816543Y-1732406D03*
G01*
X8816543Y-2382393D03*
G01*
X8366556Y-1732406D03*
G01*
X8366556Y-2382393D03*
G01*
X9198406Y-2382393D03*
G01*
X9198406Y-1732406D03*
D21*
G01*
X9648393Y-2382393D03*
G01*
X9648393Y-1732406D03*
D14*
G01*
X7984693Y-1732406D03*
G01*
X7984693Y-2382393D03*
G01*
X7534706Y-1732406D03*
G01*
X7534706Y-2382393D03*
D22*
G01*
X11379200Y330200D03*
D14*
G01*
X11379200Y584200D03*
G01*
X11379200Y838200D03*
G01*
X11379200Y1092200D03*
G01*
X11379200Y1346200D03*
G01*
X11379200Y1600200D03*
G01*
X11379200Y1854200D03*
G01*
X11379200Y2108200D03*
D23*
G01*
X10826496Y-3786200D03*
G01*
X10636505Y-3786200D03*
G01*
X10731501Y-3986199D03*
D24*
G01*
X9372600Y-9383704D03*
G01*
X9372600Y-9183695D03*
D25*
G01*
X10939452Y-4260847D03*
G01*
X10739442Y-4260847D03*
G01*
X10837852Y-3524247D03*
G01*
X10637842Y-3524247D03*
D15*
G01*
X5981700Y-865200D03*
D17*
G01*
X5981700Y-1065199D03*
D14*
G01*
X7489393Y-2621406D03*
G01*
X7489393Y-3271393D03*
G01*
X7039406Y-2621406D03*
G01*
X7039406Y-3271393D03*
D24*
G01*
X6896615Y1462605D03*
G01*
X6896615Y1662615D03*
D26*
G01*
X6628315Y1467614D03*
G01*
X6628315Y1657605D03*
G01*
X6428315Y1562609D03*
D25*
G01*
X5971110Y1562610D03*
G01*
X6171120Y1562610D03*
G01*
X5983810Y1067310D03*
G01*
X6183820Y1067310D03*
D26*
G01*
X6628315Y972314D03*
G01*
X6628315Y1162305D03*
G01*
X6428315Y1067309D03*
D24*
G01*
X6896615Y967305D03*
G01*
X6896615Y1167315D03*
G01*
X6896615Y497405D03*
G01*
X6896615Y697415D03*
D26*
G01*
X6628315Y489714D03*
G01*
X6628315Y679705D03*
G01*
X6428315Y584709D03*
D25*
G01*
X5983810Y584710D03*
G01*
X6183820Y584710D03*
D14*
G01*
X6553200Y-4025900D03*
D10*
G01*
X7239000Y-1955800D03*
G01*
X11049000Y2133600D03*
G01*
X11049000Y1651000D03*
G01*
X11049000Y1333500D03*
G01*
X11049000Y1066800D03*
G01*
X11049000Y812800D03*
D14*
G01*
X11049000Y1892300D03*
D10*
G01*
X10210800Y2641600D03*
G01*
X8115300Y-2679700D03*
G01*
X8077200Y-1435100D03*
G01*
X7988300Y-685800D03*
D14*
G01*
X7937500Y-4025900D03*
G01*
X9271000Y-4025900D03*
D10*
G01*
X9867900Y-9398000D03*
G01*
X11023600Y-6731000D03*
G01*
X10337800Y-6908800D03*
G01*
X10851489Y-7201052D03*
G01*
X10541000Y-5270500D03*
G01*
X11049000Y-5245100D03*
G01*
X8102600Y-1054100D03*
G01*
X9169400Y-1092200D03*
G01*
X8610600Y-1574800D03*
G01*
X10109200Y-7556500D03*
G01*
X6413500Y-1117600D03*
G01*
X6121400Y-2882900D03*
G01*
X6108700Y-3822700D03*
G01*
X6426200Y-635000D03*
G01*
X6946900Y-673100D03*
G01*
X7137400Y-1143000D03*
G01*
X9486900Y-2552700D03*
G01*
X10515600Y228600D03*
D14*
G01*
X6045200Y-1778000D03*
D10*
G01*
X6337300Y825500D03*
G01*
X6870700Y-177800D03*
G01*
X6642100Y-177800D03*
G01*
X6337300Y1320800D03*
G01*
X6705600Y825500D03*
G01*
X6921500Y279400D03*
G01*
X6718300Y1320800D03*
G01*
X6973544Y2919196D03*
M02*
