G04 Layer: TopSilkscreenLayer*
G04 EasyEDA v6.5.54, 2026-05-04 19:38:11*
G04 5f17a63f1c7d4cd2a323212eb2037d27,960f30f31fa644a792902757f8e8d678,10*
G04 Gerber Generator version 0.2*
G04 Scale: 100 percent, Rotated: No, Reflected: No *
G04 Dimensions in millimeters *
G04 leading zeros omitted , absolute positions ,4 integer and 5 decimal *
%FSLAX45Y45*%
%MOMM*%

%ADD10C,0.1524*%
%ADD11C,0.2540*%
%ADD12C,0.2000*%
%ADD13C,0.0104*%

%LPD*%
D10*
X9296400Y-8543493D02*
G01*
X9296400Y-8434273D01*
X9296400Y-8543493D02*
G01*
X9249663Y-8543493D01*
X9234170Y-8538159D01*
X9228836Y-8533079D01*
X9223756Y-8522665D01*
X9223756Y-8512251D01*
X9228836Y-8501837D01*
X9234170Y-8496757D01*
X9249663Y-8491423D01*
X9296400Y-8491423D02*
G01*
X9249663Y-8491423D01*
X9234170Y-8486343D01*
X9228836Y-8481009D01*
X9223756Y-8470595D01*
X9223756Y-8455101D01*
X9228836Y-8444687D01*
X9234170Y-8439607D01*
X9249663Y-8434273D01*
X9296400Y-8434273D01*
X9147809Y-8543493D02*
G01*
X9189465Y-8434273D01*
X9147809Y-8543493D02*
G01*
X9106154Y-8434273D01*
X9173718Y-8470595D02*
G01*
X9121902Y-8470595D01*
X9071863Y-8543493D02*
G01*
X9071863Y-8434273D01*
X9071863Y-8543493D02*
G01*
X8999220Y-8434273D01*
X8999220Y-8543493D02*
G01*
X8999220Y-8434273D01*
X8923274Y-8543493D02*
G01*
X8964929Y-8434273D01*
X8923274Y-8543493D02*
G01*
X8881872Y-8434273D01*
X8949436Y-8470595D02*
G01*
X8897365Y-8470595D01*
X8847581Y-8543493D02*
G01*
X8847581Y-8434273D01*
X8847581Y-8543493D02*
G01*
X8774684Y-8434273D01*
X8774684Y-8543493D02*
G01*
X8774684Y-8434273D01*
X8698991Y-8543493D02*
G01*
X8740393Y-8434273D01*
X8698991Y-8543493D02*
G01*
X8657336Y-8434273D01*
X8724900Y-8470595D02*
G01*
X8672829Y-8470595D01*
X8623045Y-8481009D02*
G01*
X8529574Y-8481009D01*
X8443213Y-8543493D02*
G01*
X8443213Y-8460181D01*
X8448547Y-8444687D01*
X8453627Y-8439607D01*
X8464041Y-8434273D01*
X8474456Y-8434273D01*
X8484870Y-8439607D01*
X8489950Y-8444687D01*
X8495284Y-8460181D01*
X8495284Y-8470595D01*
X8367522Y-8543493D02*
G01*
X8408924Y-8434273D01*
X8367522Y-8543493D02*
G01*
X8325865Y-8434273D01*
X8393429Y-8470595D02*
G01*
X8341359Y-8470595D01*
X8213597Y-8517331D02*
G01*
X8218931Y-8527745D01*
X8229345Y-8538159D01*
X8239759Y-8543493D01*
X8260334Y-8543493D01*
X8270747Y-8538159D01*
X8281161Y-8527745D01*
X8286495Y-8517331D01*
X8291575Y-8501837D01*
X8291575Y-8475929D01*
X8286495Y-8460181D01*
X8281161Y-8450021D01*
X8270747Y-8439607D01*
X8260334Y-8434273D01*
X8239759Y-8434273D01*
X8229345Y-8439607D01*
X8218931Y-8450021D01*
X8213597Y-8460181D01*
X8179308Y-8543493D02*
G01*
X8179308Y-8434273D01*
X8106663Y-8543493D02*
G01*
X8179308Y-8470595D01*
X8153400Y-8496757D02*
G01*
X8106663Y-8434273D01*
X9296400Y-8365693D02*
G01*
X9296400Y-8287715D01*
X9291320Y-8272221D01*
X9280906Y-8261807D01*
X9265158Y-8256473D01*
X9254743Y-8256473D01*
X9239250Y-8261807D01*
X9228836Y-8272221D01*
X9223756Y-8287715D01*
X9223756Y-8365693D01*
X9189465Y-8344865D02*
G01*
X9179052Y-8349945D01*
X9163304Y-8365693D01*
X9163304Y-8256473D01*
X6515100Y-8543493D02*
G01*
X6515100Y-8434273D01*
X6515100Y-8543493D02*
G01*
X6468363Y-8543493D01*
X6452870Y-8538159D01*
X6447536Y-8533079D01*
X6442456Y-8522665D01*
X6442456Y-8512251D01*
X6447536Y-8501837D01*
X6452870Y-8496757D01*
X6468363Y-8491423D01*
X6515100Y-8491423D02*
G01*
X6468363Y-8491423D01*
X6452870Y-8486343D01*
X6447536Y-8481009D01*
X6442456Y-8470595D01*
X6442456Y-8455101D01*
X6447536Y-8444687D01*
X6452870Y-8439607D01*
X6468363Y-8434273D01*
X6515100Y-8434273D01*
X6366509Y-8543493D02*
G01*
X6408165Y-8434273D01*
X6366509Y-8543493D02*
G01*
X6324854Y-8434273D01*
X6392418Y-8470595D02*
G01*
X6340602Y-8470595D01*
X6290563Y-8543493D02*
G01*
X6290563Y-8434273D01*
X6290563Y-8543493D02*
G01*
X6217920Y-8434273D01*
X6217920Y-8543493D02*
G01*
X6217920Y-8434273D01*
X6141974Y-8543493D02*
G01*
X6183629Y-8434273D01*
X6141974Y-8543493D02*
G01*
X6100572Y-8434273D01*
X6168136Y-8470595D02*
G01*
X6116065Y-8470595D01*
X6066281Y-8543493D02*
G01*
X6066281Y-8434273D01*
X6066281Y-8543493D02*
G01*
X5993384Y-8434273D01*
X5993384Y-8543493D02*
G01*
X5993384Y-8434273D01*
X5917691Y-8543493D02*
G01*
X5959093Y-8434273D01*
X5917691Y-8543493D02*
G01*
X5876036Y-8434273D01*
X5943600Y-8470595D02*
G01*
X5891529Y-8470595D01*
X5841745Y-8481009D02*
G01*
X5748274Y-8481009D01*
X5661913Y-8543493D02*
G01*
X5661913Y-8460181D01*
X5667247Y-8444687D01*
X5672327Y-8439607D01*
X5682741Y-8434273D01*
X5693156Y-8434273D01*
X5703570Y-8439607D01*
X5708650Y-8444687D01*
X5713984Y-8460181D01*
X5713984Y-8470595D01*
X5586222Y-8543493D02*
G01*
X5627624Y-8434273D01*
X5586222Y-8543493D02*
G01*
X5544565Y-8434273D01*
X5612129Y-8470595D02*
G01*
X5560059Y-8470595D01*
X5432297Y-8517331D02*
G01*
X5437631Y-8527745D01*
X5448045Y-8538159D01*
X5458459Y-8543493D01*
X5479034Y-8543493D01*
X5489447Y-8538159D01*
X5499861Y-8527745D01*
X5505195Y-8517331D01*
X5510275Y-8501837D01*
X5510275Y-8475929D01*
X5505195Y-8460181D01*
X5499861Y-8450021D01*
X5489447Y-8439607D01*
X5479034Y-8434273D01*
X5458459Y-8434273D01*
X5448045Y-8439607D01*
X5437631Y-8450021D01*
X5432297Y-8460181D01*
X5398008Y-8543493D02*
G01*
X5398008Y-8434273D01*
X5325363Y-8543493D02*
G01*
X5398008Y-8470595D01*
X5372100Y-8496757D02*
G01*
X5325363Y-8434273D01*
X6515100Y-8365693D02*
G01*
X6515100Y-8287715D01*
X6510020Y-8272221D01*
X6499606Y-8261807D01*
X6483858Y-8256473D01*
X6473443Y-8256473D01*
X6457950Y-8261807D01*
X6447536Y-8272221D01*
X6442456Y-8287715D01*
X6442456Y-8365693D01*
X6402831Y-8339531D02*
G01*
X6402831Y-8344865D01*
X6397752Y-8355279D01*
X6392418Y-8360359D01*
X6382004Y-8365693D01*
X6361429Y-8365693D01*
X6351015Y-8360359D01*
X6345681Y-8355279D01*
X6340602Y-8344865D01*
X6340602Y-8334451D01*
X6345681Y-8324037D01*
X6356095Y-8308543D01*
X6408165Y-8256473D01*
X6335268Y-8256473D01*
X7905750Y-8543493D02*
G01*
X7905750Y-8434273D01*
X7905750Y-8543493D02*
G01*
X7859013Y-8543493D01*
X7843520Y-8538159D01*
X7838186Y-8533079D01*
X7833106Y-8522665D01*
X7833106Y-8512251D01*
X7838186Y-8501837D01*
X7843520Y-8496757D01*
X7859013Y-8491423D01*
X7905750Y-8491423D02*
G01*
X7859013Y-8491423D01*
X7843520Y-8486343D01*
X7838186Y-8481009D01*
X7833106Y-8470595D01*
X7833106Y-8455101D01*
X7838186Y-8444687D01*
X7843520Y-8439607D01*
X7859013Y-8434273D01*
X7905750Y-8434273D01*
X7757159Y-8543493D02*
G01*
X7798815Y-8434273D01*
X7757159Y-8543493D02*
G01*
X7715504Y-8434273D01*
X7783068Y-8470595D02*
G01*
X7731252Y-8470595D01*
X7681213Y-8543493D02*
G01*
X7681213Y-8434273D01*
X7681213Y-8543493D02*
G01*
X7608570Y-8434273D01*
X7608570Y-8543493D02*
G01*
X7608570Y-8434273D01*
X7532624Y-8543493D02*
G01*
X7574279Y-8434273D01*
X7532624Y-8543493D02*
G01*
X7491222Y-8434273D01*
X7558786Y-8470595D02*
G01*
X7506715Y-8470595D01*
X7456931Y-8543493D02*
G01*
X7456931Y-8434273D01*
X7456931Y-8543493D02*
G01*
X7384034Y-8434273D01*
X7384034Y-8543493D02*
G01*
X7384034Y-8434273D01*
X7308341Y-8543493D02*
G01*
X7349743Y-8434273D01*
X7308341Y-8543493D02*
G01*
X7266686Y-8434273D01*
X7334250Y-8470595D02*
G01*
X7282179Y-8470595D01*
X7232395Y-8481009D02*
G01*
X7138924Y-8481009D01*
X7052563Y-8543493D02*
G01*
X7052563Y-8460181D01*
X7057897Y-8444687D01*
X7062977Y-8439607D01*
X7073391Y-8434273D01*
X7083806Y-8434273D01*
X7094220Y-8439607D01*
X7099300Y-8444687D01*
X7104634Y-8460181D01*
X7104634Y-8470595D01*
X6976872Y-8543493D02*
G01*
X7018274Y-8434273D01*
X6976872Y-8543493D02*
G01*
X6935215Y-8434273D01*
X7002779Y-8470595D02*
G01*
X6950709Y-8470595D01*
X6822947Y-8517331D02*
G01*
X6828281Y-8527745D01*
X6838695Y-8538159D01*
X6849109Y-8543493D01*
X6869684Y-8543493D01*
X6880097Y-8538159D01*
X6890511Y-8527745D01*
X6895845Y-8517331D01*
X6900925Y-8501837D01*
X6900925Y-8475929D01*
X6895845Y-8460181D01*
X6890511Y-8450021D01*
X6880097Y-8439607D01*
X6869684Y-8434273D01*
X6849109Y-8434273D01*
X6838695Y-8439607D01*
X6828281Y-8450021D01*
X6822947Y-8460181D01*
X6788658Y-8543493D02*
G01*
X6788658Y-8434273D01*
X6716013Y-8543493D02*
G01*
X6788658Y-8470595D01*
X6762750Y-8496757D02*
G01*
X6716013Y-8434273D01*
X7905750Y-8365693D02*
G01*
X7905750Y-8287715D01*
X7900670Y-8272221D01*
X7890256Y-8261807D01*
X7874508Y-8256473D01*
X7864093Y-8256473D01*
X7848600Y-8261807D01*
X7838186Y-8272221D01*
X7833106Y-8287715D01*
X7833106Y-8365693D01*
X7788402Y-8365693D02*
G01*
X7731252Y-8365693D01*
X7762240Y-8324037D01*
X7746745Y-8324037D01*
X7736331Y-8318957D01*
X7731252Y-8313623D01*
X7725918Y-8298129D01*
X7725918Y-8287715D01*
X7731252Y-8272221D01*
X7741665Y-8261807D01*
X7757159Y-8256473D01*
X7772654Y-8256473D01*
X7788402Y-8261807D01*
X7793481Y-8266887D01*
X7798815Y-8277301D01*
X6540500Y-7092391D02*
G01*
X6540500Y-6983425D01*
X6540500Y-7092391D02*
G01*
X6493763Y-7092391D01*
X6478270Y-7087311D01*
X6472936Y-7081977D01*
X6467856Y-7071563D01*
X6467856Y-7061149D01*
X6472936Y-7050989D01*
X6478270Y-7045655D01*
X6493763Y-7040575D01*
X6540500Y-7040575D02*
G01*
X6493763Y-7040575D01*
X6478270Y-7035241D01*
X6472936Y-7030161D01*
X6467856Y-7019747D01*
X6467856Y-7003999D01*
X6472936Y-6993839D01*
X6478270Y-6988505D01*
X6493763Y-6983425D01*
X6540500Y-6983425D01*
X6391909Y-7092391D02*
G01*
X6433565Y-6983425D01*
X6391909Y-7092391D02*
G01*
X6350254Y-6983425D01*
X6417818Y-7019747D02*
G01*
X6366002Y-7019747D01*
X6315963Y-7092391D02*
G01*
X6315963Y-6983425D01*
X6315963Y-7092391D02*
G01*
X6243320Y-6983425D01*
X6243320Y-7092391D02*
G01*
X6243320Y-6983425D01*
X6167374Y-7092391D02*
G01*
X6209029Y-6983425D01*
X6167374Y-7092391D02*
G01*
X6125972Y-6983425D01*
X6193536Y-7019747D02*
G01*
X6141465Y-7019747D01*
X6091681Y-7092391D02*
G01*
X6091681Y-6983425D01*
X6091681Y-7092391D02*
G01*
X6018784Y-6983425D01*
X6018784Y-7092391D02*
G01*
X6018784Y-6983425D01*
X5943091Y-7092391D02*
G01*
X5984493Y-6983425D01*
X5943091Y-7092391D02*
G01*
X5901436Y-6983425D01*
X5969000Y-7019747D02*
G01*
X5916929Y-7019747D01*
X5867145Y-7030161D02*
G01*
X5773674Y-7030161D01*
X5687313Y-7092391D02*
G01*
X5687313Y-7009333D01*
X5692647Y-6993839D01*
X5697727Y-6988505D01*
X5708141Y-6983425D01*
X5718556Y-6983425D01*
X5728970Y-6988505D01*
X5734050Y-6993839D01*
X5739384Y-7009333D01*
X5739384Y-7019747D01*
X5611622Y-7092391D02*
G01*
X5653024Y-6983425D01*
X5611622Y-7092391D02*
G01*
X5569965Y-6983425D01*
X5637529Y-7019747D02*
G01*
X5585459Y-7019747D01*
X5457697Y-7066483D02*
G01*
X5463031Y-7076897D01*
X5473445Y-7087311D01*
X5483859Y-7092391D01*
X5504434Y-7092391D01*
X5514847Y-7087311D01*
X5525261Y-7076897D01*
X5530595Y-7066483D01*
X5535675Y-7050989D01*
X5535675Y-7024827D01*
X5530595Y-7009333D01*
X5525261Y-6998919D01*
X5514847Y-6988505D01*
X5504434Y-6983425D01*
X5483859Y-6983425D01*
X5473445Y-6988505D01*
X5463031Y-6998919D01*
X5457697Y-7009333D01*
X5423408Y-7092391D02*
G01*
X5423408Y-6983425D01*
X5350763Y-7092391D02*
G01*
X5423408Y-7019747D01*
X5397500Y-7045655D02*
G01*
X5350763Y-6983425D01*
X6540500Y-6914591D02*
G01*
X6540500Y-6836613D01*
X6535420Y-6821119D01*
X6525006Y-6810705D01*
X6509258Y-6805625D01*
X6498843Y-6805625D01*
X6483350Y-6810705D01*
X6472936Y-6821119D01*
X6467856Y-6836613D01*
X6467856Y-6914591D01*
X6371081Y-6899097D02*
G01*
X6376415Y-6909511D01*
X6391909Y-6914591D01*
X6402324Y-6914591D01*
X6417818Y-6909511D01*
X6428231Y-6893763D01*
X6433565Y-6867855D01*
X6433565Y-6841947D01*
X6428231Y-6821119D01*
X6417818Y-6810705D01*
X6402324Y-6805625D01*
X6396990Y-6805625D01*
X6381495Y-6810705D01*
X6371081Y-6821119D01*
X6366002Y-6836613D01*
X6366002Y-6841947D01*
X6371081Y-6857441D01*
X6381495Y-6867855D01*
X6396990Y-6873189D01*
X6402324Y-6873189D01*
X6417818Y-6867855D01*
X6428231Y-6857441D01*
X6433565Y-6841947D01*
X7959597Y-7095693D02*
G01*
X7959597Y-6986473D01*
X7959597Y-7095693D02*
G01*
X7912861Y-7095693D01*
X7897368Y-7090359D01*
X7892288Y-7085279D01*
X7886954Y-7074865D01*
X7886954Y-7064451D01*
X7892288Y-7054037D01*
X7897368Y-7048957D01*
X7912861Y-7043623D01*
X7959597Y-7043623D02*
G01*
X7912861Y-7043623D01*
X7897368Y-7038543D01*
X7892288Y-7033209D01*
X7886954Y-7022795D01*
X7886954Y-7007301D01*
X7892288Y-6996887D01*
X7897368Y-6991807D01*
X7912861Y-6986473D01*
X7959597Y-6986473D01*
X7811008Y-7095693D02*
G01*
X7852663Y-6986473D01*
X7811008Y-7095693D02*
G01*
X7769606Y-6986473D01*
X7837170Y-7022795D02*
G01*
X7785100Y-7022795D01*
X7735315Y-7095693D02*
G01*
X7735315Y-6986473D01*
X7735315Y-7095693D02*
G01*
X7662418Y-6986473D01*
X7662418Y-7095693D02*
G01*
X7662418Y-6986473D01*
X7586725Y-7095693D02*
G01*
X7628127Y-6986473D01*
X7586725Y-7095693D02*
G01*
X7545070Y-6986473D01*
X7612634Y-7022795D02*
G01*
X7560818Y-7022795D01*
X7510779Y-7095693D02*
G01*
X7510779Y-6986473D01*
X7510779Y-7095693D02*
G01*
X7438136Y-6986473D01*
X7438136Y-7095693D02*
G01*
X7438136Y-6986473D01*
X7362190Y-7095693D02*
G01*
X7403845Y-6986473D01*
X7362190Y-7095693D02*
G01*
X7320788Y-6986473D01*
X7388097Y-7022795D02*
G01*
X7336281Y-7022795D01*
X7286497Y-7033209D02*
G01*
X7192772Y-7033209D01*
X7106665Y-7095693D02*
G01*
X7106665Y-7012381D01*
X7111745Y-6996887D01*
X7117079Y-6991807D01*
X7127493Y-6986473D01*
X7137908Y-6986473D01*
X7148068Y-6991807D01*
X7153402Y-6996887D01*
X7158481Y-7012381D01*
X7158481Y-7022795D01*
X7030720Y-7095693D02*
G01*
X7072375Y-6986473D01*
X7030720Y-7095693D02*
G01*
X6989318Y-6986473D01*
X7056627Y-7022795D02*
G01*
X7004811Y-7022795D01*
X6877050Y-7069531D02*
G01*
X6882129Y-7079945D01*
X6892543Y-7090359D01*
X6902958Y-7095693D01*
X6923786Y-7095693D01*
X6934200Y-7090359D01*
X6944613Y-7079945D01*
X6949693Y-7069531D01*
X6955027Y-7054037D01*
X6955027Y-7028129D01*
X6949693Y-7012381D01*
X6944613Y-7002221D01*
X6934200Y-6991807D01*
X6923786Y-6986473D01*
X6902958Y-6986473D01*
X6892543Y-6991807D01*
X6882129Y-7002221D01*
X6877050Y-7012381D01*
X6842759Y-7095693D02*
G01*
X6842759Y-6986473D01*
X6769861Y-7095693D02*
G01*
X6842759Y-7022795D01*
X6816597Y-7048957D02*
G01*
X6769861Y-6986473D01*
X7959597Y-6917893D02*
G01*
X7959597Y-6839915D01*
X7954518Y-6824421D01*
X7944104Y-6814007D01*
X7928609Y-6808673D01*
X7918195Y-6808673D01*
X7902447Y-6814007D01*
X7892288Y-6824421D01*
X7886954Y-6839915D01*
X7886954Y-6917893D01*
X7780020Y-6917893D02*
G01*
X7831836Y-6808673D01*
X7852663Y-6917893D02*
G01*
X7780020Y-6917893D01*
X9283700Y-7102043D02*
G01*
X9283700Y-6992823D01*
X9283700Y-7102043D02*
G01*
X9236963Y-7102043D01*
X9221470Y-7096709D01*
X9216136Y-7091629D01*
X9211056Y-7081215D01*
X9211056Y-7070801D01*
X9216136Y-7060387D01*
X9221470Y-7055307D01*
X9236963Y-7049973D01*
X9283700Y-7049973D02*
G01*
X9236963Y-7049973D01*
X9221470Y-7044893D01*
X9216136Y-7039559D01*
X9211056Y-7029145D01*
X9211056Y-7013651D01*
X9216136Y-7003237D01*
X9221470Y-6998157D01*
X9236963Y-6992823D01*
X9283700Y-6992823D01*
X9135109Y-7102043D02*
G01*
X9176765Y-6992823D01*
X9135109Y-7102043D02*
G01*
X9093454Y-6992823D01*
X9161018Y-7029145D02*
G01*
X9109202Y-7029145D01*
X9059163Y-7102043D02*
G01*
X9059163Y-6992823D01*
X9059163Y-7102043D02*
G01*
X8986520Y-6992823D01*
X8986520Y-7102043D02*
G01*
X8986520Y-6992823D01*
X8910574Y-7102043D02*
G01*
X8952229Y-6992823D01*
X8910574Y-7102043D02*
G01*
X8869172Y-6992823D01*
X8936736Y-7029145D02*
G01*
X8884665Y-7029145D01*
X8834881Y-7102043D02*
G01*
X8834881Y-6992823D01*
X8834881Y-7102043D02*
G01*
X8761984Y-6992823D01*
X8761984Y-7102043D02*
G01*
X8761984Y-6992823D01*
X8686291Y-7102043D02*
G01*
X8727693Y-6992823D01*
X8686291Y-7102043D02*
G01*
X8644636Y-6992823D01*
X8712200Y-7029145D02*
G01*
X8660129Y-7029145D01*
X8610345Y-7039559D02*
G01*
X8516874Y-7039559D01*
X8430513Y-7102043D02*
G01*
X8430513Y-7018731D01*
X8435847Y-7003237D01*
X8440927Y-6998157D01*
X8451341Y-6992823D01*
X8461756Y-6992823D01*
X8472170Y-6998157D01*
X8477250Y-7003237D01*
X8482584Y-7018731D01*
X8482584Y-7029145D01*
X8354822Y-7102043D02*
G01*
X8396224Y-6992823D01*
X8354822Y-7102043D02*
G01*
X8313165Y-6992823D01*
X8380729Y-7029145D02*
G01*
X8328659Y-7029145D01*
X8200897Y-7075881D02*
G01*
X8206231Y-7086295D01*
X8216645Y-7096709D01*
X8227059Y-7102043D01*
X8247634Y-7102043D01*
X8258047Y-7096709D01*
X8268461Y-7086295D01*
X8273795Y-7075881D01*
X8278875Y-7060387D01*
X8278875Y-7034479D01*
X8273795Y-7018731D01*
X8268461Y-7008571D01*
X8258047Y-6998157D01*
X8247634Y-6992823D01*
X8227059Y-6992823D01*
X8216645Y-6998157D01*
X8206231Y-7008571D01*
X8200897Y-7018731D01*
X8166608Y-7102043D02*
G01*
X8166608Y-6992823D01*
X8093963Y-7102043D02*
G01*
X8166608Y-7029145D01*
X8140700Y-7055307D02*
G01*
X8093963Y-6992823D01*
X9283700Y-6924243D02*
G01*
X9283700Y-6846265D01*
X9278620Y-6830771D01*
X9268206Y-6820357D01*
X9252458Y-6815023D01*
X9242043Y-6815023D01*
X9226550Y-6820357D01*
X9216136Y-6830771D01*
X9211056Y-6846265D01*
X9211056Y-6924243D01*
X9150604Y-6924243D02*
G01*
X9166352Y-6918909D01*
X9171431Y-6908495D01*
X9171431Y-6898081D01*
X9166352Y-6887921D01*
X9155938Y-6882587D01*
X9135109Y-6877507D01*
X9119615Y-6872173D01*
X9109202Y-6861759D01*
X9103868Y-6851345D01*
X9103868Y-6835851D01*
X9109202Y-6825437D01*
X9114281Y-6820357D01*
X9130029Y-6815023D01*
X9150604Y-6815023D01*
X9166352Y-6820357D01*
X9171431Y-6825437D01*
X9176765Y-6835851D01*
X9176765Y-6851345D01*
X9171431Y-6861759D01*
X9161018Y-6872173D01*
X9145524Y-6877507D01*
X9124695Y-6882587D01*
X9114281Y-6887921D01*
X9109202Y-6898081D01*
X9109202Y-6908495D01*
X9114281Y-6918909D01*
X9130029Y-6924243D01*
X9150604Y-6924243D01*
X6565900Y-5641543D02*
G01*
X6565900Y-5532323D01*
X6565900Y-5641543D02*
G01*
X6519163Y-5641543D01*
X6503670Y-5636209D01*
X6498336Y-5631129D01*
X6493256Y-5620715D01*
X6493256Y-5610301D01*
X6498336Y-5599887D01*
X6503670Y-5594807D01*
X6519163Y-5589473D01*
X6565900Y-5589473D02*
G01*
X6519163Y-5589473D01*
X6503670Y-5584393D01*
X6498336Y-5579059D01*
X6493256Y-5568645D01*
X6493256Y-5553151D01*
X6498336Y-5542737D01*
X6503670Y-5537657D01*
X6519163Y-5532323D01*
X6565900Y-5532323D01*
X6417309Y-5641543D02*
G01*
X6458965Y-5532323D01*
X6417309Y-5641543D02*
G01*
X6375654Y-5532323D01*
X6443218Y-5568645D02*
G01*
X6391402Y-5568645D01*
X6341363Y-5641543D02*
G01*
X6341363Y-5532323D01*
X6341363Y-5641543D02*
G01*
X6268720Y-5532323D01*
X6268720Y-5641543D02*
G01*
X6268720Y-5532323D01*
X6192774Y-5641543D02*
G01*
X6234429Y-5532323D01*
X6192774Y-5641543D02*
G01*
X6151372Y-5532323D01*
X6218936Y-5568645D02*
G01*
X6166865Y-5568645D01*
X6117081Y-5641543D02*
G01*
X6117081Y-5532323D01*
X6117081Y-5641543D02*
G01*
X6044184Y-5532323D01*
X6044184Y-5641543D02*
G01*
X6044184Y-5532323D01*
X5968491Y-5641543D02*
G01*
X6009893Y-5532323D01*
X5968491Y-5641543D02*
G01*
X5926836Y-5532323D01*
X5994400Y-5568645D02*
G01*
X5942329Y-5568645D01*
X5892545Y-5579059D02*
G01*
X5799074Y-5579059D01*
X5712713Y-5641543D02*
G01*
X5712713Y-5558231D01*
X5718047Y-5542737D01*
X5723127Y-5537657D01*
X5733541Y-5532323D01*
X5743956Y-5532323D01*
X5754370Y-5537657D01*
X5759450Y-5542737D01*
X5764784Y-5558231D01*
X5764784Y-5568645D01*
X5637022Y-5641543D02*
G01*
X5678424Y-5532323D01*
X5637022Y-5641543D02*
G01*
X5595365Y-5532323D01*
X5662929Y-5568645D02*
G01*
X5610859Y-5568645D01*
X5483097Y-5615381D02*
G01*
X5488431Y-5625795D01*
X5498845Y-5636209D01*
X5509259Y-5641543D01*
X5529834Y-5641543D01*
X5540247Y-5636209D01*
X5550661Y-5625795D01*
X5555995Y-5615381D01*
X5561075Y-5599887D01*
X5561075Y-5573979D01*
X5555995Y-5558231D01*
X5550661Y-5548071D01*
X5540247Y-5537657D01*
X5529834Y-5532323D01*
X5509259Y-5532323D01*
X5498845Y-5537657D01*
X5488431Y-5548071D01*
X5483097Y-5558231D01*
X5448808Y-5641543D02*
G01*
X5448808Y-5532323D01*
X5376163Y-5641543D02*
G01*
X5448808Y-5568645D01*
X5422900Y-5594807D02*
G01*
X5376163Y-5532323D01*
X6578600Y-5576315D02*
G01*
X6578600Y-5498337D01*
X6573520Y-5482844D01*
X6563106Y-5472429D01*
X6547358Y-5467350D01*
X6536943Y-5467350D01*
X6521450Y-5472429D01*
X6511036Y-5482844D01*
X6505956Y-5498337D01*
X6505956Y-5576315D01*
X6404102Y-5539994D02*
G01*
X6409181Y-5524500D01*
X6419595Y-5514086D01*
X6435090Y-5508752D01*
X6440424Y-5508752D01*
X6455918Y-5514086D01*
X6466331Y-5524500D01*
X6471665Y-5539994D01*
X6471665Y-5545073D01*
X6466331Y-5560821D01*
X6455918Y-5571236D01*
X6440424Y-5576315D01*
X6435090Y-5576315D01*
X6419595Y-5571236D01*
X6409181Y-5560821D01*
X6404102Y-5539994D01*
X6404102Y-5514086D01*
X6409181Y-5487923D01*
X6419595Y-5472429D01*
X6435090Y-5467350D01*
X6445504Y-5467350D01*
X6461252Y-5472429D01*
X6466331Y-5482844D01*
X7959597Y-5603443D02*
G01*
X7959597Y-5494223D01*
X7959597Y-5603443D02*
G01*
X7912861Y-5603443D01*
X7897368Y-5598109D01*
X7892288Y-5593029D01*
X7886954Y-5582615D01*
X7886954Y-5572201D01*
X7892288Y-5561787D01*
X7897368Y-5556707D01*
X7912861Y-5551373D01*
X7959597Y-5551373D02*
G01*
X7912861Y-5551373D01*
X7897368Y-5546293D01*
X7892288Y-5540959D01*
X7886954Y-5530545D01*
X7886954Y-5515051D01*
X7892288Y-5504637D01*
X7897368Y-5499557D01*
X7912861Y-5494223D01*
X7959597Y-5494223D01*
X7811008Y-5603443D02*
G01*
X7852663Y-5494223D01*
X7811008Y-5603443D02*
G01*
X7769606Y-5494223D01*
X7837170Y-5530545D02*
G01*
X7785100Y-5530545D01*
X7735315Y-5603443D02*
G01*
X7735315Y-5494223D01*
X7735315Y-5603443D02*
G01*
X7662418Y-5494223D01*
X7662418Y-5603443D02*
G01*
X7662418Y-5494223D01*
X7586725Y-5603443D02*
G01*
X7628127Y-5494223D01*
X7586725Y-5603443D02*
G01*
X7545070Y-5494223D01*
X7612634Y-5530545D02*
G01*
X7560818Y-5530545D01*
X7510779Y-5603443D02*
G01*
X7510779Y-5494223D01*
X7510779Y-5603443D02*
G01*
X7438136Y-5494223D01*
X7438136Y-5603443D02*
G01*
X7438136Y-5494223D01*
X7362190Y-5603443D02*
G01*
X7403845Y-5494223D01*
X7362190Y-5603443D02*
G01*
X7320788Y-5494223D01*
X7388097Y-5530545D02*
G01*
X7336281Y-5530545D01*
X7286497Y-5540959D02*
G01*
X7192772Y-5540959D01*
X7106665Y-5603443D02*
G01*
X7106665Y-5520131D01*
X7111745Y-5504637D01*
X7117079Y-5499557D01*
X7127493Y-5494223D01*
X7137908Y-5494223D01*
X7148068Y-5499557D01*
X7153402Y-5504637D01*
X7158481Y-5520131D01*
X7158481Y-5530545D01*
X7030720Y-5603443D02*
G01*
X7072375Y-5494223D01*
X7030720Y-5603443D02*
G01*
X6989318Y-5494223D01*
X7056627Y-5530545D02*
G01*
X7004811Y-5530545D01*
X6877050Y-5577281D02*
G01*
X6882129Y-5587695D01*
X6892543Y-5598109D01*
X6902958Y-5603443D01*
X6923786Y-5603443D01*
X6934200Y-5598109D01*
X6944613Y-5587695D01*
X6949693Y-5577281D01*
X6955027Y-5561787D01*
X6955027Y-5535879D01*
X6949693Y-5520131D01*
X6944613Y-5509971D01*
X6934200Y-5499557D01*
X6923786Y-5494223D01*
X6902958Y-5494223D01*
X6892543Y-5499557D01*
X6882129Y-5509971D01*
X6877050Y-5520131D01*
X6842759Y-5603443D02*
G01*
X6842759Y-5494223D01*
X6769861Y-5603443D02*
G01*
X6842759Y-5530545D01*
X6816597Y-5556707D02*
G01*
X6769861Y-5494223D01*
X7984997Y-5550915D02*
G01*
X7984997Y-5472937D01*
X7979918Y-5457444D01*
X7969504Y-5447029D01*
X7954009Y-5441950D01*
X7943595Y-5441950D01*
X7927847Y-5447029D01*
X7917688Y-5457444D01*
X7912354Y-5472937D01*
X7912354Y-5550915D01*
X7878063Y-5530087D02*
G01*
X7867650Y-5535421D01*
X7852156Y-5550915D01*
X7852156Y-5441950D01*
X7786624Y-5550915D02*
G01*
X7802118Y-5545836D01*
X7812531Y-5530087D01*
X7817865Y-5504179D01*
X7817865Y-5488686D01*
X7812531Y-5462523D01*
X7802118Y-5447029D01*
X7786624Y-5441950D01*
X7776209Y-5441950D01*
X7760715Y-5447029D01*
X7750302Y-5462523D01*
X7744968Y-5488686D01*
X7744968Y-5504179D01*
X7750302Y-5530087D01*
X7760715Y-5545836D01*
X7776209Y-5550915D01*
X7786624Y-5550915D01*
X9283700Y-5603443D02*
G01*
X9283700Y-5494223D01*
X9283700Y-5603443D02*
G01*
X9236963Y-5603443D01*
X9221470Y-5598109D01*
X9216136Y-5593029D01*
X9211056Y-5582615D01*
X9211056Y-5572201D01*
X9216136Y-5561787D01*
X9221470Y-5556707D01*
X9236963Y-5551373D01*
X9283700Y-5551373D02*
G01*
X9236963Y-5551373D01*
X9221470Y-5546293D01*
X9216136Y-5540959D01*
X9211056Y-5530545D01*
X9211056Y-5515051D01*
X9216136Y-5504637D01*
X9221470Y-5499557D01*
X9236963Y-5494223D01*
X9283700Y-5494223D01*
X9135109Y-5603443D02*
G01*
X9176765Y-5494223D01*
X9135109Y-5603443D02*
G01*
X9093454Y-5494223D01*
X9161018Y-5530545D02*
G01*
X9109202Y-5530545D01*
X9059163Y-5603443D02*
G01*
X9059163Y-5494223D01*
X9059163Y-5603443D02*
G01*
X8986520Y-5494223D01*
X8986520Y-5603443D02*
G01*
X8986520Y-5494223D01*
X8910574Y-5603443D02*
G01*
X8952229Y-5494223D01*
X8910574Y-5603443D02*
G01*
X8869172Y-5494223D01*
X8936736Y-5530545D02*
G01*
X8884665Y-5530545D01*
X8834881Y-5603443D02*
G01*
X8834881Y-5494223D01*
X8834881Y-5603443D02*
G01*
X8761984Y-5494223D01*
X8761984Y-5603443D02*
G01*
X8761984Y-5494223D01*
X8686291Y-5603443D02*
G01*
X8727693Y-5494223D01*
X8686291Y-5603443D02*
G01*
X8644636Y-5494223D01*
X8712200Y-5530545D02*
G01*
X8660129Y-5530545D01*
X8610345Y-5540959D02*
G01*
X8516874Y-5540959D01*
X8430513Y-5603443D02*
G01*
X8430513Y-5520131D01*
X8435847Y-5504637D01*
X8440927Y-5499557D01*
X8451341Y-5494223D01*
X8461756Y-5494223D01*
X8472170Y-5499557D01*
X8477250Y-5504637D01*
X8482584Y-5520131D01*
X8482584Y-5530545D01*
X8354822Y-5603443D02*
G01*
X8396224Y-5494223D01*
X8354822Y-5603443D02*
G01*
X8313165Y-5494223D01*
X8380729Y-5530545D02*
G01*
X8328659Y-5530545D01*
X8200897Y-5577281D02*
G01*
X8206231Y-5587695D01*
X8216645Y-5598109D01*
X8227059Y-5603443D01*
X8247634Y-5603443D01*
X8258047Y-5598109D01*
X8268461Y-5587695D01*
X8273795Y-5577281D01*
X8278875Y-5561787D01*
X8278875Y-5535879D01*
X8273795Y-5520131D01*
X8268461Y-5509971D01*
X8258047Y-5499557D01*
X8247634Y-5494223D01*
X8227059Y-5494223D01*
X8216645Y-5499557D01*
X8206231Y-5509971D01*
X8200897Y-5520131D01*
X8166608Y-5603443D02*
G01*
X8166608Y-5494223D01*
X8093963Y-5603443D02*
G01*
X8166608Y-5530545D01*
X8140700Y-5556707D02*
G01*
X8093963Y-5494223D01*
X9283700Y-5538215D02*
G01*
X9283700Y-5460237D01*
X9278620Y-5444744D01*
X9268206Y-5434329D01*
X9252458Y-5429250D01*
X9242043Y-5429250D01*
X9226550Y-5434329D01*
X9216136Y-5444744D01*
X9211056Y-5460237D01*
X9211056Y-5538215D01*
X9176765Y-5517387D02*
G01*
X9166352Y-5522721D01*
X9150604Y-5538215D01*
X9150604Y-5429250D01*
X9116313Y-5517387D02*
G01*
X9105900Y-5522721D01*
X9090406Y-5538215D01*
X9090406Y-5429250D01*
X5815584Y-4610100D02*
G01*
X5924550Y-4610100D01*
X5815584Y-4537455D02*
G01*
X5888227Y-4610100D01*
X5862320Y-4584192D02*
G01*
X5924550Y-4537455D01*
X5815584Y-4503165D02*
G01*
X5924550Y-4503165D01*
X5815584Y-4430268D02*
G01*
X5924550Y-4430268D01*
X5867400Y-4503165D02*
G01*
X5867400Y-4430268D01*
X5877813Y-4395978D02*
G01*
X5877813Y-4302505D01*
X5815584Y-4268215D02*
G01*
X5924550Y-4268215D01*
X5815584Y-4268215D02*
G01*
X5815584Y-4221479D01*
X5820663Y-4205986D01*
X5825997Y-4200652D01*
X5836411Y-4195571D01*
X5851906Y-4195571D01*
X5862320Y-4200652D01*
X5867400Y-4205986D01*
X5872734Y-4221479D01*
X5872734Y-4268215D01*
X5815584Y-4161281D02*
G01*
X5924550Y-4161281D01*
X5815584Y-4088384D02*
G01*
X5924550Y-4088384D01*
X5867400Y-4161281D02*
G01*
X5867400Y-4088384D01*
X5877813Y-4054094D02*
G01*
X5877813Y-3960621D01*
X5841491Y-3921252D02*
G01*
X5836411Y-3921252D01*
X5825997Y-3915918D01*
X5820663Y-3910837D01*
X5815584Y-3900423D01*
X5815584Y-3879595D01*
X5820663Y-3869181D01*
X5825997Y-3864102D01*
X5836411Y-3858768D01*
X5846825Y-3858768D01*
X5857240Y-3864102D01*
X5872734Y-3874515D01*
X5924550Y-3926331D01*
X5924550Y-3853687D01*
X5815584Y-3819397D02*
G01*
X5924550Y-3819397D01*
X5815584Y-3819397D02*
G01*
X5815584Y-3772662D01*
X5820663Y-3756913D01*
X5825997Y-3751834D01*
X5836411Y-3746500D01*
X5851906Y-3746500D01*
X5862320Y-3751834D01*
X5867400Y-3756913D01*
X5872734Y-3772662D01*
X5872734Y-3819397D01*
X5877813Y-3712210D02*
G01*
X5877813Y-3618737D01*
X5815584Y-3511804D02*
G01*
X5924550Y-3584447D01*
X5815584Y-3584447D02*
G01*
X5815584Y-3511804D01*
X5924550Y-3584447D02*
G01*
X5924550Y-3511804D01*
X5663691Y-3260521D02*
G01*
X5653277Y-3265855D01*
X5642863Y-3276269D01*
X5637784Y-3286429D01*
X5637784Y-3307257D01*
X5642863Y-3317671D01*
X5653277Y-3328085D01*
X5663691Y-3333419D01*
X5679440Y-3338499D01*
X5705347Y-3338499D01*
X5720841Y-3333419D01*
X5731256Y-3328085D01*
X5741670Y-3317671D01*
X5746750Y-3307257D01*
X5746750Y-3286429D01*
X5741670Y-3276269D01*
X5731256Y-3265855D01*
X5720841Y-3260521D01*
X5637784Y-3226231D02*
G01*
X5746750Y-3226231D01*
X5637784Y-3226231D02*
G01*
X5746750Y-3153587D01*
X5637784Y-3153587D02*
G01*
X5746750Y-3153587D01*
X5658611Y-3119297D02*
G01*
X5653277Y-3108883D01*
X5637784Y-3093389D01*
X5746750Y-3093389D01*
X10648078Y-4735182D02*
G01*
X10637664Y-4740516D01*
X10627250Y-4750930D01*
X10622170Y-4761090D01*
X10622170Y-4781918D01*
X10627250Y-4792332D01*
X10637664Y-4802746D01*
X10648078Y-4808080D01*
X10663826Y-4813160D01*
X10689734Y-4813160D01*
X10705228Y-4808080D01*
X10715642Y-4802746D01*
X10726056Y-4792332D01*
X10731136Y-4781918D01*
X10731136Y-4761090D01*
X10726056Y-4750930D01*
X10715642Y-4740516D01*
X10705228Y-4735182D01*
X10622170Y-4659490D02*
G01*
X10731136Y-4700892D01*
X10622170Y-4659490D02*
G01*
X10731136Y-4617834D01*
X10694814Y-4685398D02*
G01*
X10694814Y-4633328D01*
X10622170Y-4583544D02*
G01*
X10731136Y-4583544D01*
X10622170Y-4583544D02*
G01*
X10622170Y-4536808D01*
X10627250Y-4521060D01*
X10632584Y-4515980D01*
X10642998Y-4510900D01*
X10658492Y-4510900D01*
X10668906Y-4515980D01*
X10673986Y-4521060D01*
X10679320Y-4536808D01*
X10679320Y-4583544D01*
X10622170Y-4434954D02*
G01*
X10731136Y-4476610D01*
X10622170Y-4434954D02*
G01*
X10731136Y-4393298D01*
X10694814Y-4460862D02*
G01*
X10694814Y-4409046D01*
X10648078Y-4281030D02*
G01*
X10637664Y-4286364D01*
X10627250Y-4296778D01*
X10622170Y-4307192D01*
X10622170Y-4328020D01*
X10627250Y-4338180D01*
X10637664Y-4348594D01*
X10648078Y-4353928D01*
X10663826Y-4359008D01*
X10689734Y-4359008D01*
X10705228Y-4353928D01*
X10715642Y-4348594D01*
X10726056Y-4338180D01*
X10731136Y-4328020D01*
X10731136Y-4307192D01*
X10726056Y-4296778D01*
X10715642Y-4286364D01*
X10705228Y-4281030D01*
X10622170Y-4246740D02*
G01*
X10731136Y-4246740D01*
X10622170Y-4176128D02*
G01*
X10731136Y-4176128D01*
X10622170Y-4212450D02*
G01*
X10622170Y-4139806D01*
X10622170Y-4074274D02*
G01*
X10627250Y-4084688D01*
X10637664Y-4095102D01*
X10648078Y-4100436D01*
X10663826Y-4105516D01*
X10689734Y-4105516D01*
X10705228Y-4100436D01*
X10715642Y-4095102D01*
X10726056Y-4084688D01*
X10731136Y-4074274D01*
X10731136Y-4053700D01*
X10726056Y-4043286D01*
X10715642Y-4032872D01*
X10705228Y-4027538D01*
X10689734Y-4022458D01*
X10663826Y-4022458D01*
X10648078Y-4027538D01*
X10637664Y-4032872D01*
X10627250Y-4043286D01*
X10622170Y-4053700D01*
X10622170Y-4074274D01*
X10622170Y-3988168D02*
G01*
X10731136Y-3988168D01*
X10622170Y-3988168D02*
G01*
X10622170Y-3941432D01*
X10627250Y-3925684D01*
X10632584Y-3920604D01*
X10642998Y-3915270D01*
X10653412Y-3915270D01*
X10663826Y-3920604D01*
X10668906Y-3925684D01*
X10673986Y-3941432D01*
X10673986Y-3988168D01*
X10673986Y-3951846D02*
G01*
X10731136Y-3915270D01*
X10684400Y-3800970D02*
G01*
X10684400Y-3707498D01*
X10622170Y-3562210D02*
G01*
X10627250Y-3577704D01*
X10642998Y-3588118D01*
X10668906Y-3593198D01*
X10684400Y-3593198D01*
X10710562Y-3588118D01*
X10726056Y-3577704D01*
X10731136Y-3562210D01*
X10731136Y-3551796D01*
X10726056Y-3536048D01*
X10710562Y-3525634D01*
X10684400Y-3520554D01*
X10668906Y-3520554D01*
X10642998Y-3525634D01*
X10627250Y-3536048D01*
X10622170Y-3551796D01*
X10622170Y-3562210D01*
X10622170Y-3460356D02*
G01*
X10627250Y-3475850D01*
X10637664Y-3480930D01*
X10648078Y-3480930D01*
X10658492Y-3475850D01*
X10663826Y-3465436D01*
X10668906Y-3444608D01*
X10673986Y-3429114D01*
X10684400Y-3418700D01*
X10694814Y-3413620D01*
X10710562Y-3413620D01*
X10720976Y-3418700D01*
X10726056Y-3423780D01*
X10731136Y-3439528D01*
X10731136Y-3460356D01*
X10726056Y-3475850D01*
X10720976Y-3480930D01*
X10710562Y-3486264D01*
X10694814Y-3486264D01*
X10684400Y-3480930D01*
X10673986Y-3470770D01*
X10668906Y-3455022D01*
X10663826Y-3434194D01*
X10658492Y-3423780D01*
X10648078Y-3418700D01*
X10637664Y-3418700D01*
X10627250Y-3423780D01*
X10622170Y-3439528D01*
X10622170Y-3460356D01*
X10622170Y-3348088D02*
G01*
X10627250Y-3363582D01*
X10642998Y-3373996D01*
X10668906Y-3379330D01*
X10684400Y-3379330D01*
X10710562Y-3373996D01*
X10726056Y-3363582D01*
X10731136Y-3348088D01*
X10731136Y-3337674D01*
X10726056Y-3322180D01*
X10710562Y-3311766D01*
X10684400Y-3306432D01*
X10668906Y-3306432D01*
X10642998Y-3311766D01*
X10627250Y-3322180D01*
X10622170Y-3337674D01*
X10622170Y-3348088D01*
X10622170Y-3209912D02*
G01*
X10622170Y-3261728D01*
X10668906Y-3267062D01*
X10663826Y-3261728D01*
X10658492Y-3246234D01*
X10658492Y-3230740D01*
X10663826Y-3214992D01*
X10673986Y-3204578D01*
X10689734Y-3199498D01*
X10700148Y-3199498D01*
X10715642Y-3204578D01*
X10726056Y-3214992D01*
X10731136Y-3230740D01*
X10731136Y-3246234D01*
X10726056Y-3261728D01*
X10720976Y-3267062D01*
X10710562Y-3272142D01*
X10825878Y-4735182D02*
G01*
X10815464Y-4740516D01*
X10805050Y-4750930D01*
X10799970Y-4761090D01*
X10799970Y-4781918D01*
X10805050Y-4792332D01*
X10815464Y-4802746D01*
X10825878Y-4808080D01*
X10841626Y-4813160D01*
X10867534Y-4813160D01*
X10883028Y-4808080D01*
X10893442Y-4802746D01*
X10903856Y-4792332D01*
X10908936Y-4781918D01*
X10908936Y-4761090D01*
X10903856Y-4750930D01*
X10893442Y-4740516D01*
X10883028Y-4735182D01*
X10820798Y-4700892D02*
G01*
X10815464Y-4690478D01*
X10799970Y-4674984D01*
X10908936Y-4674984D01*
X10660778Y-6284582D02*
G01*
X10650364Y-6289916D01*
X10639950Y-6300330D01*
X10634870Y-6310490D01*
X10634870Y-6331318D01*
X10639950Y-6341732D01*
X10650364Y-6352146D01*
X10660778Y-6357480D01*
X10676526Y-6362560D01*
X10702434Y-6362560D01*
X10717928Y-6357480D01*
X10728342Y-6352146D01*
X10738756Y-6341732D01*
X10743836Y-6331318D01*
X10743836Y-6310490D01*
X10738756Y-6300330D01*
X10728342Y-6289916D01*
X10717928Y-6284582D01*
X10634870Y-6208890D02*
G01*
X10743836Y-6250292D01*
X10634870Y-6208890D02*
G01*
X10743836Y-6167234D01*
X10707514Y-6234798D02*
G01*
X10707514Y-6182728D01*
X10634870Y-6132944D02*
G01*
X10743836Y-6132944D01*
X10634870Y-6132944D02*
G01*
X10634870Y-6086208D01*
X10639950Y-6070460D01*
X10645284Y-6065380D01*
X10655698Y-6060300D01*
X10671192Y-6060300D01*
X10681606Y-6065380D01*
X10686686Y-6070460D01*
X10692020Y-6086208D01*
X10692020Y-6132944D01*
X10634870Y-5984354D02*
G01*
X10743836Y-6026010D01*
X10634870Y-5984354D02*
G01*
X10743836Y-5942698D01*
X10707514Y-6010262D02*
G01*
X10707514Y-5958446D01*
X10660778Y-5830430D02*
G01*
X10650364Y-5835764D01*
X10639950Y-5846178D01*
X10634870Y-5856592D01*
X10634870Y-5877420D01*
X10639950Y-5887580D01*
X10650364Y-5897994D01*
X10660778Y-5903328D01*
X10676526Y-5908408D01*
X10702434Y-5908408D01*
X10717928Y-5903328D01*
X10728342Y-5897994D01*
X10738756Y-5887580D01*
X10743836Y-5877420D01*
X10743836Y-5856592D01*
X10738756Y-5846178D01*
X10728342Y-5835764D01*
X10717928Y-5830430D01*
X10634870Y-5796140D02*
G01*
X10743836Y-5796140D01*
X10634870Y-5725528D02*
G01*
X10743836Y-5725528D01*
X10634870Y-5761850D02*
G01*
X10634870Y-5689206D01*
X10634870Y-5623674D02*
G01*
X10639950Y-5634088D01*
X10650364Y-5644502D01*
X10660778Y-5649836D01*
X10676526Y-5654916D01*
X10702434Y-5654916D01*
X10717928Y-5649836D01*
X10728342Y-5644502D01*
X10738756Y-5634088D01*
X10743836Y-5623674D01*
X10743836Y-5603100D01*
X10738756Y-5592686D01*
X10728342Y-5582272D01*
X10717928Y-5576938D01*
X10702434Y-5571858D01*
X10676526Y-5571858D01*
X10660778Y-5576938D01*
X10650364Y-5582272D01*
X10639950Y-5592686D01*
X10634870Y-5603100D01*
X10634870Y-5623674D01*
X10634870Y-5537568D02*
G01*
X10743836Y-5537568D01*
X10634870Y-5537568D02*
G01*
X10634870Y-5490832D01*
X10639950Y-5475084D01*
X10645284Y-5470004D01*
X10655698Y-5464670D01*
X10666112Y-5464670D01*
X10676526Y-5470004D01*
X10681606Y-5475084D01*
X10686686Y-5490832D01*
X10686686Y-5537568D01*
X10686686Y-5501246D02*
G01*
X10743836Y-5464670D01*
X10697100Y-5350370D02*
G01*
X10697100Y-5256898D01*
X10634870Y-5111610D02*
G01*
X10639950Y-5127104D01*
X10655698Y-5137518D01*
X10681606Y-5142598D01*
X10697100Y-5142598D01*
X10723262Y-5137518D01*
X10738756Y-5127104D01*
X10743836Y-5111610D01*
X10743836Y-5101196D01*
X10738756Y-5085448D01*
X10723262Y-5075034D01*
X10697100Y-5069954D01*
X10681606Y-5069954D01*
X10655698Y-5075034D01*
X10639950Y-5085448D01*
X10634870Y-5101196D01*
X10634870Y-5111610D01*
X10634870Y-5009756D02*
G01*
X10639950Y-5025250D01*
X10650364Y-5030330D01*
X10660778Y-5030330D01*
X10671192Y-5025250D01*
X10676526Y-5014836D01*
X10681606Y-4994008D01*
X10686686Y-4978514D01*
X10697100Y-4968100D01*
X10707514Y-4963020D01*
X10723262Y-4963020D01*
X10733676Y-4968100D01*
X10738756Y-4973180D01*
X10743836Y-4988928D01*
X10743836Y-5009756D01*
X10738756Y-5025250D01*
X10733676Y-5030330D01*
X10723262Y-5035664D01*
X10707514Y-5035664D01*
X10697100Y-5030330D01*
X10686686Y-5020170D01*
X10681606Y-5004422D01*
X10676526Y-4983594D01*
X10671192Y-4973180D01*
X10660778Y-4968100D01*
X10650364Y-4968100D01*
X10639950Y-4973180D01*
X10634870Y-4988928D01*
X10634870Y-5009756D01*
X10634870Y-4897488D02*
G01*
X10639950Y-4912982D01*
X10655698Y-4923396D01*
X10681606Y-4928730D01*
X10697100Y-4928730D01*
X10723262Y-4923396D01*
X10738756Y-4912982D01*
X10743836Y-4897488D01*
X10743836Y-4887074D01*
X10738756Y-4871580D01*
X10723262Y-4861166D01*
X10697100Y-4855832D01*
X10681606Y-4855832D01*
X10655698Y-4861166D01*
X10639950Y-4871580D01*
X10634870Y-4887074D01*
X10634870Y-4897488D01*
X10634870Y-4759312D02*
G01*
X10634870Y-4811128D01*
X10681606Y-4816462D01*
X10676526Y-4811128D01*
X10671192Y-4795634D01*
X10671192Y-4780140D01*
X10676526Y-4764392D01*
X10686686Y-4753978D01*
X10702434Y-4748898D01*
X10712848Y-4748898D01*
X10728342Y-4753978D01*
X10738756Y-4764392D01*
X10743836Y-4780140D01*
X10743836Y-4795634D01*
X10738756Y-4811128D01*
X10733676Y-4816462D01*
X10723262Y-4821542D01*
X10838578Y-6284582D02*
G01*
X10828164Y-6289916D01*
X10817750Y-6300330D01*
X10812670Y-6310490D01*
X10812670Y-6331318D01*
X10817750Y-6341732D01*
X10828164Y-6352146D01*
X10838578Y-6357480D01*
X10854326Y-6362560D01*
X10880234Y-6362560D01*
X10895728Y-6357480D01*
X10906142Y-6352146D01*
X10916556Y-6341732D01*
X10921636Y-6331318D01*
X10921636Y-6310490D01*
X10916556Y-6300330D01*
X10906142Y-6289916D01*
X10895728Y-6284582D01*
X10838578Y-6245212D02*
G01*
X10833498Y-6245212D01*
X10823084Y-6239878D01*
X10817750Y-6234798D01*
X10812670Y-6224384D01*
X10812670Y-6203556D01*
X10817750Y-6193142D01*
X10823084Y-6188062D01*
X10833498Y-6182728D01*
X10843912Y-6182728D01*
X10854326Y-6188062D01*
X10869820Y-6198476D01*
X10921636Y-6250292D01*
X10921636Y-6177648D01*
X10673478Y-7808582D02*
G01*
X10663064Y-7813916D01*
X10652650Y-7824330D01*
X10647570Y-7834490D01*
X10647570Y-7855318D01*
X10652650Y-7865732D01*
X10663064Y-7876146D01*
X10673478Y-7881480D01*
X10689226Y-7886560D01*
X10715134Y-7886560D01*
X10730628Y-7881480D01*
X10741042Y-7876146D01*
X10751456Y-7865732D01*
X10756536Y-7855318D01*
X10756536Y-7834490D01*
X10751456Y-7824330D01*
X10741042Y-7813916D01*
X10730628Y-7808582D01*
X10647570Y-7732890D02*
G01*
X10756536Y-7774292D01*
X10647570Y-7732890D02*
G01*
X10756536Y-7691234D01*
X10720214Y-7758798D02*
G01*
X10720214Y-7706728D01*
X10647570Y-7656944D02*
G01*
X10756536Y-7656944D01*
X10647570Y-7656944D02*
G01*
X10647570Y-7610208D01*
X10652650Y-7594460D01*
X10657984Y-7589380D01*
X10668398Y-7584300D01*
X10683892Y-7584300D01*
X10694306Y-7589380D01*
X10699386Y-7594460D01*
X10704720Y-7610208D01*
X10704720Y-7656944D01*
X10647570Y-7508354D02*
G01*
X10756536Y-7550010D01*
X10647570Y-7508354D02*
G01*
X10756536Y-7466698D01*
X10720214Y-7534262D02*
G01*
X10720214Y-7482446D01*
X10673478Y-7354430D02*
G01*
X10663064Y-7359764D01*
X10652650Y-7370178D01*
X10647570Y-7380592D01*
X10647570Y-7401420D01*
X10652650Y-7411580D01*
X10663064Y-7421994D01*
X10673478Y-7427328D01*
X10689226Y-7432408D01*
X10715134Y-7432408D01*
X10730628Y-7427328D01*
X10741042Y-7421994D01*
X10751456Y-7411580D01*
X10756536Y-7401420D01*
X10756536Y-7380592D01*
X10751456Y-7370178D01*
X10741042Y-7359764D01*
X10730628Y-7354430D01*
X10647570Y-7320140D02*
G01*
X10756536Y-7320140D01*
X10647570Y-7249528D02*
G01*
X10756536Y-7249528D01*
X10647570Y-7285850D02*
G01*
X10647570Y-7213206D01*
X10647570Y-7147674D02*
G01*
X10652650Y-7158088D01*
X10663064Y-7168502D01*
X10673478Y-7173836D01*
X10689226Y-7178916D01*
X10715134Y-7178916D01*
X10730628Y-7173836D01*
X10741042Y-7168502D01*
X10751456Y-7158088D01*
X10756536Y-7147674D01*
X10756536Y-7127100D01*
X10751456Y-7116686D01*
X10741042Y-7106272D01*
X10730628Y-7100938D01*
X10715134Y-7095858D01*
X10689226Y-7095858D01*
X10673478Y-7100938D01*
X10663064Y-7106272D01*
X10652650Y-7116686D01*
X10647570Y-7127100D01*
X10647570Y-7147674D01*
X10647570Y-7061568D02*
G01*
X10756536Y-7061568D01*
X10647570Y-7061568D02*
G01*
X10647570Y-7014832D01*
X10652650Y-6999084D01*
X10657984Y-6994004D01*
X10668398Y-6988670D01*
X10678812Y-6988670D01*
X10689226Y-6994004D01*
X10694306Y-6999084D01*
X10699386Y-7014832D01*
X10699386Y-7061568D01*
X10699386Y-7025246D02*
G01*
X10756536Y-6988670D01*
X10709800Y-6874370D02*
G01*
X10709800Y-6780898D01*
X10647570Y-6635610D02*
G01*
X10652650Y-6651104D01*
X10668398Y-6661518D01*
X10694306Y-6666598D01*
X10709800Y-6666598D01*
X10735962Y-6661518D01*
X10751456Y-6651104D01*
X10756536Y-6635610D01*
X10756536Y-6625196D01*
X10751456Y-6609448D01*
X10735962Y-6599034D01*
X10709800Y-6593954D01*
X10694306Y-6593954D01*
X10668398Y-6599034D01*
X10652650Y-6609448D01*
X10647570Y-6625196D01*
X10647570Y-6635610D01*
X10647570Y-6533756D02*
G01*
X10652650Y-6549250D01*
X10663064Y-6554330D01*
X10673478Y-6554330D01*
X10683892Y-6549250D01*
X10689226Y-6538836D01*
X10694306Y-6518008D01*
X10699386Y-6502514D01*
X10709800Y-6492100D01*
X10720214Y-6487020D01*
X10735962Y-6487020D01*
X10746376Y-6492100D01*
X10751456Y-6497180D01*
X10756536Y-6512928D01*
X10756536Y-6533756D01*
X10751456Y-6549250D01*
X10746376Y-6554330D01*
X10735962Y-6559664D01*
X10720214Y-6559664D01*
X10709800Y-6554330D01*
X10699386Y-6544170D01*
X10694306Y-6528422D01*
X10689226Y-6507594D01*
X10683892Y-6497180D01*
X10673478Y-6492100D01*
X10663064Y-6492100D01*
X10652650Y-6497180D01*
X10647570Y-6512928D01*
X10647570Y-6533756D01*
X10647570Y-6421488D02*
G01*
X10652650Y-6436982D01*
X10668398Y-6447396D01*
X10694306Y-6452730D01*
X10709800Y-6452730D01*
X10735962Y-6447396D01*
X10751456Y-6436982D01*
X10756536Y-6421488D01*
X10756536Y-6411074D01*
X10751456Y-6395580D01*
X10735962Y-6385166D01*
X10709800Y-6379832D01*
X10694306Y-6379832D01*
X10668398Y-6385166D01*
X10652650Y-6395580D01*
X10647570Y-6411074D01*
X10647570Y-6421488D01*
X10647570Y-6283312D02*
G01*
X10647570Y-6335128D01*
X10694306Y-6340462D01*
X10689226Y-6335128D01*
X10683892Y-6319634D01*
X10683892Y-6304140D01*
X10689226Y-6288392D01*
X10699386Y-6277978D01*
X10715134Y-6272898D01*
X10725548Y-6272898D01*
X10741042Y-6277978D01*
X10751456Y-6288392D01*
X10756536Y-6304140D01*
X10756536Y-6319634D01*
X10751456Y-6335128D01*
X10746376Y-6340462D01*
X10735962Y-6345542D01*
X10851278Y-7808582D02*
G01*
X10840864Y-7813916D01*
X10830450Y-7824330D01*
X10825370Y-7834490D01*
X10825370Y-7855318D01*
X10830450Y-7865732D01*
X10840864Y-7876146D01*
X10851278Y-7881480D01*
X10867026Y-7886560D01*
X10892934Y-7886560D01*
X10908428Y-7881480D01*
X10918842Y-7876146D01*
X10929256Y-7865732D01*
X10934336Y-7855318D01*
X10934336Y-7834490D01*
X10929256Y-7824330D01*
X10918842Y-7813916D01*
X10908428Y-7808582D01*
X10825370Y-7763878D02*
G01*
X10825370Y-7706728D01*
X10867026Y-7737970D01*
X10867026Y-7722476D01*
X10872106Y-7712062D01*
X10877186Y-7706728D01*
X10892934Y-7701648D01*
X10903348Y-7701648D01*
X10918842Y-7706728D01*
X10929256Y-7717142D01*
X10934336Y-7732890D01*
X10934336Y-7748384D01*
X10929256Y-7763878D01*
X10924176Y-7769212D01*
X10913762Y-7774292D01*
X11157501Y-4809464D02*
G01*
X11048535Y-4835372D01*
X11157501Y-4861534D02*
G01*
X11048535Y-4835372D01*
X11157501Y-4861534D02*
G01*
X11048535Y-4887442D01*
X11157501Y-4913350D02*
G01*
X11048535Y-4887442D01*
X11142007Y-5020284D02*
G01*
X11152421Y-5010124D01*
X11157501Y-4994376D01*
X11157501Y-4973548D01*
X11152421Y-4958054D01*
X11142007Y-4947640D01*
X11131593Y-4947640D01*
X11121179Y-4952974D01*
X11115845Y-4958054D01*
X11110765Y-4968468D01*
X11100351Y-4999710D01*
X11095271Y-5010124D01*
X11089937Y-5015204D01*
X11079523Y-5020284D01*
X11064029Y-5020284D01*
X11053615Y-5010124D01*
X11048535Y-4994376D01*
X11048535Y-4973548D01*
X11053615Y-4958054D01*
X11064029Y-4947640D01*
X11131593Y-5059908D02*
G01*
X11136673Y-5059908D01*
X11147087Y-5064988D01*
X11152421Y-5070322D01*
X11157501Y-5080736D01*
X11157501Y-5101564D01*
X11152421Y-5111724D01*
X11147087Y-5117058D01*
X11136673Y-5122138D01*
X11126259Y-5122138D01*
X11115845Y-5117058D01*
X11100351Y-5106644D01*
X11048535Y-5054574D01*
X11048535Y-5127472D01*
X11157501Y-5187670D02*
G01*
X11152421Y-5172176D01*
X11142007Y-5166842D01*
X11131593Y-5166842D01*
X11121179Y-5172176D01*
X11115845Y-5182590D01*
X11110765Y-5203164D01*
X11105685Y-5218912D01*
X11095271Y-5229326D01*
X11084857Y-5234406D01*
X11069109Y-5234406D01*
X11058695Y-5229326D01*
X11053615Y-5223992D01*
X11048535Y-5208498D01*
X11048535Y-5187670D01*
X11053615Y-5172176D01*
X11058695Y-5166842D01*
X11069109Y-5161762D01*
X11084857Y-5161762D01*
X11095271Y-5166842D01*
X11105685Y-5177256D01*
X11110765Y-5193004D01*
X11115845Y-5213578D01*
X11121179Y-5223992D01*
X11131593Y-5229326D01*
X11142007Y-5229326D01*
X11152421Y-5223992D01*
X11157501Y-5208498D01*
X11157501Y-5187670D01*
X11136673Y-5268696D02*
G01*
X11142007Y-5279110D01*
X11157501Y-5294604D01*
X11048535Y-5294604D01*
X11131593Y-5334228D02*
G01*
X11136673Y-5334228D01*
X11147087Y-5339308D01*
X11152421Y-5344642D01*
X11157501Y-5355056D01*
X11157501Y-5375884D01*
X11152421Y-5386044D01*
X11147087Y-5391378D01*
X11136673Y-5396458D01*
X11126259Y-5396458D01*
X11115845Y-5391378D01*
X11100351Y-5380964D01*
X11048535Y-5328894D01*
X11048535Y-5401792D01*
X11157501Y-5436082D02*
G01*
X11048535Y-5436082D01*
X11157501Y-5436082D02*
G01*
X11157501Y-5482818D01*
X11152421Y-5498312D01*
X11147087Y-5503646D01*
X11136673Y-5508726D01*
X11126259Y-5508726D01*
X11115845Y-5503646D01*
X11110765Y-5498312D01*
X11105685Y-5482818D01*
X11105685Y-5436082D02*
G01*
X11105685Y-5482818D01*
X11100351Y-5498312D01*
X11095271Y-5503646D01*
X11084857Y-5508726D01*
X11069109Y-5508726D01*
X11058695Y-5503646D01*
X11053615Y-5498312D01*
X11048535Y-5482818D01*
X11048535Y-5436082D01*
X11095271Y-5543016D02*
G01*
X11095271Y-5636488D01*
X11157501Y-5733262D02*
G01*
X11157501Y-5681192D01*
X11110765Y-5676112D01*
X11115845Y-5681192D01*
X11121179Y-5696940D01*
X11121179Y-5712434D01*
X11115845Y-5727928D01*
X11105685Y-5738342D01*
X11089937Y-5743676D01*
X11079523Y-5743676D01*
X11064029Y-5738342D01*
X11053615Y-5727928D01*
X11048535Y-5712434D01*
X11048535Y-5696940D01*
X11053615Y-5681192D01*
X11058695Y-5676112D01*
X11069109Y-5670778D01*
X11157501Y-5808954D02*
G01*
X11152421Y-5793460D01*
X11136673Y-5783046D01*
X11110765Y-5777966D01*
X11095271Y-5777966D01*
X11069109Y-5783046D01*
X11053615Y-5793460D01*
X11048535Y-5808954D01*
X11048535Y-5819368D01*
X11053615Y-5835116D01*
X11069109Y-5845530D01*
X11095271Y-5850610D01*
X11110765Y-5850610D01*
X11136673Y-5845530D01*
X11152421Y-5835116D01*
X11157501Y-5819368D01*
X11157501Y-5808954D01*
X11157501Y-5947384D02*
G01*
X11157501Y-5895314D01*
X11110765Y-5890234D01*
X11115845Y-5895314D01*
X11121179Y-5910808D01*
X11121179Y-5926556D01*
X11115845Y-5942050D01*
X11105685Y-5952464D01*
X11089937Y-5957544D01*
X11079523Y-5957544D01*
X11064029Y-5952464D01*
X11053615Y-5942050D01*
X11048535Y-5926556D01*
X11048535Y-5910808D01*
X11053615Y-5895314D01*
X11058695Y-5890234D01*
X11069109Y-5884900D01*
X11157501Y-6023076D02*
G01*
X11152421Y-6007582D01*
X11136673Y-5997168D01*
X11110765Y-5991834D01*
X11095271Y-5991834D01*
X11069109Y-5997168D01*
X11053615Y-6007582D01*
X11048535Y-6023076D01*
X11048535Y-6033490D01*
X11053615Y-6048984D01*
X11069109Y-6059398D01*
X11095271Y-6064732D01*
X11110765Y-6064732D01*
X11136673Y-6059398D01*
X11152421Y-6048984D01*
X11157501Y-6033490D01*
X11157501Y-6023076D01*
X11157501Y-6099022D02*
G01*
X11048535Y-6099022D01*
X11157501Y-6099022D02*
G01*
X11157501Y-6145758D01*
X11152421Y-6161252D01*
X11147087Y-6166586D01*
X11136673Y-6171666D01*
X11126259Y-6171666D01*
X11115845Y-6166586D01*
X11110765Y-6161252D01*
X11105685Y-6145758D01*
X11105685Y-6099022D01*
X11105685Y-6135344D02*
G01*
X11048535Y-6171666D01*
X11131593Y-6283934D02*
G01*
X11142007Y-6278854D01*
X11152421Y-6268440D01*
X11157501Y-6258026D01*
X11157501Y-6237198D01*
X11152421Y-6226784D01*
X11142007Y-6216370D01*
X11131593Y-6211290D01*
X11115845Y-6205956D01*
X11089937Y-6205956D01*
X11074443Y-6211290D01*
X11064029Y-6216370D01*
X11053615Y-6226784D01*
X11048535Y-6237198D01*
X11048535Y-6258026D01*
X11053615Y-6268440D01*
X11064029Y-6278854D01*
X11074443Y-6283934D01*
X11089937Y-6283934D01*
X11089937Y-6258026D02*
G01*
X11089937Y-6283934D01*
X11157501Y-6318224D02*
G01*
X11048535Y-6318224D01*
X11157501Y-6318224D02*
G01*
X11157501Y-6364960D01*
X11152421Y-6380454D01*
X11147087Y-6385788D01*
X11136673Y-6390868D01*
X11126259Y-6390868D01*
X11115845Y-6385788D01*
X11110765Y-6380454D01*
X11105685Y-6364960D01*
X11105685Y-6318224D02*
G01*
X11105685Y-6364960D01*
X11100351Y-6380454D01*
X11095271Y-6385788D01*
X11084857Y-6390868D01*
X11069109Y-6390868D01*
X11058695Y-6385788D01*
X11053615Y-6380454D01*
X11048535Y-6364960D01*
X11048535Y-6318224D01*
X10979701Y-4809464D02*
G01*
X10870735Y-4809464D01*
X10870735Y-4809464D02*
G01*
X10870735Y-4871694D01*
X10979701Y-4905984D02*
G01*
X10870735Y-4905984D01*
X10979701Y-4905984D02*
G01*
X10979701Y-4973548D01*
X10927885Y-4905984D02*
G01*
X10927885Y-4947640D01*
X10870735Y-4905984D02*
G01*
X10870735Y-4973548D01*
X10979701Y-5007838D02*
G01*
X10870735Y-5007838D01*
X10979701Y-5007838D02*
G01*
X10979701Y-5044414D01*
X10974621Y-5059908D01*
X10964207Y-5070322D01*
X10953793Y-5075402D01*
X10938045Y-5080736D01*
X10912137Y-5080736D01*
X10896643Y-5075402D01*
X10886229Y-5070322D01*
X10875815Y-5059908D01*
X10870735Y-5044414D01*
X10870735Y-5007838D01*
X10958873Y-5115026D02*
G01*
X10964207Y-5125440D01*
X10979701Y-5140934D01*
X10870735Y-5140934D01*
X11182901Y-6371564D02*
G01*
X11073935Y-6397472D01*
X11182901Y-6423634D02*
G01*
X11073935Y-6397472D01*
X11182901Y-6423634D02*
G01*
X11073935Y-6449542D01*
X11182901Y-6475450D02*
G01*
X11073935Y-6449542D01*
X11167407Y-6582384D02*
G01*
X11177821Y-6572224D01*
X11182901Y-6556476D01*
X11182901Y-6535648D01*
X11177821Y-6520154D01*
X11167407Y-6509740D01*
X11156993Y-6509740D01*
X11146579Y-6515074D01*
X11141245Y-6520154D01*
X11136165Y-6530568D01*
X11125751Y-6561810D01*
X11120671Y-6572224D01*
X11115337Y-6577304D01*
X11104923Y-6582384D01*
X11089429Y-6582384D01*
X11079015Y-6572224D01*
X11073935Y-6556476D01*
X11073935Y-6535648D01*
X11079015Y-6520154D01*
X11089429Y-6509740D01*
X11156993Y-6622008D02*
G01*
X11162073Y-6622008D01*
X11172487Y-6627088D01*
X11177821Y-6632422D01*
X11182901Y-6642836D01*
X11182901Y-6663664D01*
X11177821Y-6673824D01*
X11172487Y-6679158D01*
X11162073Y-6684238D01*
X11151659Y-6684238D01*
X11141245Y-6679158D01*
X11125751Y-6668744D01*
X11073935Y-6616674D01*
X11073935Y-6689572D01*
X11182901Y-6749770D02*
G01*
X11177821Y-6734276D01*
X11167407Y-6728942D01*
X11156993Y-6728942D01*
X11146579Y-6734276D01*
X11141245Y-6744690D01*
X11136165Y-6765264D01*
X11131085Y-6781012D01*
X11120671Y-6791426D01*
X11110257Y-6796506D01*
X11094509Y-6796506D01*
X11084095Y-6791426D01*
X11079015Y-6786092D01*
X11073935Y-6770598D01*
X11073935Y-6749770D01*
X11079015Y-6734276D01*
X11084095Y-6728942D01*
X11094509Y-6723862D01*
X11110257Y-6723862D01*
X11120671Y-6728942D01*
X11131085Y-6739356D01*
X11136165Y-6755104D01*
X11141245Y-6775678D01*
X11146579Y-6786092D01*
X11156993Y-6791426D01*
X11167407Y-6791426D01*
X11177821Y-6786092D01*
X11182901Y-6770598D01*
X11182901Y-6749770D01*
X11162073Y-6830796D02*
G01*
X11167407Y-6841210D01*
X11182901Y-6856704D01*
X11073935Y-6856704D01*
X11156993Y-6896328D02*
G01*
X11162073Y-6896328D01*
X11172487Y-6901408D01*
X11177821Y-6906742D01*
X11182901Y-6917156D01*
X11182901Y-6937984D01*
X11177821Y-6948144D01*
X11172487Y-6953478D01*
X11162073Y-6958558D01*
X11151659Y-6958558D01*
X11141245Y-6953478D01*
X11125751Y-6943064D01*
X11073935Y-6890994D01*
X11073935Y-6963892D01*
X11182901Y-6998182D02*
G01*
X11073935Y-6998182D01*
X11182901Y-6998182D02*
G01*
X11182901Y-7044918D01*
X11177821Y-7060412D01*
X11172487Y-7065746D01*
X11162073Y-7070826D01*
X11151659Y-7070826D01*
X11141245Y-7065746D01*
X11136165Y-7060412D01*
X11131085Y-7044918D01*
X11131085Y-6998182D02*
G01*
X11131085Y-7044918D01*
X11125751Y-7060412D01*
X11120671Y-7065746D01*
X11110257Y-7070826D01*
X11094509Y-7070826D01*
X11084095Y-7065746D01*
X11079015Y-7060412D01*
X11073935Y-7044918D01*
X11073935Y-6998182D01*
X11120671Y-7105116D02*
G01*
X11120671Y-7198588D01*
X11182901Y-7295362D02*
G01*
X11182901Y-7243292D01*
X11136165Y-7238212D01*
X11141245Y-7243292D01*
X11146579Y-7259040D01*
X11146579Y-7274534D01*
X11141245Y-7290028D01*
X11131085Y-7300442D01*
X11115337Y-7305776D01*
X11104923Y-7305776D01*
X11089429Y-7300442D01*
X11079015Y-7290028D01*
X11073935Y-7274534D01*
X11073935Y-7259040D01*
X11079015Y-7243292D01*
X11084095Y-7238212D01*
X11094509Y-7232878D01*
X11182901Y-7371054D02*
G01*
X11177821Y-7355560D01*
X11162073Y-7345146D01*
X11136165Y-7340066D01*
X11120671Y-7340066D01*
X11094509Y-7345146D01*
X11079015Y-7355560D01*
X11073935Y-7371054D01*
X11073935Y-7381468D01*
X11079015Y-7397216D01*
X11094509Y-7407630D01*
X11120671Y-7412710D01*
X11136165Y-7412710D01*
X11162073Y-7407630D01*
X11177821Y-7397216D01*
X11182901Y-7381468D01*
X11182901Y-7371054D01*
X11182901Y-7509484D02*
G01*
X11182901Y-7457414D01*
X11136165Y-7452334D01*
X11141245Y-7457414D01*
X11146579Y-7472908D01*
X11146579Y-7488656D01*
X11141245Y-7504150D01*
X11131085Y-7514564D01*
X11115337Y-7519644D01*
X11104923Y-7519644D01*
X11089429Y-7514564D01*
X11079015Y-7504150D01*
X11073935Y-7488656D01*
X11073935Y-7472908D01*
X11079015Y-7457414D01*
X11084095Y-7452334D01*
X11094509Y-7447000D01*
X11182901Y-7585176D02*
G01*
X11177821Y-7569682D01*
X11162073Y-7559268D01*
X11136165Y-7553934D01*
X11120671Y-7553934D01*
X11094509Y-7559268D01*
X11079015Y-7569682D01*
X11073935Y-7585176D01*
X11073935Y-7595590D01*
X11079015Y-7611084D01*
X11094509Y-7621498D01*
X11120671Y-7626832D01*
X11136165Y-7626832D01*
X11162073Y-7621498D01*
X11177821Y-7611084D01*
X11182901Y-7595590D01*
X11182901Y-7585176D01*
X11182901Y-7661122D02*
G01*
X11073935Y-7661122D01*
X11182901Y-7661122D02*
G01*
X11182901Y-7707858D01*
X11177821Y-7723352D01*
X11172487Y-7728686D01*
X11162073Y-7733766D01*
X11151659Y-7733766D01*
X11141245Y-7728686D01*
X11136165Y-7723352D01*
X11131085Y-7707858D01*
X11131085Y-7661122D01*
X11131085Y-7697444D02*
G01*
X11073935Y-7733766D01*
X11156993Y-7846034D02*
G01*
X11167407Y-7840954D01*
X11177821Y-7830540D01*
X11182901Y-7820126D01*
X11182901Y-7799298D01*
X11177821Y-7788884D01*
X11167407Y-7778470D01*
X11156993Y-7773390D01*
X11141245Y-7768056D01*
X11115337Y-7768056D01*
X11099843Y-7773390D01*
X11089429Y-7778470D01*
X11079015Y-7788884D01*
X11073935Y-7799298D01*
X11073935Y-7820126D01*
X11079015Y-7830540D01*
X11089429Y-7840954D01*
X11099843Y-7846034D01*
X11115337Y-7846034D01*
X11115337Y-7820126D02*
G01*
X11115337Y-7846034D01*
X11182901Y-7880324D02*
G01*
X11073935Y-7880324D01*
X11182901Y-7880324D02*
G01*
X11182901Y-7927060D01*
X11177821Y-7942554D01*
X11172487Y-7947888D01*
X11162073Y-7952968D01*
X11151659Y-7952968D01*
X11141245Y-7947888D01*
X11136165Y-7942554D01*
X11131085Y-7927060D01*
X11131085Y-7880324D02*
G01*
X11131085Y-7927060D01*
X11125751Y-7942554D01*
X11120671Y-7947888D01*
X11110257Y-7952968D01*
X11094509Y-7952968D01*
X11084095Y-7947888D01*
X11079015Y-7942554D01*
X11073935Y-7927060D01*
X11073935Y-7880324D01*
X11005101Y-6371564D02*
G01*
X10896135Y-6371564D01*
X10896135Y-6371564D02*
G01*
X10896135Y-6433794D01*
X11005101Y-6468084D02*
G01*
X10896135Y-6468084D01*
X11005101Y-6468084D02*
G01*
X11005101Y-6535648D01*
X10953285Y-6468084D02*
G01*
X10953285Y-6509740D01*
X10896135Y-6468084D02*
G01*
X10896135Y-6535648D01*
X11005101Y-6569938D02*
G01*
X10896135Y-6569938D01*
X11005101Y-6569938D02*
G01*
X11005101Y-6606514D01*
X11000021Y-6622008D01*
X10989607Y-6632422D01*
X10979193Y-6637502D01*
X10963445Y-6642836D01*
X10937537Y-6642836D01*
X10922043Y-6637502D01*
X10911629Y-6632422D01*
X10901215Y-6622008D01*
X10896135Y-6606514D01*
X10896135Y-6569938D01*
X10979193Y-6682206D02*
G01*
X10984273Y-6682206D01*
X10994687Y-6687540D01*
X11000021Y-6692620D01*
X11005101Y-6703034D01*
X11005101Y-6723862D01*
X11000021Y-6734276D01*
X10994687Y-6739356D01*
X10984273Y-6744690D01*
X10973859Y-6744690D01*
X10963445Y-6739356D01*
X10947951Y-6728942D01*
X10896135Y-6677126D01*
X10896135Y-6749770D01*
X11221001Y-7870164D02*
G01*
X11112035Y-7896072D01*
X11221001Y-7922234D02*
G01*
X11112035Y-7896072D01*
X11221001Y-7922234D02*
G01*
X11112035Y-7948142D01*
X11221001Y-7974050D02*
G01*
X11112035Y-7948142D01*
X11205507Y-8080984D02*
G01*
X11215921Y-8070824D01*
X11221001Y-8055076D01*
X11221001Y-8034248D01*
X11215921Y-8018754D01*
X11205507Y-8008340D01*
X11195093Y-8008340D01*
X11184679Y-8013674D01*
X11179345Y-8018754D01*
X11174265Y-8029168D01*
X11163851Y-8060410D01*
X11158771Y-8070824D01*
X11153437Y-8075904D01*
X11143023Y-8080984D01*
X11127529Y-8080984D01*
X11117115Y-8070824D01*
X11112035Y-8055076D01*
X11112035Y-8034248D01*
X11117115Y-8018754D01*
X11127529Y-8008340D01*
X11195093Y-8120608D02*
G01*
X11200173Y-8120608D01*
X11210587Y-8125688D01*
X11215921Y-8131022D01*
X11221001Y-8141436D01*
X11221001Y-8162264D01*
X11215921Y-8172424D01*
X11210587Y-8177758D01*
X11200173Y-8182838D01*
X11189759Y-8182838D01*
X11179345Y-8177758D01*
X11163851Y-8167344D01*
X11112035Y-8115274D01*
X11112035Y-8188172D01*
X11221001Y-8248370D02*
G01*
X11215921Y-8232876D01*
X11205507Y-8227542D01*
X11195093Y-8227542D01*
X11184679Y-8232876D01*
X11179345Y-8243290D01*
X11174265Y-8263864D01*
X11169185Y-8279612D01*
X11158771Y-8290026D01*
X11148357Y-8295106D01*
X11132609Y-8295106D01*
X11122195Y-8290026D01*
X11117115Y-8284692D01*
X11112035Y-8269198D01*
X11112035Y-8248370D01*
X11117115Y-8232876D01*
X11122195Y-8227542D01*
X11132609Y-8222462D01*
X11148357Y-8222462D01*
X11158771Y-8227542D01*
X11169185Y-8237956D01*
X11174265Y-8253704D01*
X11179345Y-8274278D01*
X11184679Y-8284692D01*
X11195093Y-8290026D01*
X11205507Y-8290026D01*
X11215921Y-8284692D01*
X11221001Y-8269198D01*
X11221001Y-8248370D01*
X11200173Y-8329396D02*
G01*
X11205507Y-8339810D01*
X11221001Y-8355304D01*
X11112035Y-8355304D01*
X11195093Y-8394928D02*
G01*
X11200173Y-8394928D01*
X11210587Y-8400008D01*
X11215921Y-8405342D01*
X11221001Y-8415756D01*
X11221001Y-8436584D01*
X11215921Y-8446744D01*
X11210587Y-8452078D01*
X11200173Y-8457158D01*
X11189759Y-8457158D01*
X11179345Y-8452078D01*
X11163851Y-8441664D01*
X11112035Y-8389594D01*
X11112035Y-8462492D01*
X11221001Y-8496782D02*
G01*
X11112035Y-8496782D01*
X11221001Y-8496782D02*
G01*
X11221001Y-8543518D01*
X11215921Y-8559012D01*
X11210587Y-8564346D01*
X11200173Y-8569426D01*
X11189759Y-8569426D01*
X11179345Y-8564346D01*
X11174265Y-8559012D01*
X11169185Y-8543518D01*
X11169185Y-8496782D02*
G01*
X11169185Y-8543518D01*
X11163851Y-8559012D01*
X11158771Y-8564346D01*
X11148357Y-8569426D01*
X11132609Y-8569426D01*
X11122195Y-8564346D01*
X11117115Y-8559012D01*
X11112035Y-8543518D01*
X11112035Y-8496782D01*
X11158771Y-8603716D02*
G01*
X11158771Y-8697188D01*
X11221001Y-8793962D02*
G01*
X11221001Y-8741892D01*
X11174265Y-8736812D01*
X11179345Y-8741892D01*
X11184679Y-8757640D01*
X11184679Y-8773134D01*
X11179345Y-8788628D01*
X11169185Y-8799042D01*
X11153437Y-8804376D01*
X11143023Y-8804376D01*
X11127529Y-8799042D01*
X11117115Y-8788628D01*
X11112035Y-8773134D01*
X11112035Y-8757640D01*
X11117115Y-8741892D01*
X11122195Y-8736812D01*
X11132609Y-8731478D01*
X11221001Y-8869654D02*
G01*
X11215921Y-8854160D01*
X11200173Y-8843746D01*
X11174265Y-8838666D01*
X11158771Y-8838666D01*
X11132609Y-8843746D01*
X11117115Y-8854160D01*
X11112035Y-8869654D01*
X11112035Y-8880068D01*
X11117115Y-8895816D01*
X11132609Y-8906230D01*
X11158771Y-8911310D01*
X11174265Y-8911310D01*
X11200173Y-8906230D01*
X11215921Y-8895816D01*
X11221001Y-8880068D01*
X11221001Y-8869654D01*
X11221001Y-9008084D02*
G01*
X11221001Y-8956014D01*
X11174265Y-8950934D01*
X11179345Y-8956014D01*
X11184679Y-8971508D01*
X11184679Y-8987256D01*
X11179345Y-9002750D01*
X11169185Y-9013164D01*
X11153437Y-9018244D01*
X11143023Y-9018244D01*
X11127529Y-9013164D01*
X11117115Y-9002750D01*
X11112035Y-8987256D01*
X11112035Y-8971508D01*
X11117115Y-8956014D01*
X11122195Y-8950934D01*
X11132609Y-8945600D01*
X11221001Y-9083776D02*
G01*
X11215921Y-9068282D01*
X11200173Y-9057868D01*
X11174265Y-9052534D01*
X11158771Y-9052534D01*
X11132609Y-9057868D01*
X11117115Y-9068282D01*
X11112035Y-9083776D01*
X11112035Y-9094190D01*
X11117115Y-9109684D01*
X11132609Y-9120098D01*
X11158771Y-9125432D01*
X11174265Y-9125432D01*
X11200173Y-9120098D01*
X11215921Y-9109684D01*
X11221001Y-9094190D01*
X11221001Y-9083776D01*
X11221001Y-9159722D02*
G01*
X11112035Y-9159722D01*
X11221001Y-9159722D02*
G01*
X11221001Y-9206458D01*
X11215921Y-9221952D01*
X11210587Y-9227286D01*
X11200173Y-9232366D01*
X11189759Y-9232366D01*
X11179345Y-9227286D01*
X11174265Y-9221952D01*
X11169185Y-9206458D01*
X11169185Y-9159722D01*
X11169185Y-9196044D02*
G01*
X11112035Y-9232366D01*
X11195093Y-9344634D02*
G01*
X11205507Y-9339554D01*
X11215921Y-9329140D01*
X11221001Y-9318726D01*
X11221001Y-9297898D01*
X11215921Y-9287484D01*
X11205507Y-9277070D01*
X11195093Y-9271990D01*
X11179345Y-9266656D01*
X11153437Y-9266656D01*
X11137943Y-9271990D01*
X11127529Y-9277070D01*
X11117115Y-9287484D01*
X11112035Y-9297898D01*
X11112035Y-9318726D01*
X11117115Y-9329140D01*
X11127529Y-9339554D01*
X11137943Y-9344634D01*
X11153437Y-9344634D01*
X11153437Y-9318726D02*
G01*
X11153437Y-9344634D01*
X11221001Y-9378924D02*
G01*
X11112035Y-9378924D01*
X11221001Y-9378924D02*
G01*
X11221001Y-9425660D01*
X11215921Y-9441154D01*
X11210587Y-9446488D01*
X11200173Y-9451568D01*
X11189759Y-9451568D01*
X11179345Y-9446488D01*
X11174265Y-9441154D01*
X11169185Y-9425660D01*
X11169185Y-9378924D02*
G01*
X11169185Y-9425660D01*
X11163851Y-9441154D01*
X11158771Y-9446488D01*
X11148357Y-9451568D01*
X11132609Y-9451568D01*
X11122195Y-9446488D01*
X11117115Y-9441154D01*
X11112035Y-9425660D01*
X11112035Y-9378924D01*
X11043201Y-7870164D02*
G01*
X10934235Y-7870164D01*
X10934235Y-7870164D02*
G01*
X10934235Y-7932394D01*
X11043201Y-7966684D02*
G01*
X10934235Y-7966684D01*
X11043201Y-7966684D02*
G01*
X11043201Y-8034248D01*
X10991385Y-7966684D02*
G01*
X10991385Y-8008340D01*
X10934235Y-7966684D02*
G01*
X10934235Y-8034248D01*
X11043201Y-8068538D02*
G01*
X10934235Y-8068538D01*
X11043201Y-8068538D02*
G01*
X11043201Y-8105114D01*
X11038121Y-8120608D01*
X11027707Y-8131022D01*
X11017293Y-8136102D01*
X11001545Y-8141436D01*
X10975637Y-8141436D01*
X10960143Y-8136102D01*
X10949729Y-8131022D01*
X10939315Y-8120608D01*
X10934235Y-8105114D01*
X10934235Y-8068538D01*
X11043201Y-8186140D02*
G01*
X11043201Y-8243290D01*
X11001545Y-8212048D01*
X11001545Y-8227542D01*
X10996465Y-8237956D01*
X10991385Y-8243290D01*
X10975637Y-8248370D01*
X10965223Y-8248370D01*
X10949729Y-8243290D01*
X10939315Y-8232876D01*
X10934235Y-8217128D01*
X10934235Y-8201634D01*
X10939315Y-8186140D01*
X10944395Y-8180806D01*
X10954809Y-8175726D01*
X9224772Y-1154429D02*
G01*
X9235186Y-1149350D01*
X9240265Y-1133855D01*
X9240265Y-1123442D01*
X9235186Y-1107694D01*
X9219438Y-1097279D01*
X9193529Y-1092200D01*
X9167622Y-1092200D01*
X9146793Y-1097279D01*
X9136379Y-1107694D01*
X9131300Y-1123442D01*
X9131300Y-1128521D01*
X9136379Y-1144270D01*
X9146793Y-1154429D01*
X9162288Y-1159763D01*
X9167622Y-1159763D01*
X9183115Y-1154429D01*
X9193529Y-1144270D01*
X9198609Y-1128521D01*
X9198609Y-1123442D01*
X9193529Y-1107694D01*
X9183115Y-1097279D01*
X9167622Y-1092200D01*
X9209024Y-1219962D02*
G01*
X9146793Y-1219962D01*
X9193529Y-1194054D02*
G01*
X9162288Y-1245870D01*
X9193529Y-1245870D02*
G01*
X9162288Y-1194054D01*
X9224772Y-1342644D02*
G01*
X9235186Y-1337310D01*
X9240265Y-1321815D01*
X9240265Y-1311402D01*
X9235186Y-1295907D01*
X9219438Y-1285494D01*
X9193529Y-1280160D01*
X9167622Y-1280160D01*
X9146793Y-1285494D01*
X9136379Y-1295907D01*
X9131300Y-1311402D01*
X9131300Y-1316736D01*
X9136379Y-1332229D01*
X9146793Y-1342644D01*
X9162288Y-1347723D01*
X9167622Y-1347723D01*
X9183115Y-1342644D01*
X9193529Y-1332229D01*
X9198609Y-1316736D01*
X9198609Y-1311402D01*
X9193529Y-1295907D01*
X9183115Y-1285494D01*
X9167622Y-1280160D01*
X9209024Y-1408176D02*
G01*
X9146793Y-1408176D01*
X9193529Y-1382013D02*
G01*
X9162288Y-1434084D01*
X9193529Y-1434084D02*
G01*
X9162288Y-1382013D01*
X9240265Y-1541018D02*
G01*
X9131300Y-1489202D01*
X9240265Y-1468373D02*
G01*
X9240265Y-1541018D01*
X9062465Y-1092200D02*
G01*
X8953500Y-1092200D01*
X9062465Y-1164844D02*
G01*
X8989822Y-1092200D01*
X9015729Y-1118107D02*
G01*
X8953500Y-1164844D01*
X9062465Y-1199134D02*
G01*
X8953500Y-1199134D01*
X9062465Y-1199134D02*
G01*
X9062465Y-1266697D01*
X9010650Y-1199134D02*
G01*
X9010650Y-1240789D01*
X8953500Y-1199134D02*
G01*
X8953500Y-1266697D01*
X9062465Y-1300987D02*
G01*
X9010650Y-1342644D01*
X8953500Y-1342644D01*
X9062465Y-1384300D02*
G01*
X9010650Y-1342644D01*
X9041638Y-1418589D02*
G01*
X9046972Y-1428750D01*
X9062465Y-1444497D01*
X8953500Y-1444497D01*
X9224772Y-3072129D02*
G01*
X9235186Y-3067050D01*
X9240265Y-3051555D01*
X9240265Y-3041142D01*
X9235186Y-3025394D01*
X9219438Y-3014979D01*
X9193529Y-3009900D01*
X9167622Y-3009900D01*
X9146793Y-3014979D01*
X9136379Y-3025394D01*
X9131300Y-3041142D01*
X9131300Y-3046221D01*
X9136379Y-3061970D01*
X9146793Y-3072129D01*
X9162288Y-3077463D01*
X9167622Y-3077463D01*
X9183115Y-3072129D01*
X9193529Y-3061970D01*
X9198609Y-3046221D01*
X9198609Y-3041142D01*
X9193529Y-3025394D01*
X9183115Y-3014979D01*
X9167622Y-3009900D01*
X9209024Y-3137662D02*
G01*
X9146793Y-3137662D01*
X9193529Y-3111754D02*
G01*
X9162288Y-3163570D01*
X9193529Y-3163570D02*
G01*
X9162288Y-3111754D01*
X9224772Y-3260344D02*
G01*
X9235186Y-3255010D01*
X9240265Y-3239515D01*
X9240265Y-3229102D01*
X9235186Y-3213607D01*
X9219438Y-3203194D01*
X9193529Y-3197860D01*
X9167622Y-3197860D01*
X9146793Y-3203194D01*
X9136379Y-3213607D01*
X9131300Y-3229102D01*
X9131300Y-3234436D01*
X9136379Y-3249929D01*
X9146793Y-3260344D01*
X9162288Y-3265423D01*
X9167622Y-3265423D01*
X9183115Y-3260344D01*
X9193529Y-3249929D01*
X9198609Y-3234436D01*
X9198609Y-3229102D01*
X9193529Y-3213607D01*
X9183115Y-3203194D01*
X9167622Y-3197860D01*
X9209024Y-3325876D02*
G01*
X9146793Y-3325876D01*
X9193529Y-3299713D02*
G01*
X9162288Y-3351784D01*
X9193529Y-3351784D02*
G01*
X9162288Y-3299713D01*
X9240265Y-3458718D02*
G01*
X9131300Y-3406902D01*
X9240265Y-3386073D02*
G01*
X9240265Y-3458718D01*
X9062465Y-3009900D02*
G01*
X8953500Y-3009900D01*
X9062465Y-3082544D02*
G01*
X8989822Y-3009900D01*
X9015729Y-3035807D02*
G01*
X8953500Y-3082544D01*
X9062465Y-3116834D02*
G01*
X8953500Y-3116834D01*
X9062465Y-3116834D02*
G01*
X9062465Y-3184397D01*
X9010650Y-3116834D02*
G01*
X9010650Y-3158489D01*
X8953500Y-3116834D02*
G01*
X8953500Y-3184397D01*
X9062465Y-3218687D02*
G01*
X9010650Y-3260344D01*
X8953500Y-3260344D01*
X9062465Y-3302000D02*
G01*
X9010650Y-3260344D01*
X9036558Y-3341370D02*
G01*
X9041638Y-3341370D01*
X9052052Y-3346450D01*
X9057386Y-3351784D01*
X9062465Y-3362197D01*
X9062465Y-3383026D01*
X9057386Y-3393439D01*
X9052052Y-3398520D01*
X9041638Y-3403600D01*
X9031224Y-3403600D01*
X9020809Y-3398520D01*
X9005315Y-3388105D01*
X8953500Y-3336289D01*
X8953500Y-3408934D01*
X9224772Y-2119632D02*
G01*
X9235186Y-2114552D01*
X9240265Y-2099058D01*
X9240265Y-2088644D01*
X9235186Y-2072896D01*
X9219438Y-2062482D01*
X9193529Y-2057402D01*
X9167622Y-2057402D01*
X9146793Y-2062482D01*
X9136379Y-2072896D01*
X9131300Y-2088644D01*
X9131300Y-2093724D01*
X9136379Y-2109472D01*
X9146793Y-2119632D01*
X9162288Y-2124966D01*
X9167622Y-2124966D01*
X9183115Y-2119632D01*
X9193529Y-2109472D01*
X9198609Y-2093724D01*
X9198609Y-2088644D01*
X9193529Y-2072896D01*
X9183115Y-2062482D01*
X9167622Y-2057402D01*
X9209024Y-2185164D02*
G01*
X9146793Y-2185164D01*
X9193529Y-2159256D02*
G01*
X9162288Y-2211072D01*
X9193529Y-2211072D02*
G01*
X9162288Y-2159256D01*
X9224772Y-2307846D02*
G01*
X9235186Y-2302512D01*
X9240265Y-2287018D01*
X9240265Y-2276604D01*
X9235186Y-2261110D01*
X9219438Y-2250696D01*
X9193529Y-2245362D01*
X9167622Y-2245362D01*
X9146793Y-2250696D01*
X9136379Y-2261110D01*
X9131300Y-2276604D01*
X9131300Y-2281938D01*
X9136379Y-2297432D01*
X9146793Y-2307846D01*
X9162288Y-2312926D01*
X9167622Y-2312926D01*
X9183115Y-2307846D01*
X9193529Y-2297432D01*
X9198609Y-2281938D01*
X9198609Y-2276604D01*
X9193529Y-2261110D01*
X9183115Y-2250696D01*
X9167622Y-2245362D01*
X9209024Y-2373378D02*
G01*
X9146793Y-2373378D01*
X9193529Y-2347216D02*
G01*
X9162288Y-2399286D01*
X9193529Y-2399286D02*
G01*
X9162288Y-2347216D01*
X9240265Y-2506220D02*
G01*
X9131300Y-2454404D01*
X9240265Y-2433576D02*
G01*
X9240265Y-2506220D01*
X9062465Y-2057402D02*
G01*
X8953500Y-2057402D01*
X9062465Y-2130046D02*
G01*
X8989822Y-2057402D01*
X9015729Y-2083310D02*
G01*
X8953500Y-2130046D01*
X9062465Y-2164336D02*
G01*
X8953500Y-2164336D01*
X9062465Y-2164336D02*
G01*
X9062465Y-2231900D01*
X9010650Y-2164336D02*
G01*
X9010650Y-2205992D01*
X8953500Y-2164336D02*
G01*
X8953500Y-2231900D01*
X9062465Y-2266190D02*
G01*
X9010650Y-2307846D01*
X8953500Y-2307846D01*
X9062465Y-2349502D02*
G01*
X9010650Y-2307846D01*
X9062465Y-2393952D02*
G01*
X9062465Y-2451102D01*
X9020809Y-2420114D01*
X9020809Y-2435608D01*
X9015729Y-2446022D01*
X9010650Y-2451102D01*
X8994902Y-2456436D01*
X8984488Y-2456436D01*
X8968993Y-2451102D01*
X8958579Y-2440942D01*
X8953500Y-2425194D01*
X8953500Y-2409700D01*
X8958579Y-2393952D01*
X8963659Y-2388872D01*
X8974074Y-2383792D01*
X8790177Y-1995170D02*
G01*
X8779763Y-2000250D01*
X8774684Y-2015744D01*
X8774684Y-2026157D01*
X8779763Y-2041905D01*
X8795511Y-2052320D01*
X8821420Y-2057400D01*
X8847327Y-2057400D01*
X8868156Y-2052320D01*
X8878570Y-2041905D01*
X8883650Y-2026157D01*
X8883650Y-2021078D01*
X8878570Y-2005329D01*
X8868156Y-1995170D01*
X8852661Y-1989836D01*
X8847327Y-1989836D01*
X8831834Y-1995170D01*
X8821420Y-2005329D01*
X8816340Y-2021078D01*
X8816340Y-2026157D01*
X8821420Y-2041905D01*
X8831834Y-2052320D01*
X8847327Y-2057400D01*
X8805925Y-1929637D02*
G01*
X8868156Y-1929637D01*
X8821420Y-1955545D02*
G01*
X8852661Y-1903729D01*
X8821420Y-1903729D02*
G01*
X8852661Y-1955545D01*
X8790177Y-1806955D02*
G01*
X8779763Y-1812289D01*
X8774684Y-1827784D01*
X8774684Y-1838197D01*
X8779763Y-1853692D01*
X8795511Y-1864105D01*
X8821420Y-1869439D01*
X8847327Y-1869439D01*
X8868156Y-1864105D01*
X8878570Y-1853692D01*
X8883650Y-1838197D01*
X8883650Y-1832863D01*
X8878570Y-1817370D01*
X8868156Y-1806955D01*
X8852661Y-1801876D01*
X8847327Y-1801876D01*
X8831834Y-1806955D01*
X8821420Y-1817370D01*
X8816340Y-1832863D01*
X8816340Y-1838197D01*
X8821420Y-1853692D01*
X8831834Y-1864105D01*
X8847327Y-1869439D01*
X8805925Y-1741423D02*
G01*
X8868156Y-1741423D01*
X8821420Y-1767586D02*
G01*
X8852661Y-1715515D01*
X8821420Y-1715515D02*
G01*
X8852661Y-1767586D01*
X8774684Y-1608581D02*
G01*
X8883650Y-1660397D01*
X8774684Y-1681226D02*
G01*
X8774684Y-1608581D01*
X8952484Y-2057400D02*
G01*
X9061450Y-2057400D01*
X8952484Y-1984755D02*
G01*
X9025127Y-2057400D01*
X8999220Y-2031492D02*
G01*
X9061450Y-1984755D01*
X8952484Y-1950465D02*
G01*
X9061450Y-1950465D01*
X8952484Y-1950465D02*
G01*
X8952484Y-1882902D01*
X9004300Y-1950465D02*
G01*
X9004300Y-1908810D01*
X9061450Y-1950465D02*
G01*
X9061450Y-1882902D01*
X8952484Y-1848612D02*
G01*
X9004300Y-1806955D01*
X9061450Y-1806955D01*
X8952484Y-1765300D02*
G01*
X9004300Y-1806955D01*
X8952484Y-1679194D02*
G01*
X9025127Y-1731010D01*
X9025127Y-1653286D01*
X8952484Y-1679194D02*
G01*
X9061450Y-1679194D01*
X8392922Y-2119635D02*
G01*
X8403336Y-2114555D01*
X8408415Y-2099061D01*
X8408415Y-2088647D01*
X8403336Y-2072899D01*
X8387588Y-2062485D01*
X8361679Y-2057405D01*
X8335772Y-2057405D01*
X8314943Y-2062485D01*
X8304529Y-2072899D01*
X8299450Y-2088647D01*
X8299450Y-2093727D01*
X8304529Y-2109475D01*
X8314943Y-2119635D01*
X8330438Y-2124969D01*
X8335772Y-2124969D01*
X8351265Y-2119635D01*
X8361679Y-2109475D01*
X8366759Y-2093727D01*
X8366759Y-2088647D01*
X8361679Y-2072899D01*
X8351265Y-2062485D01*
X8335772Y-2057405D01*
X8377174Y-2185167D02*
G01*
X8314943Y-2185167D01*
X8361679Y-2159259D02*
G01*
X8330438Y-2211075D01*
X8361679Y-2211075D02*
G01*
X8330438Y-2159259D01*
X8392922Y-2307849D02*
G01*
X8403336Y-2302515D01*
X8408415Y-2287021D01*
X8408415Y-2276607D01*
X8403336Y-2261113D01*
X8387588Y-2250699D01*
X8361679Y-2245365D01*
X8335772Y-2245365D01*
X8314943Y-2250699D01*
X8304529Y-2261113D01*
X8299450Y-2276607D01*
X8299450Y-2281941D01*
X8304529Y-2297435D01*
X8314943Y-2307849D01*
X8330438Y-2312929D01*
X8335772Y-2312929D01*
X8351265Y-2307849D01*
X8361679Y-2297435D01*
X8366759Y-2281941D01*
X8366759Y-2276607D01*
X8361679Y-2261113D01*
X8351265Y-2250699D01*
X8335772Y-2245365D01*
X8377174Y-2373381D02*
G01*
X8314943Y-2373381D01*
X8361679Y-2347219D02*
G01*
X8330438Y-2399289D01*
X8361679Y-2399289D02*
G01*
X8330438Y-2347219D01*
X8408415Y-2506223D02*
G01*
X8299450Y-2454407D01*
X8408415Y-2433579D02*
G01*
X8408415Y-2506223D01*
X8230615Y-2057405D02*
G01*
X8121650Y-2057405D01*
X8230615Y-2130049D02*
G01*
X8157972Y-2057405D01*
X8183879Y-2083313D02*
G01*
X8121650Y-2130049D01*
X8230615Y-2164339D02*
G01*
X8121650Y-2164339D01*
X8230615Y-2164339D02*
G01*
X8230615Y-2231903D01*
X8178800Y-2164339D02*
G01*
X8178800Y-2205995D01*
X8121650Y-2164339D02*
G01*
X8121650Y-2231903D01*
X8230615Y-2266193D02*
G01*
X8178800Y-2307849D01*
X8121650Y-2307849D01*
X8230615Y-2349505D02*
G01*
X8178800Y-2307849D01*
X8230615Y-2446025D02*
G01*
X8230615Y-2393955D01*
X8183879Y-2388875D01*
X8188959Y-2393955D01*
X8194293Y-2409703D01*
X8194293Y-2425197D01*
X8188959Y-2440945D01*
X8178800Y-2451105D01*
X8163052Y-2456439D01*
X8152638Y-2456439D01*
X8137143Y-2451105D01*
X8126729Y-2440945D01*
X8121650Y-2425197D01*
X8121650Y-2409703D01*
X8126729Y-2393955D01*
X8131809Y-2388875D01*
X8142224Y-2383795D01*
X5671311Y1219200D02*
G01*
X5665977Y1229613D01*
X5650484Y1245107D01*
X5759450Y1245107D01*
X5733541Y1284731D02*
G01*
X5738875Y1279397D01*
X5743956Y1284731D01*
X5738875Y1289812D01*
X5733541Y1284731D01*
X5650484Y1350010D02*
G01*
X5655563Y1334515D01*
X5665977Y1329436D01*
X5676391Y1329436D01*
X5686806Y1334515D01*
X5692140Y1344929D01*
X5697220Y1365757D01*
X5702300Y1381252D01*
X5712713Y1391665D01*
X5723127Y1397000D01*
X5738875Y1397000D01*
X5749290Y1391665D01*
X5754370Y1386586D01*
X5759450Y1370837D01*
X5759450Y1350010D01*
X5754370Y1334515D01*
X5749290Y1329436D01*
X5738875Y1324102D01*
X5723127Y1324102D01*
X5712713Y1329436D01*
X5702300Y1339850D01*
X5697220Y1355344D01*
X5692140Y1376171D01*
X5686806Y1386586D01*
X5676391Y1391665D01*
X5665977Y1391665D01*
X5655563Y1386586D01*
X5650484Y1370837D01*
X5650484Y1350010D01*
X5650484Y1431289D02*
G01*
X5759450Y1431289D01*
X5650484Y1465579D02*
G01*
X5759450Y1465579D01*
X5650484Y1465579D02*
G01*
X5759450Y1538223D01*
X5650484Y1538223D02*
G01*
X5759450Y1538223D01*
X5676391Y1650492D02*
G01*
X5665977Y1645157D01*
X5655563Y1634744D01*
X5650484Y1624329D01*
X5650484Y1603755D01*
X5655563Y1593342D01*
X5665977Y1582928D01*
X5676391Y1577594D01*
X5692140Y1572513D01*
X5718047Y1572513D01*
X5733541Y1577594D01*
X5743956Y1582928D01*
X5754370Y1593342D01*
X5759450Y1603755D01*
X5759450Y1624329D01*
X5754370Y1634744D01*
X5743956Y1645157D01*
X5733541Y1650492D01*
X5650484Y1684781D02*
G01*
X5759450Y1684781D01*
X5650484Y1757426D02*
G01*
X5759450Y1757426D01*
X5702300Y1684781D02*
G01*
X5702300Y1757426D01*
X5650484Y1871726D02*
G01*
X5759450Y1871726D01*
X5759450Y1871726D02*
G01*
X5759450Y1934210D01*
X5676391Y2046223D02*
G01*
X5665977Y2041144D01*
X5655563Y2030729D01*
X5650484Y2020315D01*
X5650484Y1999487D01*
X5655563Y1989073D01*
X5665977Y1978660D01*
X5676391Y1973579D01*
X5692140Y1968500D01*
X5718047Y1968500D01*
X5733541Y1973579D01*
X5743956Y1978660D01*
X5754370Y1989073D01*
X5759450Y1999487D01*
X5759450Y2020315D01*
X5754370Y2030729D01*
X5743956Y2041144D01*
X5733541Y2046223D01*
X5650484Y2080513D02*
G01*
X5759450Y2080513D01*
X5650484Y2080513D02*
G01*
X5650484Y2117089D01*
X5655563Y2132584D01*
X5665977Y2142997D01*
X5676391Y2148078D01*
X5692140Y2153412D01*
X5718047Y2153412D01*
X5733541Y2148078D01*
X5743956Y2142997D01*
X5754370Y2132584D01*
X5759450Y2117089D01*
X5759450Y2080513D01*
X5650484Y2267712D02*
G01*
X5759450Y2267712D01*
X5650484Y2267712D02*
G01*
X5759450Y2309113D01*
X5650484Y2350770D02*
G01*
X5759450Y2309113D01*
X5650484Y2350770D02*
G01*
X5759450Y2350770D01*
X5650484Y2416302D02*
G01*
X5655563Y2405887D01*
X5665977Y2395473D01*
X5676391Y2390139D01*
X5692140Y2385060D01*
X5718047Y2385060D01*
X5733541Y2390139D01*
X5743956Y2395473D01*
X5754370Y2405887D01*
X5759450Y2416302D01*
X5759450Y2437129D01*
X5754370Y2447289D01*
X5743956Y2457704D01*
X5733541Y2463037D01*
X5718047Y2468118D01*
X5692140Y2468118D01*
X5676391Y2463037D01*
X5665977Y2457704D01*
X5655563Y2447289D01*
X5650484Y2437129D01*
X5650484Y2416302D01*
X5650484Y2502407D02*
G01*
X5759450Y2502407D01*
X5650484Y2502407D02*
G01*
X5650484Y2538729D01*
X5655563Y2554478D01*
X5665977Y2564892D01*
X5676391Y2569971D01*
X5692140Y2575305D01*
X5718047Y2575305D01*
X5733541Y2569971D01*
X5743956Y2564892D01*
X5754370Y2554478D01*
X5759450Y2538729D01*
X5759450Y2502407D01*
X5650484Y2609595D02*
G01*
X5728461Y2609595D01*
X5743956Y2614676D01*
X5754370Y2625089D01*
X5759450Y2640584D01*
X5759450Y2650997D01*
X5754370Y2666745D01*
X5743956Y2677160D01*
X5728461Y2682239D01*
X5650484Y2682239D01*
X5650484Y2716529D02*
G01*
X5759450Y2716529D01*
X5759450Y2716529D02*
G01*
X5759450Y2778760D01*
X5650484Y2813050D02*
G01*
X5759450Y2813050D01*
X5650484Y2813050D02*
G01*
X5650484Y2880613D01*
X5702300Y2813050D02*
G01*
X5702300Y2854705D01*
X5759450Y2813050D02*
G01*
X5759450Y2880613D01*
X5828284Y1219200D02*
G01*
X5937250Y1219200D01*
X5937250Y1219200D02*
G01*
X5937250Y1281429D01*
X5854191Y1393697D02*
G01*
X5843777Y1388618D01*
X5833363Y1378204D01*
X5828284Y1367789D01*
X5828284Y1346962D01*
X5833363Y1336547D01*
X5843777Y1326134D01*
X5854191Y1321054D01*
X5869940Y1315720D01*
X5895847Y1315720D01*
X5911341Y1321054D01*
X5921756Y1326134D01*
X5932170Y1336547D01*
X5937250Y1346962D01*
X5937250Y1367789D01*
X5932170Y1378204D01*
X5921756Y1388618D01*
X5911341Y1393697D01*
X5828284Y1427987D02*
G01*
X5937250Y1427987D01*
X5828284Y1427987D02*
G01*
X5828284Y1464310D01*
X5833363Y1480057D01*
X5843777Y1490471D01*
X5854191Y1495552D01*
X5869940Y1500886D01*
X5895847Y1500886D01*
X5911341Y1495552D01*
X5921756Y1490471D01*
X5932170Y1480057D01*
X5937250Y1464310D01*
X5937250Y1427987D01*
X5849111Y1535176D02*
G01*
X5843777Y1545589D01*
X5828284Y1561084D01*
X5937250Y1561084D01*
X10235184Y-3886200D02*
G01*
X10344150Y-3886200D01*
X10344150Y-3886200D02*
G01*
X10344150Y-3823970D01*
X10235184Y-3789679D02*
G01*
X10344150Y-3789679D01*
X10235184Y-3789679D02*
G01*
X10235184Y-3742689D01*
X10240263Y-3727195D01*
X10245597Y-3722115D01*
X10256011Y-3716781D01*
X10266425Y-3716781D01*
X10276840Y-3722115D01*
X10281920Y-3727195D01*
X10287000Y-3742689D01*
X10287000Y-3789679D02*
G01*
X10287000Y-3742689D01*
X10292334Y-3727195D01*
X10297413Y-3722115D01*
X10307827Y-3716781D01*
X10323575Y-3716781D01*
X10333990Y-3722115D01*
X10339070Y-3727195D01*
X10344150Y-3742689D01*
X10344150Y-3789679D01*
X10250677Y-3609847D02*
G01*
X10240263Y-3620262D01*
X10235184Y-3635755D01*
X10235184Y-3656584D01*
X10240263Y-3672078D01*
X10250677Y-3682492D01*
X10261091Y-3682492D01*
X10271506Y-3677412D01*
X10276840Y-3672078D01*
X10281920Y-3661663D01*
X10292334Y-3630676D01*
X10297413Y-3620262D01*
X10302747Y-3614928D01*
X10313161Y-3609847D01*
X10328656Y-3609847D01*
X10339070Y-3620262D01*
X10344150Y-3635755D01*
X10344150Y-3656584D01*
X10339070Y-3672078D01*
X10328656Y-3682492D01*
X10250677Y-3502660D02*
G01*
X10240263Y-3513073D01*
X10235184Y-3528821D01*
X10235184Y-3549650D01*
X10240263Y-3565144D01*
X10250677Y-3575557D01*
X10261091Y-3575557D01*
X10271506Y-3570223D01*
X10276840Y-3565144D01*
X10281920Y-3554729D01*
X10292334Y-3523487D01*
X10297413Y-3513073D01*
X10302747Y-3507994D01*
X10313161Y-3502660D01*
X10328656Y-3502660D01*
X10339070Y-3513073D01*
X10344150Y-3528821D01*
X10344150Y-3549650D01*
X10339070Y-3565144D01*
X10328656Y-3575557D01*
X10256011Y-3468370D02*
G01*
X10250677Y-3458210D01*
X10235184Y-3442462D01*
X10344150Y-3442462D01*
X10235184Y-3397757D02*
G01*
X10235184Y-3340607D01*
X10276840Y-3371850D01*
X10276840Y-3356355D01*
X10281920Y-3345942D01*
X10287000Y-3340607D01*
X10302747Y-3335528D01*
X10313161Y-3335528D01*
X10328656Y-3340607D01*
X10339070Y-3351021D01*
X10344150Y-3366770D01*
X10344150Y-3382263D01*
X10339070Y-3397757D01*
X10333990Y-3403092D01*
X10323575Y-3408171D01*
X10235184Y-3275329D02*
G01*
X10240263Y-3290823D01*
X10250677Y-3295904D01*
X10261091Y-3295904D01*
X10271506Y-3290823D01*
X10276840Y-3280410D01*
X10281920Y-3259581D01*
X10287000Y-3244087D01*
X10297413Y-3233673D01*
X10307827Y-3228339D01*
X10323575Y-3228339D01*
X10333990Y-3233673D01*
X10339070Y-3238754D01*
X10344150Y-3254502D01*
X10344150Y-3275329D01*
X10339070Y-3290823D01*
X10333990Y-3295904D01*
X10323575Y-3301237D01*
X10307827Y-3301237D01*
X10297413Y-3295904D01*
X10287000Y-3285489D01*
X10281920Y-3269995D01*
X10276840Y-3249168D01*
X10271506Y-3238754D01*
X10261091Y-3233673D01*
X10250677Y-3233673D01*
X10240263Y-3238754D01*
X10235184Y-3254502D01*
X10235184Y-3275329D01*
X10235184Y-3194050D02*
G01*
X10344150Y-3194050D01*
X10344150Y-3194050D02*
G01*
X10344150Y-3131820D01*
X10235184Y-3061207D02*
G01*
X10344150Y-3061207D01*
X10235184Y-3097529D02*
G01*
X10235184Y-3024886D01*
X10256011Y-2990595D02*
G01*
X10250677Y-2980181D01*
X10235184Y-2964434D01*
X10344150Y-2964434D01*
X10261091Y-2852420D02*
G01*
X10250677Y-2857500D01*
X10240263Y-2867913D01*
X10235184Y-2878328D01*
X10235184Y-2899155D01*
X10240263Y-2909570D01*
X10250677Y-2919729D01*
X10261091Y-2925063D01*
X10276840Y-2930144D01*
X10302747Y-2930144D01*
X10318241Y-2925063D01*
X10328656Y-2919729D01*
X10339070Y-2909570D01*
X10344150Y-2899155D01*
X10344150Y-2878328D01*
X10339070Y-2867913D01*
X10328656Y-2857500D01*
X10318241Y-2852420D01*
X10302747Y-2852420D01*
X10302747Y-2878328D02*
G01*
X10302747Y-2852420D01*
X10297413Y-2818129D02*
G01*
X10297413Y-2724404D01*
X10235184Y-2690113D02*
G01*
X10344150Y-2648712D01*
X10235184Y-2607055D02*
G01*
X10344150Y-2648712D01*
X10235184Y-2572765D02*
G01*
X10344150Y-2572765D01*
X10235184Y-2572765D02*
G01*
X10235184Y-2526029D01*
X10240263Y-2510536D01*
X10245597Y-2505202D01*
X10256011Y-2500121D01*
X10266425Y-2500121D01*
X10276840Y-2505202D01*
X10281920Y-2510536D01*
X10287000Y-2526029D01*
X10287000Y-2572765D02*
G01*
X10287000Y-2526029D01*
X10292334Y-2510536D01*
X10297413Y-2505202D01*
X10307827Y-2500121D01*
X10323575Y-2500121D01*
X10333990Y-2505202D01*
X10339070Y-2510536D01*
X10344150Y-2526029D01*
X10344150Y-2572765D01*
X10412984Y-3854957D02*
G01*
X10418063Y-3865371D01*
X10428477Y-3875786D01*
X10438891Y-3881120D01*
X10454640Y-3886200D01*
X10480547Y-3886200D01*
X10496041Y-3881120D01*
X10506456Y-3875786D01*
X10516870Y-3865371D01*
X10521950Y-3854957D01*
X10521950Y-3834129D01*
X10516870Y-3823970D01*
X10506456Y-3813555D01*
X10496041Y-3808221D01*
X10480547Y-3803142D01*
X10454640Y-3803142D01*
X10438891Y-3808221D01*
X10428477Y-3813555D01*
X10418063Y-3823970D01*
X10412984Y-3834129D01*
X10412984Y-3854957D01*
X10501375Y-3839463D02*
G01*
X10532363Y-3808221D01*
X10433811Y-3768852D02*
G01*
X10428477Y-3758437D01*
X10412984Y-3742689D01*
X10521950Y-3742689D01*
X9792715Y-9314942D02*
G01*
X9787636Y-9299194D01*
X9771888Y-9288779D01*
X9745979Y-9283700D01*
X9730486Y-9283700D01*
X9704324Y-9288779D01*
X9688829Y-9299194D01*
X9683750Y-9314942D01*
X9683750Y-9325355D01*
X9688829Y-9340850D01*
X9704324Y-9351263D01*
X9730486Y-9356344D01*
X9745979Y-9356344D01*
X9771888Y-9351263D01*
X9787636Y-9340850D01*
X9792715Y-9325355D01*
X9792715Y-9314942D01*
X9792715Y-9416795D02*
G01*
X9787636Y-9401047D01*
X9777222Y-9395968D01*
X9766808Y-9395968D01*
X9756393Y-9401047D01*
X9751059Y-9411462D01*
X9745979Y-9432289D01*
X9740900Y-9447784D01*
X9730486Y-9458197D01*
X9720072Y-9463531D01*
X9704324Y-9463531D01*
X9693909Y-9458197D01*
X9688829Y-9453118D01*
X9683750Y-9437370D01*
X9683750Y-9416795D01*
X9688829Y-9401047D01*
X9693909Y-9395968D01*
X9704324Y-9390634D01*
X9720072Y-9390634D01*
X9730486Y-9395968D01*
X9740900Y-9406381D01*
X9745979Y-9421876D01*
X9751059Y-9442704D01*
X9756393Y-9453118D01*
X9766808Y-9458197D01*
X9777222Y-9458197D01*
X9787636Y-9453118D01*
X9792715Y-9437370D01*
X9792715Y-9416795D01*
X9792715Y-9528810D02*
G01*
X9787636Y-9513315D01*
X9771888Y-9502902D01*
X9745979Y-9497821D01*
X9730486Y-9497821D01*
X9704324Y-9502902D01*
X9688829Y-9513315D01*
X9683750Y-9528810D01*
X9683750Y-9539224D01*
X9688829Y-9554971D01*
X9704324Y-9565386D01*
X9730486Y-9570465D01*
X9745979Y-9570465D01*
X9771888Y-9565386D01*
X9787636Y-9554971D01*
X9792715Y-9539224D01*
X9792715Y-9528810D01*
X9792715Y-9667239D02*
G01*
X9792715Y-9615170D01*
X9745979Y-9610089D01*
X9751059Y-9615170D01*
X9756393Y-9630663D01*
X9756393Y-9646412D01*
X9751059Y-9661905D01*
X9740900Y-9672320D01*
X9725152Y-9677400D01*
X9714738Y-9677400D01*
X9699243Y-9672320D01*
X9688829Y-9661905D01*
X9683750Y-9646412D01*
X9683750Y-9630663D01*
X9688829Y-9615170D01*
X9693909Y-9610089D01*
X9704324Y-9604755D01*
X9647174Y-9711689D02*
G01*
X9647174Y-9805415D01*
X9766808Y-9917429D02*
G01*
X9777222Y-9912350D01*
X9787636Y-9901936D01*
X9792715Y-9891521D01*
X9792715Y-9870694D01*
X9787636Y-9860279D01*
X9777222Y-9850120D01*
X9766808Y-9844786D01*
X9751059Y-9839705D01*
X9725152Y-9839705D01*
X9709658Y-9844786D01*
X9699243Y-9850120D01*
X9688829Y-9860279D01*
X9683750Y-9870694D01*
X9683750Y-9891521D01*
X9688829Y-9901936D01*
X9699243Y-9912350D01*
X9709658Y-9917429D01*
X9756393Y-10019284D02*
G01*
X9740900Y-10014204D01*
X9730486Y-10003789D01*
X9725152Y-9988295D01*
X9725152Y-9982962D01*
X9730486Y-9967468D01*
X9740900Y-9957054D01*
X9756393Y-9951720D01*
X9761474Y-9951720D01*
X9777222Y-9957054D01*
X9787636Y-9967468D01*
X9792715Y-9982962D01*
X9792715Y-9988295D01*
X9787636Y-10003789D01*
X9777222Y-10014204D01*
X9756393Y-10019284D01*
X9730486Y-10019284D01*
X9704324Y-10014204D01*
X9688829Y-10003789D01*
X9683750Y-9988295D01*
X9683750Y-9977881D01*
X9688829Y-9962134D01*
X9699243Y-9957054D01*
X9756393Y-10121137D02*
G01*
X9740900Y-10116058D01*
X9730486Y-10105644D01*
X9725152Y-10090150D01*
X9725152Y-10084815D01*
X9730486Y-10069321D01*
X9740900Y-10058908D01*
X9756393Y-10053574D01*
X9761474Y-10053574D01*
X9777222Y-10058908D01*
X9787636Y-10069321D01*
X9792715Y-10084815D01*
X9792715Y-10090150D01*
X9787636Y-10105644D01*
X9777222Y-10116058D01*
X9756393Y-10121137D01*
X9730486Y-10121137D01*
X9704324Y-10116058D01*
X9688829Y-10105644D01*
X9683750Y-10090150D01*
X9683750Y-10079736D01*
X9688829Y-10063987D01*
X9699243Y-10058908D01*
X9792715Y-10186670D02*
G01*
X9787636Y-10171176D01*
X9771888Y-10160762D01*
X9745979Y-10155428D01*
X9730486Y-10155428D01*
X9704324Y-10160762D01*
X9688829Y-10171176D01*
X9683750Y-10186670D01*
X9683750Y-10197084D01*
X9688829Y-10212578D01*
X9704324Y-10222992D01*
X9730486Y-10228326D01*
X9745979Y-10228326D01*
X9771888Y-10222992D01*
X9787636Y-10212578D01*
X9792715Y-10197084D01*
X9792715Y-10186670D01*
X9792715Y-10293604D02*
G01*
X9787636Y-10278110D01*
X9771888Y-10267695D01*
X9745979Y-10262615D01*
X9730486Y-10262615D01*
X9704324Y-10267695D01*
X9688829Y-10278110D01*
X9683750Y-10293604D01*
X9683750Y-10304018D01*
X9688829Y-10319765D01*
X9704324Y-10330179D01*
X9730486Y-10335260D01*
X9745979Y-10335260D01*
X9771888Y-10330179D01*
X9787636Y-10319765D01*
X9792715Y-10304018D01*
X9792715Y-10293604D01*
X9792715Y-10400792D02*
G01*
X9787636Y-10385044D01*
X9771888Y-10374629D01*
X9745979Y-10369550D01*
X9730486Y-10369550D01*
X9704324Y-10374629D01*
X9688829Y-10385044D01*
X9683750Y-10400792D01*
X9683750Y-10411205D01*
X9688829Y-10426700D01*
X9704324Y-10437113D01*
X9730486Y-10442194D01*
X9745979Y-10442194D01*
X9771888Y-10437113D01*
X9787636Y-10426700D01*
X9792715Y-10411205D01*
X9792715Y-10400792D01*
X9771888Y-10476484D02*
G01*
X9777222Y-10486897D01*
X9792715Y-10502645D01*
X9683750Y-10502645D01*
X9766808Y-10542015D02*
G01*
X9771888Y-10542015D01*
X9782302Y-10547350D01*
X9787636Y-10552429D01*
X9792715Y-10562844D01*
X9792715Y-10583671D01*
X9787636Y-10594086D01*
X9782302Y-10599165D01*
X9771888Y-10604500D01*
X9761474Y-10604500D01*
X9751059Y-10599165D01*
X9735565Y-10588752D01*
X9683750Y-10536936D01*
X9683750Y-10609579D01*
X9792715Y-10716513D02*
G01*
X9683750Y-10664697D01*
X9792715Y-10643870D02*
G01*
X9792715Y-10716513D01*
X9771888Y-10750804D02*
G01*
X9777222Y-10761218D01*
X9792715Y-10776965D01*
X9683750Y-10776965D01*
X9792715Y-10863071D02*
G01*
X9720072Y-10811255D01*
X9720072Y-10888979D01*
X9792715Y-10863071D02*
G01*
X9683750Y-10863071D01*
X9614915Y-9283700D02*
G01*
X9505950Y-9283700D01*
X9614915Y-9283700D02*
G01*
X9614915Y-9330436D01*
X9609836Y-9345929D01*
X9604502Y-9351263D01*
X9594088Y-9356344D01*
X9583674Y-9356344D01*
X9573259Y-9351263D01*
X9568179Y-9345929D01*
X9563100Y-9330436D01*
X9563100Y-9283700D01*
X9563100Y-9320021D02*
G01*
X9505950Y-9356344D01*
X9594088Y-9390634D02*
G01*
X9599422Y-9401047D01*
X9614915Y-9416795D01*
X9505950Y-9416795D01*
X10870689Y-3840731D02*
G01*
X10854941Y-3845811D01*
X10844527Y-3861559D01*
X10839447Y-3887467D01*
X10839447Y-3902961D01*
X10844527Y-3929123D01*
X10854941Y-3944617D01*
X10870689Y-3949697D01*
X10881103Y-3949697D01*
X10896597Y-3944617D01*
X10907011Y-3929123D01*
X10912091Y-3902961D01*
X10912091Y-3887467D01*
X10907011Y-3861559D01*
X10896597Y-3845811D01*
X10881103Y-3840731D01*
X10870689Y-3840731D01*
X10972543Y-3840731D02*
G01*
X10956795Y-3845811D01*
X10951715Y-3856225D01*
X10951715Y-3866639D01*
X10956795Y-3877053D01*
X10967209Y-3882387D01*
X10988037Y-3887467D01*
X11003531Y-3892547D01*
X11013945Y-3902961D01*
X11019279Y-3913375D01*
X11019279Y-3929123D01*
X11013945Y-3939537D01*
X11008865Y-3944617D01*
X10993117Y-3949697D01*
X10972543Y-3949697D01*
X10956795Y-3944617D01*
X10951715Y-3939537D01*
X10946381Y-3929123D01*
X10946381Y-3913375D01*
X10951715Y-3902961D01*
X10962129Y-3892547D01*
X10977623Y-3887467D01*
X10998451Y-3882387D01*
X11008865Y-3877053D01*
X11013945Y-3866639D01*
X11013945Y-3856225D01*
X11008865Y-3845811D01*
X10993117Y-3840731D01*
X10972543Y-3840731D01*
X11084557Y-3840731D02*
G01*
X11069063Y-3845811D01*
X11058649Y-3861559D01*
X11053569Y-3887467D01*
X11053569Y-3902961D01*
X11058649Y-3929123D01*
X11069063Y-3944617D01*
X11084557Y-3949697D01*
X11094971Y-3949697D01*
X11110719Y-3944617D01*
X11121133Y-3929123D01*
X11126213Y-3902961D01*
X11126213Y-3887467D01*
X11121133Y-3861559D01*
X11110719Y-3845811D01*
X11094971Y-3840731D01*
X11084557Y-3840731D01*
X11222987Y-3840731D02*
G01*
X11170917Y-3840731D01*
X11165837Y-3887467D01*
X11170917Y-3882387D01*
X11186411Y-3877053D01*
X11202159Y-3877053D01*
X11217653Y-3882387D01*
X11228067Y-3892547D01*
X11233147Y-3908295D01*
X11233147Y-3918709D01*
X11228067Y-3934203D01*
X11217653Y-3944617D01*
X11202159Y-3949697D01*
X11186411Y-3949697D01*
X11170917Y-3944617D01*
X11165837Y-3939537D01*
X11160503Y-3929123D01*
X11267437Y-3986273D02*
G01*
X11361163Y-3986273D01*
X11395453Y-3861559D02*
G01*
X11405867Y-3856225D01*
X11421361Y-3840731D01*
X11421361Y-3949697D01*
X11486893Y-3840731D02*
G01*
X11471145Y-3845811D01*
X11460731Y-3861559D01*
X11455651Y-3887467D01*
X11455651Y-3902961D01*
X11460731Y-3929123D01*
X11471145Y-3944617D01*
X11486893Y-3949697D01*
X11497307Y-3949697D01*
X11512801Y-3944617D01*
X11523215Y-3929123D01*
X11528295Y-3902961D01*
X11528295Y-3887467D01*
X11523215Y-3861559D01*
X11512801Y-3845811D01*
X11497307Y-3840731D01*
X11486893Y-3840731D01*
X11562585Y-3840731D02*
G01*
X11562585Y-3949697D01*
X11614655Y-3877053D02*
G01*
X11562585Y-3929123D01*
X11583413Y-3908295D02*
G01*
X11619735Y-3949697D01*
X10839447Y-4018531D02*
G01*
X10839447Y-4127497D01*
X10839447Y-4018531D02*
G01*
X10886183Y-4018531D01*
X10901677Y-4023611D01*
X10907011Y-4028945D01*
X10912091Y-4039359D01*
X10912091Y-4049773D01*
X10907011Y-4060187D01*
X10901677Y-4065267D01*
X10886183Y-4070347D01*
X10839447Y-4070347D01*
X10875769Y-4070347D02*
G01*
X10912091Y-4127497D01*
X10951715Y-4044439D02*
G01*
X10951715Y-4039359D01*
X10956795Y-4028945D01*
X10962129Y-4023611D01*
X10972543Y-4018531D01*
X10993117Y-4018531D01*
X11003531Y-4023611D01*
X11008865Y-4028945D01*
X11013945Y-4039359D01*
X11013945Y-4049773D01*
X11008865Y-4060187D01*
X10998451Y-4075681D01*
X10946381Y-4127497D01*
X11019279Y-4127497D01*
X10769089Y-3104131D02*
G01*
X10753341Y-3109211D01*
X10742927Y-3124959D01*
X10737847Y-3150867D01*
X10737847Y-3166361D01*
X10742927Y-3192523D01*
X10753341Y-3208017D01*
X10769089Y-3213097D01*
X10779503Y-3213097D01*
X10794997Y-3208017D01*
X10805411Y-3192523D01*
X10810491Y-3166361D01*
X10810491Y-3150867D01*
X10805411Y-3124959D01*
X10794997Y-3109211D01*
X10779503Y-3104131D01*
X10769089Y-3104131D01*
X10870943Y-3104131D02*
G01*
X10855195Y-3109211D01*
X10850115Y-3119625D01*
X10850115Y-3130039D01*
X10855195Y-3140453D01*
X10865609Y-3145787D01*
X10886437Y-3150867D01*
X10901931Y-3155947D01*
X10912345Y-3166361D01*
X10917679Y-3176775D01*
X10917679Y-3192523D01*
X10912345Y-3202937D01*
X10907265Y-3208017D01*
X10891517Y-3213097D01*
X10870943Y-3213097D01*
X10855195Y-3208017D01*
X10850115Y-3202937D01*
X10844781Y-3192523D01*
X10844781Y-3176775D01*
X10850115Y-3166361D01*
X10860529Y-3155947D01*
X10876023Y-3150867D01*
X10896851Y-3145787D01*
X10907265Y-3140453D01*
X10912345Y-3130039D01*
X10912345Y-3119625D01*
X10907265Y-3109211D01*
X10891517Y-3104131D01*
X10870943Y-3104131D01*
X10982957Y-3104131D02*
G01*
X10967463Y-3109211D01*
X10957049Y-3124959D01*
X10951969Y-3150867D01*
X10951969Y-3166361D01*
X10957049Y-3192523D01*
X10967463Y-3208017D01*
X10982957Y-3213097D01*
X10993371Y-3213097D01*
X11009119Y-3208017D01*
X11019533Y-3192523D01*
X11024613Y-3166361D01*
X11024613Y-3150867D01*
X11019533Y-3124959D01*
X11009119Y-3109211D01*
X10993371Y-3104131D01*
X10982957Y-3104131D01*
X11121387Y-3104131D02*
G01*
X11069317Y-3104131D01*
X11064237Y-3150867D01*
X11069317Y-3145787D01*
X11084811Y-3140453D01*
X11100559Y-3140453D01*
X11116053Y-3145787D01*
X11126467Y-3155947D01*
X11131547Y-3171695D01*
X11131547Y-3182109D01*
X11126467Y-3197603D01*
X11116053Y-3208017D01*
X11100559Y-3213097D01*
X11084811Y-3213097D01*
X11069317Y-3208017D01*
X11064237Y-3202937D01*
X11058903Y-3192523D01*
X11165837Y-3249673D02*
G01*
X11259563Y-3249673D01*
X11293853Y-3124959D02*
G01*
X11304267Y-3119625D01*
X11319761Y-3104131D01*
X11319761Y-3213097D01*
X11385293Y-3104131D02*
G01*
X11369545Y-3109211D01*
X11359131Y-3124959D01*
X11354051Y-3150867D01*
X11354051Y-3166361D01*
X11359131Y-3192523D01*
X11369545Y-3208017D01*
X11385293Y-3213097D01*
X11395707Y-3213097D01*
X11411201Y-3208017D01*
X11421615Y-3192523D01*
X11426695Y-3166361D01*
X11426695Y-3150867D01*
X11421615Y-3124959D01*
X11411201Y-3109211D01*
X11395707Y-3104131D01*
X11385293Y-3104131D01*
X11460985Y-3104131D02*
G01*
X11460985Y-3213097D01*
X11513055Y-3140453D02*
G01*
X11460985Y-3192523D01*
X11481813Y-3171695D02*
G01*
X11518135Y-3213097D01*
X10737847Y-3281931D02*
G01*
X10737847Y-3390897D01*
X10737847Y-3281931D02*
G01*
X10784583Y-3281931D01*
X10800077Y-3287011D01*
X10805411Y-3292345D01*
X10810491Y-3302759D01*
X10810491Y-3313173D01*
X10805411Y-3323587D01*
X10800077Y-3328667D01*
X10784583Y-3333747D01*
X10737847Y-3333747D01*
X10774169Y-3333747D02*
G01*
X10810491Y-3390897D01*
X10855195Y-3281931D02*
G01*
X10912345Y-3281931D01*
X10881357Y-3323587D01*
X10896851Y-3323587D01*
X10907265Y-3328667D01*
X10912345Y-3333747D01*
X10917679Y-3349495D01*
X10917679Y-3359909D01*
X10912345Y-3375403D01*
X10901931Y-3385817D01*
X10886437Y-3390897D01*
X10870943Y-3390897D01*
X10855195Y-3385817D01*
X10850115Y-3380737D01*
X10844781Y-3370323D01*
X7067067Y-1377238D02*
G01*
X7077481Y-1371904D01*
X7087895Y-1361490D01*
X7092975Y-1351076D01*
X7092975Y-1330248D01*
X7087895Y-1320088D01*
X7077481Y-1309674D01*
X7067067Y-1304340D01*
X7051319Y-1299260D01*
X7025411Y-1299260D01*
X7009917Y-1304340D01*
X6999503Y-1309674D01*
X6989089Y-1320088D01*
X6983755Y-1330248D01*
X6983755Y-1351076D01*
X6989089Y-1361490D01*
X6999503Y-1371904D01*
X7009917Y-1377238D01*
X7092975Y-1411528D02*
G01*
X6983755Y-1411528D01*
X7092975Y-1411528D02*
G01*
X6983755Y-1484172D01*
X7092975Y-1484172D02*
G01*
X6983755Y-1484172D01*
X7030745Y-1518462D02*
G01*
X7030745Y-1611934D01*
X7092975Y-1646224D02*
G01*
X6983755Y-1646224D01*
X7092975Y-1718868D02*
G01*
X7020331Y-1646224D01*
X7046239Y-1672132D02*
G01*
X6983755Y-1718868D01*
X7067067Y-1831136D02*
G01*
X7077481Y-1826056D01*
X7087895Y-1815642D01*
X7092975Y-1805228D01*
X7092975Y-1784400D01*
X7087895Y-1773986D01*
X7077481Y-1763572D01*
X7067067Y-1758492D01*
X7051319Y-1753158D01*
X7025411Y-1753158D01*
X7009917Y-1758492D01*
X6999503Y-1763572D01*
X6989089Y-1773986D01*
X6983755Y-1784400D01*
X6983755Y-1805228D01*
X6989089Y-1815642D01*
X6999503Y-1826056D01*
X7009917Y-1831136D01*
X7092975Y-1865426D02*
G01*
X6983755Y-1865426D01*
X7092975Y-1865426D02*
G01*
X7092975Y-1901748D01*
X7087895Y-1917496D01*
X7077481Y-1927910D01*
X7067067Y-1932990D01*
X7051319Y-1938324D01*
X7025411Y-1938324D01*
X7009917Y-1932990D01*
X6999503Y-1927910D01*
X6989089Y-1917496D01*
X6983755Y-1901748D01*
X6983755Y-1865426D01*
X7072147Y-1972614D02*
G01*
X7077481Y-1983028D01*
X7092975Y-1998522D01*
X6983755Y-1998522D01*
X7030745Y-2032812D02*
G01*
X7030745Y-2126284D01*
X7072147Y-2160574D02*
G01*
X7077481Y-2170988D01*
X7092975Y-2186482D01*
X6983755Y-2186482D01*
X7092975Y-2252014D02*
G01*
X7087895Y-2236520D01*
X7072147Y-2226106D01*
X7046239Y-2220772D01*
X7030745Y-2220772D01*
X7004583Y-2226106D01*
X6989089Y-2236520D01*
X6983755Y-2252014D01*
X6983755Y-2262428D01*
X6989089Y-2277922D01*
X7004583Y-2288336D01*
X7030745Y-2293670D01*
X7046239Y-2293670D01*
X7072147Y-2288336D01*
X7087895Y-2277922D01*
X7092975Y-2262428D01*
X7092975Y-2252014D01*
X7072147Y-2327960D02*
G01*
X7077481Y-2338374D01*
X7092975Y-2353868D01*
X6983755Y-2353868D01*
X7030745Y-2388158D02*
G01*
X7030745Y-2481630D01*
X7067067Y-2521254D02*
G01*
X7072147Y-2521254D01*
X7082561Y-2526334D01*
X7087895Y-2531668D01*
X7092975Y-2541828D01*
X7092975Y-2562656D01*
X7087895Y-2573070D01*
X7082561Y-2578404D01*
X7072147Y-2583484D01*
X7061733Y-2583484D01*
X7051319Y-2578404D01*
X7035825Y-2567990D01*
X6983755Y-2515920D01*
X6983755Y-2588818D01*
X7092975Y-2623108D02*
G01*
X6983755Y-2623108D01*
X7092975Y-2623108D02*
G01*
X7092975Y-2669844D01*
X7087895Y-2685338D01*
X7082561Y-2690418D01*
X7072147Y-2695752D01*
X7056653Y-2695752D01*
X7046239Y-2690418D01*
X7040905Y-2685338D01*
X7035825Y-2669844D01*
X7035825Y-2623108D01*
X6899681Y-1371904D02*
G01*
X6910095Y-1361490D01*
X6915175Y-1345996D01*
X6915175Y-1325168D01*
X6910095Y-1309674D01*
X6899681Y-1299260D01*
X6889267Y-1299260D01*
X6878853Y-1304340D01*
X6873519Y-1309674D01*
X6868439Y-1320088D01*
X6858025Y-1351076D01*
X6852945Y-1361490D01*
X6847611Y-1366824D01*
X6837197Y-1371904D01*
X6821703Y-1371904D01*
X6811289Y-1361490D01*
X6805955Y-1345996D01*
X6805955Y-1325168D01*
X6811289Y-1309674D01*
X6821703Y-1299260D01*
X6915175Y-1406194D02*
G01*
X6805955Y-1432102D01*
X6915175Y-1458264D02*
G01*
X6805955Y-1432102D01*
X6915175Y-1458264D02*
G01*
X6805955Y-1484172D01*
X6915175Y-1510080D02*
G01*
X6805955Y-1484172D01*
X6894347Y-1544370D02*
G01*
X6899681Y-1554784D01*
X6915175Y-1570278D01*
X6805955Y-1570278D01*
X7735315Y-2946400D02*
G01*
X7626350Y-2946400D01*
X7735315Y-3019044D02*
G01*
X7662672Y-2946400D01*
X7688579Y-2972307D02*
G01*
X7626350Y-3019044D01*
X7735315Y-3053334D02*
G01*
X7626350Y-3053334D01*
X7735315Y-3053334D02*
G01*
X7735315Y-3120897D01*
X7683500Y-3053334D02*
G01*
X7683500Y-3094989D01*
X7626350Y-3053334D02*
G01*
X7626350Y-3120897D01*
X7735315Y-3155187D02*
G01*
X7683500Y-3196844D01*
X7626350Y-3196844D01*
X7735315Y-3238500D02*
G01*
X7683500Y-3196844D01*
X7719822Y-3335020D02*
G01*
X7730236Y-3329939D01*
X7735315Y-3314192D01*
X7735315Y-3303778D01*
X7730236Y-3288284D01*
X7714488Y-3277870D01*
X7688579Y-3272789D01*
X7662672Y-3272789D01*
X7641843Y-3277870D01*
X7631429Y-3288284D01*
X7626350Y-3303778D01*
X7626350Y-3309112D01*
X7631429Y-3324605D01*
X7641843Y-3335020D01*
X7657338Y-3340100D01*
X7662672Y-3340100D01*
X7678165Y-3335020D01*
X7688579Y-3324605D01*
X7693659Y-3309112D01*
X7693659Y-3303778D01*
X7688579Y-3288284D01*
X7678165Y-3277870D01*
X7662672Y-3272789D01*
X6934200Y456184D02*
G01*
X6934200Y565150D01*
X6934200Y456184D02*
G01*
X6887463Y456184D01*
X6871970Y461263D01*
X6866636Y466597D01*
X6861556Y477012D01*
X6861556Y487426D01*
X6866636Y497839D01*
X6871970Y502920D01*
X6887463Y508000D01*
X6934200Y508000D01*
X6897877Y508000D02*
G01*
X6861556Y565150D01*
X6775195Y456184D02*
G01*
X6827265Y528828D01*
X6749288Y528828D01*
X6775195Y456184D02*
G01*
X6775195Y565150D01*
X7252715Y1035557D02*
G01*
X7247636Y1045971D01*
X7237222Y1056386D01*
X7226808Y1061720D01*
X7211059Y1066800D01*
X7185152Y1066800D01*
X7169658Y1061720D01*
X7159243Y1056386D01*
X7148829Y1045971D01*
X7143750Y1035557D01*
X7143750Y1014729D01*
X7148829Y1004570D01*
X7159243Y994155D01*
X7169658Y988821D01*
X7185152Y983742D01*
X7211059Y983742D01*
X7226808Y988821D01*
X7237222Y994155D01*
X7247636Y1004570D01*
X7252715Y1014729D01*
X7252715Y1035557D01*
X7164324Y1020063D02*
G01*
X7133336Y988821D01*
X7226808Y944118D02*
G01*
X7231888Y944118D01*
X7242302Y939037D01*
X7247636Y933704D01*
X7252715Y923289D01*
X7252715Y902715D01*
X7247636Y892302D01*
X7242302Y886968D01*
X7231888Y881887D01*
X7221474Y881887D01*
X7211059Y886968D01*
X7195565Y897381D01*
X7143750Y949452D01*
X7143750Y876554D01*
X6691884Y1524000D02*
G01*
X6800850Y1524000D01*
X6691884Y1524000D02*
G01*
X6691884Y1570736D01*
X6696963Y1586229D01*
X6702297Y1591563D01*
X6712711Y1596644D01*
X6723125Y1596644D01*
X6733540Y1591563D01*
X6738620Y1586229D01*
X6743700Y1570736D01*
X6743700Y1524000D01*
X6743700Y1560321D02*
G01*
X6800850Y1596644D01*
X6691884Y1693418D02*
G01*
X6691884Y1641347D01*
X6738620Y1636268D01*
X6733540Y1641347D01*
X6728206Y1657095D01*
X6728206Y1672589D01*
X6733540Y1688084D01*
X6743700Y1698497D01*
X6759447Y1703831D01*
X6769861Y1703831D01*
X6785356Y1698497D01*
X6795770Y1688084D01*
X6800850Y1672589D01*
X6800850Y1657095D01*
X6795770Y1641347D01*
X6790690Y1636268D01*
X6780275Y1630934D01*
X6196584Y1511300D02*
G01*
X6305550Y1511300D01*
X6196584Y1511300D02*
G01*
X6196584Y1558036D01*
X6201663Y1573529D01*
X6206997Y1578863D01*
X6217411Y1583944D01*
X6227825Y1583944D01*
X6238240Y1578863D01*
X6243320Y1573529D01*
X6248400Y1558036D01*
X6248400Y1511300D01*
X6248400Y1547621D02*
G01*
X6305550Y1583944D01*
X6212077Y1680718D02*
G01*
X6201663Y1675384D01*
X6196584Y1659889D01*
X6196584Y1649476D01*
X6201663Y1633981D01*
X6217411Y1623568D01*
X6243320Y1618234D01*
X6269227Y1618234D01*
X6290056Y1623568D01*
X6300470Y1633981D01*
X6305550Y1649476D01*
X6305550Y1654810D01*
X6300470Y1670304D01*
X6290056Y1680718D01*
X6274561Y1685797D01*
X6269227Y1685797D01*
X6253734Y1680718D01*
X6243320Y1670304D01*
X6238240Y1654810D01*
X6238240Y1649476D01*
X6243320Y1633981D01*
X6253734Y1623568D01*
X6269227Y1618234D01*
X6757415Y1035557D02*
G01*
X6752336Y1045971D01*
X6741922Y1056386D01*
X6731508Y1061720D01*
X6715759Y1066800D01*
X6689852Y1066800D01*
X6674358Y1061720D01*
X6663943Y1056386D01*
X6653529Y1045971D01*
X6648450Y1035557D01*
X6648450Y1014729D01*
X6653529Y1004570D01*
X6663943Y994155D01*
X6674358Y988821D01*
X6689852Y983742D01*
X6715759Y983742D01*
X6731508Y988821D01*
X6741922Y994155D01*
X6752336Y1004570D01*
X6757415Y1014729D01*
X6757415Y1035557D01*
X6669024Y1020063D02*
G01*
X6638036Y988821D01*
X6757415Y939037D02*
G01*
X6757415Y881887D01*
X6715759Y913129D01*
X6715759Y897381D01*
X6710679Y886968D01*
X6705600Y881887D01*
X6689852Y876554D01*
X6679438Y876554D01*
X6663943Y881887D01*
X6653529Y892302D01*
X6648450Y907795D01*
X6648450Y923289D01*
X6653529Y939037D01*
X6658609Y944118D01*
X6669024Y949452D01*
X6438900Y456184D02*
G01*
X6438900Y565150D01*
X6438900Y456184D02*
G01*
X6392163Y456184D01*
X6376670Y461263D01*
X6371336Y466597D01*
X6366256Y477012D01*
X6366256Y487426D01*
X6371336Y497839D01*
X6376670Y502920D01*
X6392163Y508000D01*
X6438900Y508000D01*
X6402577Y508000D02*
G01*
X6366256Y565150D01*
X6259068Y456184D02*
G01*
X6311138Y565150D01*
X6331965Y456184D02*
G01*
X6259068Y456184D01*
X5969000Y456184D02*
G01*
X5969000Y565150D01*
X5969000Y456184D02*
G01*
X5922263Y456184D01*
X5906770Y461263D01*
X5901436Y466597D01*
X5896356Y477012D01*
X5896356Y487426D01*
X5901436Y497839D01*
X5906770Y502920D01*
X5922263Y508000D01*
X5969000Y508000D01*
X5932677Y508000D02*
G01*
X5896356Y565150D01*
X5835904Y456184D02*
G01*
X5851652Y461263D01*
X5856731Y471678D01*
X5856731Y482092D01*
X5851652Y492505D01*
X5841238Y497839D01*
X5820409Y502920D01*
X5804915Y508000D01*
X5794502Y518413D01*
X5789168Y528828D01*
X5789168Y544576D01*
X5794502Y554989D01*
X5799581Y560070D01*
X5815329Y565150D01*
X5835904Y565150D01*
X5851652Y560070D01*
X5856731Y554989D01*
X5862065Y544576D01*
X5862065Y528828D01*
X5856731Y518413D01*
X5846318Y508000D01*
X5830824Y502920D01*
X5809995Y497839D01*
X5799581Y492505D01*
X5794502Y482092D01*
X5794502Y471678D01*
X5799581Y461263D01*
X5815329Y456184D01*
X5835904Y456184D01*
X6274815Y1035557D02*
G01*
X6269736Y1045971D01*
X6259322Y1056386D01*
X6248908Y1061720D01*
X6233159Y1066800D01*
X6207252Y1066800D01*
X6191758Y1061720D01*
X6181343Y1056386D01*
X6170929Y1045971D01*
X6165850Y1035557D01*
X6165850Y1014729D01*
X6170929Y1004570D01*
X6181343Y994155D01*
X6191758Y988821D01*
X6207252Y983742D01*
X6233159Y983742D01*
X6248908Y988821D01*
X6259322Y994155D01*
X6269736Y1004570D01*
X6274815Y1014729D01*
X6274815Y1035557D01*
X6186424Y1020063D02*
G01*
X6155436Y988821D01*
X6274815Y897381D02*
G01*
X6202172Y949452D01*
X6202172Y871473D01*
X6274815Y897381D02*
G01*
X6165850Y897381D01*
X5713984Y1511300D02*
G01*
X5822950Y1511300D01*
X5713984Y1511300D02*
G01*
X5713984Y1558036D01*
X5719063Y1573529D01*
X5724397Y1578863D01*
X5734811Y1583944D01*
X5745225Y1583944D01*
X5755640Y1578863D01*
X5760720Y1573529D01*
X5765800Y1558036D01*
X5765800Y1511300D01*
X5765800Y1547621D02*
G01*
X5822950Y1583944D01*
X5750306Y1685797D02*
G01*
X5765800Y1680718D01*
X5776213Y1670304D01*
X5781547Y1654810D01*
X5781547Y1649476D01*
X5776213Y1633981D01*
X5765800Y1623568D01*
X5750306Y1618234D01*
X5745225Y1618234D01*
X5729477Y1623568D01*
X5719063Y1633981D01*
X5713984Y1649476D01*
X5713984Y1654810D01*
X5719063Y1670304D01*
X5729477Y1680718D01*
X5750306Y1685797D01*
X5776213Y1685797D01*
X5802375Y1680718D01*
X5817870Y1670304D01*
X5822950Y1654810D01*
X5822950Y1644395D01*
X5817870Y1628647D01*
X5807456Y1623568D01*
D11*
X6263299Y-3614699D02*
G01*
X6263302Y-3014698D01*
X6263302Y-3014698D02*
G01*
X5793303Y-3014698D01*
X5793303Y-3014698D02*
G01*
X5793308Y-3614696D01*
X5793300Y-3614699D02*
G01*
X6250465Y-3614699D01*
D12*
X10962284Y-4993157D02*
G01*
X11122289Y-4993157D01*
X11122289Y-4863162D01*
X10962284Y-4863162D02*
G01*
X10962284Y-4993157D01*
X10962284Y-4763142D02*
G01*
X10962284Y-4633147D01*
X11122289Y-4633147D01*
X11122289Y-4763142D01*
X10974984Y-6542557D02*
G01*
X11134989Y-6542557D01*
X11134989Y-6412562D01*
X10974984Y-6412562D02*
G01*
X10974984Y-6542557D01*
X10974984Y-6312542D02*
G01*
X10974984Y-6182547D01*
X11134989Y-6182547D01*
X11134989Y-6312542D01*
X10987684Y-8066557D02*
G01*
X11147689Y-8066557D01*
X11147689Y-7936562D01*
X10987684Y-7936562D02*
G01*
X10987684Y-8066557D01*
X10987684Y-7836542D02*
G01*
X10987684Y-7706547D01*
X11147689Y-7706547D01*
X11147689Y-7836542D01*
D11*
X10322382Y-5063164D02*
G01*
X10322382Y-4563165D01*
X10649343Y-5063164D02*
G01*
X10495419Y-5063164D01*
X10334355Y-5063164D02*
G01*
X10322382Y-5063164D01*
X10822381Y-5063164D02*
G01*
X10810407Y-5063164D01*
X10822381Y-4563165D02*
G01*
X10822381Y-5063164D01*
X10810407Y-4563165D02*
G01*
X10822381Y-4563165D01*
X10322382Y-4563165D02*
G01*
X10334355Y-4563165D01*
X10495419Y-4563165D02*
G01*
X10649343Y-4563165D01*
X10347782Y-6625264D02*
G01*
X10347782Y-6125265D01*
X10674743Y-6625264D02*
G01*
X10520819Y-6625264D01*
X10359755Y-6625264D02*
G01*
X10347782Y-6625264D01*
X10847781Y-6625264D02*
G01*
X10835807Y-6625264D01*
X10847781Y-6125265D02*
G01*
X10847781Y-6625264D01*
X10835807Y-6125265D02*
G01*
X10847781Y-6125265D01*
X10347782Y-6125265D02*
G01*
X10359755Y-6125265D01*
X10520819Y-6125265D02*
G01*
X10674743Y-6125265D01*
X10385882Y-8123864D02*
G01*
X10385882Y-7623865D01*
X10712843Y-8123864D02*
G01*
X10558919Y-8123864D01*
X10397855Y-8123864D02*
G01*
X10385882Y-8123864D01*
X10885881Y-8123864D02*
G01*
X10873907Y-8123864D01*
X10885881Y-7623865D02*
G01*
X10885881Y-8123864D01*
X10873907Y-7623865D02*
G01*
X10885881Y-7623865D01*
X10385882Y-7623865D02*
G01*
X10397855Y-7623865D01*
X10558919Y-7623865D02*
G01*
X10712843Y-7623865D01*
X8891549Y-851788D02*
G01*
X8891549Y-1332611D01*
X8706241Y-1392199D02*
G01*
X8476858Y-1392199D01*
X8291550Y-1332611D02*
G01*
X8291550Y-851788D01*
X8476858Y-792200D02*
G01*
X8706241Y-792200D01*
X8891549Y-2769488D02*
G01*
X8891549Y-3250311D01*
X8706241Y-3309899D02*
G01*
X8476858Y-3309899D01*
X8291550Y-3250311D02*
G01*
X8291550Y-2769488D01*
X8476858Y-2709900D02*
G01*
X8706241Y-2709900D01*
X8891549Y-1816991D02*
G01*
X8891549Y-2297813D01*
X8706241Y-2357401D02*
G01*
X8476858Y-2357401D01*
X8291550Y-2297813D02*
G01*
X8291550Y-1816991D01*
X8476858Y-1757403D02*
G01*
X8706241Y-1757403D01*
X9123400Y-2297811D02*
G01*
X9123400Y-1816988D01*
X9308708Y-1757400D02*
G01*
X9538091Y-1757400D01*
X9723399Y-1816988D02*
G01*
X9723399Y-2297811D01*
X9538091Y-2357399D02*
G01*
X9308708Y-2357399D01*
X8059699Y-1816994D02*
G01*
X8059699Y-2297816D01*
X7874391Y-2357404D02*
G01*
X7645008Y-2357404D01*
X7459700Y-2297816D02*
G01*
X7459700Y-1816994D01*
X7645008Y-1757405D02*
G01*
X7874391Y-1757405D01*
X11639199Y-480796D02*
G01*
X11639199Y2919196D01*
X5989210Y2919196D02*
G01*
X5989210Y-480796D01*
X11639199Y-480796D01*
X11639199Y2919196D02*
G01*
X5989210Y2919196D01*
X6553200Y-304800D02*
G01*
X6553200Y2743200D01*
X11125200Y2743200D01*
X11125200Y-304800D01*
X6553200Y-304800D01*
X6807200Y-50800D02*
G01*
X6807200Y2489200D01*
X10363200Y2489200D01*
X10363200Y-50800D01*
X6807200Y-50800D01*
D10*
X10578879Y-3813578D02*
G01*
X10578879Y-3958821D01*
X10682041Y-3958821D01*
X10884120Y-3813578D02*
G01*
X10884120Y-3958821D01*
X10780958Y-3958821D01*
X10685960Y-3813578D02*
G01*
X10777039Y-3813578D01*
X9280890Y-9331319D02*
G01*
X9280890Y-9459813D01*
X9464309Y-9459813D01*
X9464309Y-9331319D01*
X9280890Y-9236080D02*
G01*
X9280890Y-9107586D01*
X9464309Y-9107586D01*
X9464309Y-9236080D01*
X10887067Y-4352556D02*
G01*
X11015560Y-4352556D01*
X11015560Y-4169138D01*
X10887067Y-4169138D01*
X10791827Y-4352556D02*
G01*
X10663334Y-4352556D01*
X10663334Y-4169138D01*
X10791827Y-4169138D01*
X10785467Y-3615956D02*
G01*
X10913960Y-3615956D01*
X10913960Y-3432538D01*
X10785467Y-3432538D01*
X10690227Y-3615956D02*
G01*
X10561734Y-3615956D01*
X10561734Y-3432538D01*
X10690227Y-3432538D01*
D11*
X5801700Y-665200D02*
G01*
X5801697Y-1265201D01*
X5801697Y-1265201D02*
G01*
X6271696Y-1265201D01*
X6271696Y-1265201D02*
G01*
X6271691Y-665203D01*
X6271699Y-665200D02*
G01*
X5814534Y-665200D01*
X7564399Y-2705988D02*
G01*
X7564399Y-3186811D01*
X7379091Y-3246399D02*
G01*
X7149708Y-3246399D01*
X6964400Y-3186811D02*
G01*
X6964400Y-2705988D01*
X7149708Y-2646400D02*
G01*
X7379091Y-2646400D01*
D10*
X6804906Y1514990D02*
G01*
X6804906Y1386497D01*
X6988324Y1386497D01*
X6988324Y1514990D01*
X6804906Y1610230D02*
G01*
X6804906Y1738723D01*
X6988324Y1738723D01*
X6988324Y1610230D01*
X6600936Y1715231D02*
G01*
X6455694Y1715231D01*
X6455694Y1612069D01*
X6600936Y1409989D02*
G01*
X6455694Y1409989D01*
X6455694Y1513151D01*
X6600936Y1608150D02*
G01*
X6600936Y1517070D01*
X6023495Y1654319D02*
G01*
X5895002Y1654319D01*
X5895002Y1470901D01*
X6023495Y1470901D01*
X6118735Y1654319D02*
G01*
X6247229Y1654319D01*
X6247229Y1470901D01*
X6118735Y1470901D01*
X6036195Y1159019D02*
G01*
X5907702Y1159019D01*
X5907702Y975601D01*
X6036195Y975601D01*
X6131435Y1159019D02*
G01*
X6259929Y1159019D01*
X6259929Y975601D01*
X6131435Y975601D01*
X6600936Y1219931D02*
G01*
X6455694Y1219931D01*
X6455694Y1116769D01*
X6600936Y914689D02*
G01*
X6455694Y914689D01*
X6455694Y1017851D01*
X6600936Y1112850D02*
G01*
X6600936Y1021770D01*
X6804906Y1019690D02*
G01*
X6804906Y891197D01*
X6988324Y891197D01*
X6988324Y1019690D01*
X6804906Y1114930D02*
G01*
X6804906Y1243423D01*
X6988324Y1243423D01*
X6988324Y1114930D01*
X6804906Y549790D02*
G01*
X6804906Y421297D01*
X6988324Y421297D01*
X6988324Y549790D01*
X6804906Y645030D02*
G01*
X6804906Y773523D01*
X6988324Y773523D01*
X6988324Y645030D01*
X6600936Y737331D02*
G01*
X6455694Y737331D01*
X6455694Y634169D01*
X6600936Y432089D02*
G01*
X6455694Y432089D01*
X6455694Y535251D01*
X6600936Y630250D02*
G01*
X6600936Y539170D01*
X6036195Y676419D02*
G01*
X5907702Y676419D01*
X5907702Y493001D01*
X6036195Y493001D01*
X6131435Y676419D02*
G01*
X6259929Y676419D01*
X6259929Y493001D01*
X6131435Y493001D01*
D11*
G75*
G01
X9621012Y-7854874D02*
G03X9621012Y-7854874I-350012J0D01*
G75*
G01
X9421012Y-7245274D02*
G03X9421012Y-7245274I-150012J0D01*
G75*
G01
X6839712Y-7854874D02*
G03X6839712Y-7854874I-350012J0D01*
G75*
G01
X6639712Y-7245274D02*
G03X6639712Y-7245274I-150012J0D01*
G75*
G01
X8230362Y-7854874D02*
G03X8230362Y-7854874I-350012J0D01*
G75*
G01
X8030362Y-7245274D02*
G03X8030362Y-7245274I-150012J0D01*
G75*
G01
X6865112Y-6404026D02*
G03X6865112Y-6404026I-350012J0D01*
G75*
G01
X6665112Y-5794426D02*
G03X6665112Y-5794426I-150012J0D01*
G75*
G01
X8284464Y-6407074D02*
G03X8284464Y-6407074I-350012J0D01*
G75*
G01
X8084464Y-5797474D02*
G03X8084464Y-5797474I-150012J0D01*
G75*
G01
X9608312Y-6413424D02*
G03X9608312Y-6413424I-350012J0D01*
G75*
G01
X9408312Y-5803824D02*
G03X9408312Y-5803824I-150012J0D01*
G75*
G01
X6890512Y-4952924D02*
G03X6890512Y-4952924I-350012J0D01*
G75*
G01
X6690512Y-4343324D02*
G03X6690512Y-4343324I-150012J0D01*
G75*
G01
X8284464Y-4914824D02*
G03X8284464Y-4914824I-350012J0D01*
G75*
G01
X8084464Y-4305224D02*
G03X8084464Y-4305224I-150012J0D01*
G75*
G01
X9608312Y-4914824D02*
G03X9608312Y-4914824I-350012J0D01*
G75*
G01
X9408312Y-4305224D02*
G03X9408312Y-4305224I-150012J0D01*
G75*
G01
X10332415Y-5113172D02*
G03X10332415Y-5113172I-10008J0D01*
G75*
G01
X10722407Y-4813122D02*
G03X10722407Y-4813122I-150012J0D01*
G75*
G01
X10357815Y-6675272D02*
G03X10357815Y-6675272I-10008J0D01*
G75*
G01
X10747807Y-6375222D02*
G03X10747807Y-6375222I-150012J0D01*
G75*
G01
X10395915Y-8173872D02*
G03X10395915Y-8173872I-10008J0D01*
G75*
G01
X10785907Y-7873822D02*
G03X10785907Y-7873822I-150012J0D01*
G75*
G01
X8771560Y-1092200D02*
G03X8771560Y-1092200I-180010J0D01*
G75*
G01
X8816264Y-1272210D02*
G03X8816264Y-1272210I-44729J0D01*
G75*
G01
X8816289Y-912190D02*
G03X8816289Y-912190I-44729J0D01*
G75*
G01
X8456270Y-912190D02*
G03X8456270Y-912190I-44729J0D01*
G75*
G01
X8456270Y-1272210D02*
G03X8456270Y-1272210I-44729J0D01*
G75*
G01
X8771560Y-3009900D02*
G03X8771560Y-3009900I-180010J0D01*
G75*
G01
X8816264Y-3189910D02*
G03X8816264Y-3189910I-44729J0D01*
G75*
G01
X8816289Y-2829890D02*
G03X8816289Y-2829890I-44729J0D01*
G75*
G01
X8456270Y-2829890D02*
G03X8456270Y-2829890I-44729J0D01*
G75*
G01
X8456270Y-3189910D02*
G03X8456270Y-3189910I-44729J0D01*
G75*
G01
X8771560Y-2057400D02*
G03X8771560Y-2057400I-180010J0D01*
G75*
G01
X8816264Y-2237410D02*
G03X8816264Y-2237410I-44729J0D01*
G75*
G01
X8816289Y-1877390D02*
G03X8816289Y-1877390I-44729J0D01*
G75*
G01
X8456270Y-1877390D02*
G03X8456270Y-1877390I-44729J0D01*
G75*
G01
X8456270Y-2237410D02*
G03X8456270Y-2237410I-44729J0D01*
G75*
G01
X9603410Y-2057400D02*
G03X9603410Y-2057400I-180010J0D01*
G75*
G01
X9288145Y-1877390D02*
G03X9288145Y-1877390I-44729J0D01*
G75*
G01
X9288120Y-2237410D02*
G03X9288120Y-2237410I-44729J0D01*
G75*
G01
X9648139Y-2237410D02*
G03X9648139Y-2237410I-44729J0D01*
G75*
G01
X9648139Y-1877390D02*
G03X9648139Y-1877390I-44729J0D01*
G75*
G01
X7939710Y-2057400D02*
G03X7939710Y-2057400I-180010J0D01*
G75*
G01
X7984414Y-2237410D02*
G03X7984414Y-2237410I-44729J0D01*
G75*
G01
X7984439Y-1877390D02*
G03X7984439Y-1877390I-44729J0D01*
G75*
G01
X7624420Y-1877390D02*
G03X7624420Y-1877390I-44729J0D01*
G75*
G01
X7624420Y-2237410D02*
G03X7624420Y-2237410I-44729J0D01*
G75*
G01
X7444410Y-2946400D02*
G03X7444410Y-2946400I-180010J0D01*
G75*
G01
X7489114Y-3126410D02*
G03X7489114Y-3126410I-44729J0D01*
G75*
G01
X7489139Y-2766390D02*
G03X7489139Y-2766390I-44729J0D01*
G75*
G01
X7129120Y-2766390D02*
G03X7129120Y-2766390I-44729J0D01*
G75*
G01
X7129120Y-3126410D02*
G03X7129120Y-3126410I-44729J0D01*
M02*
