M48
METRIC,LZ,000.000
;FILE_FORMAT=3:3
;TYPE=PLATED
;Layer: PTH_Through
;EasyEDA v6.5.54, 2026-05-04 19:38:11
;5f17a63f1c7d4cd2a323212eb2037d27,960f30f31fa644a792902757f8e8d678,10
;Gerber Generator version 0.2
;Holesize 1 = 0.901 mm
T01C0.901
;Holesize 2 = 0.915 mm
T02C0.915
;Holesize 3 = 1.000 mm
T03C1.000
;Holesize 4 = 1.200 mm
T04C1.200
%
G05
G90
T01
X060833Y-034147
X060833Y-032147
X059817Y-008652
X059817Y-010652
T02
X092710Y-072453
X064897Y-072453
X078804Y-072453
X065151Y-057944
X079345Y-057975
X092583Y-058038
X065405Y-043433
X079345Y-043052
X092583Y-043052
X065532Y-040259
X079375Y-040259
X092710Y-040259
T03
X099246Y028972G85X099246Y028972
X099246Y026432G85X099246Y026432
X099246Y023892G85X099246Y023892
X099246Y021352G85X099246Y021352
X099246Y018812G85X099246Y018812
X099246Y016272G85X099246Y016272
X099246Y013732G85X099246Y013732
X099246Y011192G85X099246Y011192
X099246Y008652G85X099246Y008652
X099246Y006112G85X099246Y006112
X099246Y003572G85X099246Y003572
X099246Y001032G85X099246Y001032
X099246Y-001508G85X099246Y-001508
X099246Y-004048G85X099246Y-004048
X099246Y-006588G85X099246Y-006588
X074476Y-006588G85X074476Y-006588
X074476Y-004048G85X074476Y-004048
X074476Y-001508G85X074476Y-001508
X074476Y001032G85X074476Y001032
X074476Y003572G85X074476Y003572
X074476Y006112G85X074476Y006112
X074476Y008652G85X074476Y008652
X074476Y011192G85X074476Y011192
X074476Y013732G85X074476Y013732
X074476Y016272G85X074476Y016272
X074476Y018812G85X074476Y018812
X074476Y021352G85X074476Y021352
X074476Y023892G85X074476Y023892
X074476Y026432G85X074476Y026432
X074476Y028972G85X074476Y028972
X078192Y-015216
X072492Y-015216
X058992Y-020891G85X058992Y-020941
X059017Y-027116G85X058967Y-027116
X060367Y-015316G85X060417Y-015316
X113792Y003302
X113792Y005842
X113792Y008382
X113792Y010922
X113792Y013462
X113792Y016002
X113792Y018542
X113792Y021082
X072390Y-019558G85X072390Y-019558
X110490Y021336G85X110490Y021336
X110490Y016510G85X110490Y016510
X110490Y013335G85X110490Y013335
X110490Y010668G85X110490Y010668
X110490Y008128G85X110490Y008128
X110490Y018923
X102108Y026416G85X102108Y026416
X081153Y-026797G85X081153Y-026797
X080772Y-014351G85X080772Y-014351
X079883Y-006858G85X079883Y-006858
X098679Y-093980G85X098679Y-093980
X110236Y-067310G85X110236Y-067310
X103378Y-069088G85X103378Y-069088
X108515Y-072011G85X108515Y-072010
X105410Y-052705G85X105410Y-052705
X110490Y-052451G85X110490Y-052451
X081026Y-010541G85X081026Y-010541
X091694Y-010922G85X091694Y-010922
X086106Y-015748G85X086106Y-015748
X101092Y-075565G85X101092Y-075565
X064135Y-011176G85X064135Y-011176
X061214Y-028829G85X061214Y-028829
X061087Y-038227G85X061087Y-038227
X064262Y-006350G85X064262Y-006350
X069469Y-006731G85X069469Y-006731
X071374Y-011430G85X071374Y-011430
X094869Y-025527G85X094869Y-025527
X105156Y002286G85X105156Y002286
X063373Y008255G85X063373Y008255
X068707Y-001778G85X068707Y-001778
X066421Y-001778G85X066421Y-001778
X063373Y013208G85X063373Y013208
X067056Y008255G85X067056Y008255
X069215Y002794G85X069215Y002794
X067183Y013208G85X067183Y013208
X069735Y029192G85X069735Y029192
T04
X088166Y-007672
X088166Y-014172
X083665Y-007672
X083665Y-014172
X088166Y-026849
X088166Y-033349
X083665Y-026849
X083665Y-033349
X088166Y-017324
X088166Y-023824
X083665Y-017324
X083665Y-023824
X091984Y-023824
X091984Y-017324
X096484Y-023824
X096484Y-017324
X079847Y-017324
X079847Y-023824
X075347Y-017324
X075347Y-023824
X074894Y-026214
X074894Y-032714
X070394Y-026214
X070394Y-032714
X060452Y-017780
M30
